Neuton-Italic.ufo
<glyph name="exclam" format="1">
  <advance width="494"/>
  <unicode hex="0021"/>
  <outline>
    <contour>
      <point x="187" y="210" type="curve" smooth="yes"/>
      <point x="248" y="210"/>
      <point x="295" y="156"/>
      <point x="295" y="98" type="curve" smooth="yes"/>
      <point x="295" y="16"/>
      <point x="220" y="-36"/>
      <point x="148" y="-36" type="curve" smooth="yes"/>
      <point x="85" y="-36"/>
      <point x="44" y="21"/>
      <point x="44" y="81" type="curve" smooth="yes"/>
      <point x="44" y="162"/>
      <point x="116" y="210"/>
    </contour>
    <contour>
      <point x="254" y="1245" type="curve" smooth="yes"/>
      <point x="260" y="1282"/>
      <point x="330" y="1292"/>
      <point x="373" y="1292" type="curve" smooth="yes"/>
      <point x="398" y="1292"/>
      <point x="451" y="1285"/>
      <point x="451" y="1259" type="curve" smooth="yes"/>
      <point x="451" y="1212"/>
      <point x="323" y="591"/>
      <point x="254" y="357" type="curve"/>
      <point x="170" y="376" type="line"/>
      <point x="201" y="669"/>
      <point x="227" y="1072"/>
    </contour>
  </outline>
</glyph>
<glyph name="numbersign" format="1">
  <advance width="1099"/>
  <unicode hex="0023"/>
  <outline>
    <contour>
      <point x="246" y="-26" type="line"/>
      <point x="423" y="1149" type="line"/>
      <point x="539" y="1159" type="line"/>
      <point x="363" y="-19" type="line"/>
    </contour>
    <contour>
      <point x="113" y="711" type="line"/>
      <point x="147" y="836" type="line"/>
      <point x="1056" y="836" type="line"/>
      <point x="1025" y="711" type="line"/>
    </contour>
    <contour>
      <point x="42" y="326" type="line"/>
      <point x="75" y="451" type="line"/>
      <point x="981" y="451" type="line"/>
      <point x="950" y="326" type="line"/>
    </contour>
    <contour>
      <point x="551" y="-26" type="line"/>
      <point x="727" y="1149" type="line"/>
      <point x="845" y="1158" type="line"/>
      <point x="668" y="-19" type="line"/>
    </contour>
  </outline>
</glyph>
<glyph name="dollar" format="1">
  <advance width="938"/>
  <unicode hex="0024"/>
  <outline>
    <contour>
      <point x="832" y="887" type="curve"/>
      <point x="735" y="898" type="line"/>
      <point x="738" y="1090" type="line"/>
      <point x="731" y="1118"/>
      <point x="668" y="1184"/>
      <point x="584" y="1184" type="curve" smooth="yes"/>
      <point x="470" y="1184"/>
      <point x="371" y="1113"/>
      <point x="371" y="968" type="curve" smooth="yes"/>
      <point x="371" y="725"/>
      <point x="862" y="714"/>
      <point x="862" y="400" type="curve" smooth="yes"/>
      <point x="862" y="147"/>
      <point x="603" y="-25"/>
      <point x="352" y="-25" type="curve" smooth="yes"/>
      <point x="208" y="-25"/>
      <point x="80" y="41"/>
      <point x="39" y="122" type="curve"/>
      <point x="96" y="390" type="line"/>
      <point x="195" y="375" type="line"/>
      <point x="201" y="187" type="line"/>
      <point x="229" y="123"/>
      <point x="294" y="78"/>
      <point x="391" y="78" type="curve" smooth="yes"/>
      <point x="507" y="78"/>
      <point x="665" y="149"/>
      <point x="665" y="312" type="curve" smooth="yes"/>
      <point x="665" y="528"/>
      <point x="186" y="556"/>
      <point x="186" y="870" type="curve" smooth="yes"/>
      <point x="186" y="1128"/>
      <point x="414" y="1270"/>
      <point x="632" y="1270" type="curve" smooth="yes"/>
      <point x="720" y="1270"/>
      <point x="832" y="1247"/>
      <point x="898" y="1169" type="curve"/>
      <point x="896" y="1161"/>
      <point x="832" y="887"/>
    </contour>
    <contour>
      <point x="285" y="-179" type="line"/>
      <point x="326" y="9" type="line"/>
      <point x="371" y="54" type="line"/>
      <point x="462" y="631" type="line"/>
      <point x="478" y="700" type="line"/>
      <point x="558" y="1207" type="line"/>
      <point x="528" y="1242" type="line"/>
      <point x="537" y="1394" type="line"/>
      <point x="704" y="1409" type="line"/>
      <point x="661" y="1242" type="line"/>
      <point x="619" y="1202" type="line"/>
      <point x="534" y="666" type="line"/>
      <point x="524" y="582" type="line"/>
      <point x="441" y="54" type="line"/>
      <point x="476" y="20" type="line"/>
      <point x="460" y="-164" type="line"/>
    </contour>
  </outline>
</glyph>
<glyph name="percent" format="1">
  <advance width="1241"/>
  <unicode hex="0025"/>
  <outline>
    <contour>
      <point x="413" y="1211" type="curve" smooth="yes"/>
      <point x="431" y="1211"/>
      <point x="436" y="1210"/>
      <point x="442" y="1208" type="curve"/>
      <point x="441" y="1142" type="line"/>
      <point x="427" y="1148"/>
      <point x="417" y="1154"/>
      <point x="398" y="1154" type="curve" smooth="yes"/>
      <point x="300" y="1154"/>
      <point x="248" y="934"/>
      <point x="248" y="797" type="curve" smooth="yes"/>
      <point x="248" y="716"/>
      <point x="267" y="649"/>
      <point x="320" y="649" type="curve" smooth="yes"/>
      <point x="446" y="649"/>
      <point x="482" y="945"/>
      <point x="482" y="1094" type="curve" smooth="yes"/>
      <point x="482" y="1136"/>
      <point x="479" y="1171"/>
      <point x="474" y="1198" type="curve"/>
      <point x="1033" y="1210" type="line"/>
      <point x="1029" y="1121" type="line"/>
      <point x="592" y="1137" type="line"/>
      <point x="623" y="1099"/>
      <point x="632" y="1015"/>
      <point x="632" y="953" type="curve" smooth="yes"/>
      <point x="632" y="748"/>
      <point x="440" y="583"/>
      <point x="310" y="583" type="curve" smooth="yes"/>
      <point x="196" y="583"/>
      <point x="87" y="682"/>
      <point x="87" y="840" type="curve" smooth="yes"/>
      <point x="87" y="1043"/>
      <point x="276" y="1211"/>
    </contour>
    <contour>
      <point x="42" y="-10" type="line"/>
      <point x="544" y="588" type="line"/>
      <point x="1033" y="1210" type="line"/>
      <point x="1199" y="1207" type="line"/>
      <point x="1192" y="1178" type="line"/>
      <point x="698" y="591" type="line"/>
      <point x="229" y="-32" type="line"/>
    </contour>
    <contour>
      <point x="931" y="590" type="curve" smooth="yes"/>
      <point x="1057" y="590"/>
      <point x="1150" y="483"/>
      <point x="1150" y="334" type="curve" smooth="yes"/>
      <point x="1150" y="131"/>
      <point x="967" y="-36"/>
      <point x="835" y="-36" type="curve" smooth="yes"/>
      <point x="721" y="-36"/>
      <point x="607" y="63"/>
      <point x="607" y="221" type="curve" smooth="yes"/>
      <point x="607" y="422"/>
      <point x="796" y="590"/>
    </contour>
    <contour>
      <point x="769" y="187" type="curve" smooth="yes"/>
      <point x="769" y="103"/>
      <point x="791" y="32"/>
      <point x="846" y="32" type="curve" smooth="yes"/>
      <point x="949" y="32"/>
      <point x="995" y="243"/>
      <point x="995" y="386" type="curve" smooth="yes"/>
      <point x="995" y="467"/>
      <point x="976" y="534"/>
      <point x="922" y="534" type="curve" smooth="yes"/>
      <point x="821" y="534"/>
      <point x="769" y="324"/>
    </contour>
  </outline>
</glyph>
<glyph name="ampersand" format="1">
  <advance width="1454"/>
  <unicode hex="0026"/>
  <outline>
    <contour>
      <point x="1213" y="723" type="line"/>
      <point x="947" y="353" type="line"/>
      <point x="998" y="287"/>
      <point x="1145" y="105"/>
      <point x="1231" y="79" type="curve" smooth="yes"/>
      <point x="1263" y="69" type="line"/>
      <point x="1236" y="0" type="line"/>
      <point x="1191" y="-15"/>
      <point x="1150" y="-20"/>
      <point x="1112" y="-20" type="curve" smooth="yes"/>
      <point x="1001" y="-20"/>
      <point x="903" y="92"/>
      <point x="807" y="218" type="curve"/>
      <point x="726" y="126"/>
      <point x="584" y="-20"/>
      <point x="359" y="-20" type="curve" smooth="yes"/>
      <point x="160" y="-20"/>
      <point x="45" y="106"/>
      <point x="45" y="262" type="curve" smooth="yes"/>
      <point x="45" y="493"/>
      <point x="257" y="628"/>
      <point x="400" y="702" type="curve"/>
      <point x="355" y="746"/>
      <point x="295" y="833"/>
      <point x="295" y="935" type="curve" smooth="yes"/>
      <point x="295" y="1112"/>
      <point x="482" y="1272"/>
      <point x="661" y="1272" type="curve" smooth="yes"/>
      <point x="807" y="1272"/>
      <point x="943" y="1220"/>
      <point x="943" y="1061" type="curve" smooth="yes"/>
      <point x="943" y="888"/>
      <point x="786" y="791"/>
      <point x="653" y="717" type="curve"/>
      <point x="651" y="705" type="line"/>
      <point x="888" y="423" type="line"/>
      <point x="1102" y="720" type="line"/>
      <point x="941" y="761" type="line"/>
      <point x="962" y="837" type="line"/>
      <point x="1411" y="837" type="line"/>
      <point x="1390" y="761" type="line"/>
    </contour>
    <contour>
      <point x="453" y="629" type="line"/>
      <point x="438" y="631" type="line"/>
      <point x="349" y="576"/>
      <point x="246" y="485"/>
      <point x="246" y="338" type="curve" smooth="yes"/>
      <point x="246" y="218"/>
      <point x="306" y="106"/>
      <point x="438" y="106" type="curve" smooth="yes"/>
      <point x="588" y="106"/>
      <point x="720" y="244"/>
      <point x="746" y="282" type="curve"/>
    </contour>
    <contour>
      <point x="594" y="773" type="curve"/>
      <point x="706" y="841"/>
      <point x="768" y="902"/>
      <point x="768" y="1029" type="curve" smooth="yes"/>
      <point x="768" y="1117"/>
      <point x="720" y="1187"/>
      <point x="628" y="1187" type="curve" smooth="yes"/>
      <point x="534" y="1187"/>
      <point x="465" y="1091"/>
      <point x="465" y="1002" type="curve" smooth="yes"/>
      <point x="465" y="913"/>
      <point x="544" y="820"/>
    </contour>
  </outline>
</glyph>
<glyph name="quotesingle" format="1">
  <advance width="315"/>
  <unicode hex="0027"/>
  <outline>
    <contour>
      <point x="83" y="1303" type="line"/>
      <point x="263" y="1286" type="line"/>
      <point x="167" y="903" type="line"/>
      <point x="71" y="892" type="line"/>
    </contour>
  </outline>
</glyph>
<glyph name="parenleft" format="1">
  <advance width="611"/>
  <unicode hex="0028"/>
  <outline>
    <contour>
      <point x="347" y="-317" type="curve"/>
      <point x="268" y="-375" type="line"/>
      <point x="231" y="-334"/>
      <point x="50" y="-118"/>
      <point x="50" y="261" type="curve" smooth="yes"/>
      <point x="50" y="831"/>
      <point x="448" y="1192"/>
      <point x="531" y="1255" type="curve"/>
      <point x="570" y="1189" type="line"/>
      <point x="461" y="1072"/>
      <point x="229" y="713"/>
      <point x="229" y="249" type="curve" smooth="yes"/>
      <point x="229" y="-43"/>
      <point x="320" y="-258"/>
    </contour>
  </outline>
</glyph>
<glyph name="parenright" format="1">
  <advance width="634"/>
  <unicode hex="0029"/>
  <outline>
    <contour>
      <point x="40" y="-317" type="curve"/>
      <point x="100" y="-375" type="line"/>
      <point x="172" y="-316"/>
      <point x="580" y="12"/>
      <point x="580" y="629" type="curve" smooth="yes"/>
      <point x="580" y="1004"/>
      <point x="401" y="1207"/>
      <point x="352" y="1255" type="curve"/>
      <point x="293" y="1189" type="line"/>
      <point x="344" y="1105"/>
      <point x="409" y="943"/>
      <point x="409" y="702" type="curve" smooth="yes"/>
      <point x="409" y="132"/>
      <point x="114" y="-220"/>
    </contour>
  </outline>
</glyph>
<glyph name="asterisk" format="1">
  <advance width="807"/>
  <unicode hex="002A"/>
  <outline>
    <contour>
      <point x="333" y="1292" type="line"/>
      <point x="469" y="1279" type="line"/>
      <point x="443" y="988" type="line"/>
      <point x="732" y="1119" type="line"/>
      <point x="761" y="989" type="line"/>
      <point x="476" y="921" type="line"/>
      <point x="695" y="692" type="line"/>
      <point x="577" y="623" type="line"/>
      <point x="424" y="870" type="line"/>
      <point x="269" y="593" type="line"/>
      <point x="167" y="685" type="line"/>
      <point x="360" y="904" type="line"/>
      <point x="48" y="964" type="line"/>
      <point x="103" y="1091" type="line"/>
      <point x="370" y="977" type="line"/>
    </contour>
  </outline>
</glyph>
<glyph name="plus" format="1">
  <advance width="653"/>
  <unicode hex="002B"/>
  <outline>
    <contour>
      <point x="50" y="409" type="line"/>
      <point x="62" y="510" type="line"/>
      <point x="271" y="510" type="line"/>
      <point x="271" y="741" type="line"/>
      <point x="380" y="729" type="line"/>
      <point x="381" y="510" type="line"/>
      <point x="601" y="510" type="line"/>
      <point x="589" y="409" type="line"/>
      <point x="381" y="409" type="line"/>
      <point x="383" y="174" type="line"/>
      <point x="271" y="185" type="line"/>
      <point x="271" y="409" type="line"/>
    </contour>
  </outline>
</glyph>
<glyph name="comma" format="1">
  <advance width="483"/>
  <unicode hex="002C"/>
  <outline>
    <contour>
      <point x="51" y="-244" type="line"/>
      <point x="186" y="-209"/>
      <point x="261" y="-125"/>
      <point x="261" y="-61" type="curve" smooth="yes"/>
      <point x="261" y="4"/>
      <point x="210" y="50"/>
      <point x="130" y="30" type="curve"/>
      <point x="104" y="139"/>
      <point x="168" y="218"/>
      <point x="267" y="218" type="curve" smooth="yes"/>
      <point x="336" y="218"/>
      <point x="419" y="182"/>
      <point x="419" y="30" type="curve" smooth="yes"/>
      <point x="419" y="-66"/>
      <point x="336" y="-245"/>
      <point x="62" y="-314" type="curve"/>
    </contour>
  </outline>
</glyph>
<glyph name="slash" format="1">
  <advance width="677"/>
  <unicode hex="002F"/>
  <outline>
    <contour>
      <point x="41" y="-363" type="line"/>
      <point x="503" y="1235" type="line"/>
      <point x="635" y="1244" type="line"/>
      <point x="169" y="-355" type="line"/>
    </contour>
  </outline>
</glyph>
<glyph name="zero" format="1">
  <advance width="971"/>
  <unicode hex="0030"/>
  <outline>
    <contour>
      <point x="592" y="1203" type="curve" smooth="yes"/>
      <point x="790" y="1203"/>
      <point x="920" y="1068"/>
      <point x="920" y="779" type="curve" smooth="yes"/>
      <point x="920" y="245"/>
      <point x="633" y="-27"/>
      <point x="393" y="-27" type="curve" smooth="yes"/>
      <point x="206" y="-27"/>
      <point x="51" y="68"/>
      <point x="51" y="383" type="curve" smooth="yes"/>
      <point x="51" y="885"/>
      <point x="319" y="1203"/>
    </contour>
    <contour>
      <point x="256" y="335" type="curve" smooth="yes"/>
      <point x="256" y="184"/>
      <point x="299" y="70"/>
      <point x="413" y="70" type="curve" smooth="yes"/>
      <point x="599" y="70"/>
      <point x="715" y="490"/>
      <point x="715" y="835" type="curve" smooth="yes"/>
      <point x="715" y="984"/>
      <point x="674" y="1098"/>
      <point x="569" y="1098" type="curve" smooth="yes"/>
      <point x="366" y="1098"/>
      <point x="256" y="680"/>
    </contour>
  </outline>
</glyph>
<glyph name="one" format="1">
  <advance width="837"/>
  <unicode hex="0031"/>
  <outline>
    <contour>
      <point x="43" y="0" type="line"/>
      <point x="62" y="74" type="line"/>
      <point x="333" y="121" type="line"/>
      <point x="477" y="1031" type="line"/>
      <point x="227" y="1031" type="line"/>
      <point x="245" y="1108" type="line"/>
      <point x="679" y="1185" type="line"/>
      <point x="706" y="1185" type="line"/>
      <point x="536" y="114" type="line"/>
      <point x="793" y="83" type="line"/>
      <point x="770" y="0" type="line"/>
    </contour>
  </outline>
</glyph>
<glyph name="two" format="1">
  <advance width="1014"/>
  <unicode hex="0032"/>
  <outline>
    <contour>
      <point x="54" y="102" type="line"/>
      <point x="320" y="299" type="line" smooth="yes"/>
      <point x="552" y="470"/>
      <point x="741" y="637"/>
      <point x="741" y="927" type="curve" smooth="yes"/>
      <point x="741" y="1025"/>
      <point x="708" y="1105"/>
      <point x="588" y="1105" type="curve" smooth="yes"/>
      <point x="504" y="1105"/>
      <point x="424" y="1052"/>
      <point x="389" y="987" type="curve"/>
      <point x="311" y="726" type="line"/>
      <point x="236" y="736" type="line"/>
      <point x="254" y="1020" type="line"/>
      <point x="328" y="1120"/>
      <point x="529" y="1209"/>
      <point x="672" y="1209" type="curve" smooth="yes"/>
      <point x="863" y="1209"/>
      <point x="968" y="1113"/>
      <point x="968" y="943" type="curve" smooth="yes"/>
      <point x="968" y="597"/>
      <point x="579" y="352"/>
      <point x="351" y="205" type="curve" smooth="yes"/>
      <point x="268" y="151" type="line"/>
      <point x="722" y="151" type="line"/>
      <point x="860" y="368" type="line"/>
      <point x="929" y="358" type="line"/>
      <point x="824" y="0" type="line"/>
      <point x="44" y="0" type="line"/>
    </contour>
  </outline>
</glyph>
<glyph name="three" format="1">
  <advance width="962"/>
  <unicode hex="0033"/>
  <outline>
    <contour>
      <point x="43" y="74" type="curve"/>
      <point x="141" y="373" type="line"/>
      <point x="224" y="360" type="line"/>
      <point x="205" y="157" type="line"/>
      <point x="221" y="115"/>
      <point x="285" y="72"/>
      <point x="355" y="72" type="curve" smooth="yes"/>
      <point x="511" y="72"/>
      <point x="641" y="137"/>
      <point x="641" y="305" type="curve" smooth="yes"/>
      <point x="641" y="420"/>
      <point x="529" y="545"/>
      <point x="347" y="545" type="curve"/>
      <point x="347" y="611" type="line"/>
      <point x="439" y="639"/>
      <point x="699" y="733"/>
      <point x="699" y="937" type="curve" smooth="yes"/>
      <point x="699" y="1024"/>
      <point x="651" y="1124"/>
      <point x="543" y="1124" type="curve" smooth="yes"/>
      <point x="489" y="1124"/>
      <point x="431" y="1101"/>
      <point x="390" y="1068" type="curve"/>
      <point x="304" y="812" type="line"/>
      <point x="221" y="823" type="line"/>
      <point x="245" y="1090" type="line"/>
      <point x="297" y="1138"/>
      <point x="470" y="1213"/>
      <point x="615" y="1213" type="curve" smooth="yes"/>
      <point x="789" y="1213"/>
      <point x="918" y="1119"/>
      <point x="918" y="980" type="curve" smooth="yes"/>
      <point x="918" y="788"/>
      <point x="714" y="695"/>
      <point x="580" y="649" type="curve"/>
      <point x="578" y="637" type="line"/>
      <point x="738" y="615"/>
      <point x="867" y="516"/>
      <point x="867" y="376" type="curve" smooth="yes"/>
      <point x="867" y="127"/>
      <point x="583" y="-30"/>
      <point x="318" y="-30" type="curve" smooth="yes"/>
      <point x="184" y="-30"/>
      <point x="64" y="29"/>
    </contour>
  </outline>
</glyph>
<glyph name="four" format="1">
  <advance width="1051"/>
  <unicode hex="0034"/>
  <outline>
    <contour>
      <point x="45" y="431" type="line"/>
      <point x="808" y="1194" type="line"/>
      <point x="870" y="1176" type="line"/>
      <point x="845" y="1057"/>
      <point x="811" y="864"/>
      <point x="782" y="683" type="curve" smooth="yes"/>
      <point x="750" y="479" type="line"/>
      <point x="1005" y="479" type="line"/>
      <point x="968" y="346" type="line"/>
      <point x="729" y="346" type="line"/>
      <point x="690" y="105" type="line"/>
      <point x="874" y="73" type="line"/>
      <point x="853" y="0" type="line"/>
      <point x="272" y="0" type="line"/>
      <point x="289" y="66" type="line"/>
      <point x="511" y="111" type="line"/>
      <point x="549" y="349" type="line"/>
      <point x="55" y="349" type="line"/>
    </contour>
    <contour>
      <point x="238" y="479" type="line"/>
      <point x="567" y="479" type="line"/>
      <point x="635" y="912" type="line"/>
    </contour>
  </outline>
</glyph>
<glyph name="five" format="1">
  <advance width="928"/>
  <unicode hex="0035"/>
  <outline>
    <contour>
      <point x="43" y="74" type="curve"/>
      <point x="119" y="387" type="line"/>
      <point x="201" y="368" type="line"/>
      <point x="188" y="155" type="line"/>
      <point x="218" y="93"/>
      <point x="283" y="67"/>
      <point x="365" y="67" type="curve" smooth="yes"/>
      <point x="506" y="67"/>
      <point x="614" y="158"/>
      <point x="614" y="324" type="curve" smooth="yes"/>
      <point x="614" y="490"/>
      <point x="472" y="584"/>
      <point x="203" y="602" type="curve"/>
      <point x="411" y="1169" type="line"/>
      <point x="885" y="1198" type="line"/>
      <point x="830" y="1016" type="line"/>
      <point x="441" y="1000" type="line"/>
      <point x="367" y="762" type="line"/>
      <point x="699" y="743"/>
      <point x="812" y="588"/>
      <point x="812" y="416" type="curve" smooth="yes"/>
      <point x="812" y="159"/>
      <point x="579" y="-25"/>
      <point x="306" y="-25" type="curve" smooth="yes"/>
      <point x="197" y="-25"/>
      <point x="105" y="-3"/>
    </contour>
  </outline>
</glyph>
<glyph name="six" format="1">
  <advance width="894"/>
  <unicode hex="0036"/>
  <outline>
    <contour>
      <point x="787" y="1214" type="curve"/>
      <point x="815" y="1155" type="line"/>
      <point x="535" y="1036"/>
      <point x="368" y="807"/>
      <point x="297" y="609" type="curve"/>
      <point x="308" y="609" type="line"/>
      <point x="360" y="659"/>
      <point x="451" y="709"/>
      <point x="559" y="709" type="curve" smooth="yes"/>
      <point x="730" y="709"/>
      <point x="843" y="586"/>
      <point x="843" y="413" type="curve" smooth="yes"/>
      <point x="843" y="128"/>
      <point x="602" y="-21"/>
      <point x="368" y="-21" type="curve" smooth="yes"/>
      <point x="138" y="-21"/>
      <point x="48" y="138"/>
      <point x="48" y="345" type="curve" smooth="yes"/>
      <point x="48" y="732"/>
      <point x="438" y="1106"/>
    </contour>
    <contour>
      <point x="247" y="313" type="curve" smooth="yes"/>
      <point x="247" y="168"/>
      <point x="291" y="61"/>
      <point x="388" y="61" type="curve" smooth="yes"/>
      <point x="563" y="61"/>
      <point x="631" y="193"/>
      <point x="631" y="380" type="curve" smooth="yes"/>
      <point x="631" y="490"/>
      <point x="587" y="606"/>
      <point x="470" y="606" type="curve" smooth="yes"/>
      <point x="396" y="606"/>
      <point x="311" y="563"/>
      <point x="281" y="527" type="curve"/>
      <point x="260" y="477"/>
      <point x="247" y="405"/>
    </contour>
  </outline>
</glyph>
<glyph name="seven" format="1">
  <advance width="961"/>
  <unicode hex="0037"/>
  <outline>
    <contour>
      <point x="47" y="809" type="line"/>
      <point x="130" y="1182" type="line"/>
      <point x="918" y="1182" type="line"/>
      <point x="910" y="1130" type="line"/>
      <point x="309" y="-33" type="line"/>
      <point x="105" y="-11" type="line"/>
      <point x="737" y="1015" type="line"/>
      <point x="224" y="1015" type="line"/>
      <point x="114" y="796" type="line"/>
    </contour>
  </outline>
</glyph>
<glyph name="eight" format="1">
  <advance width="914"/>
  <unicode hex="0038"/>
  <outline>
    <contour>
      <point x="328" y="575" type="curve"/>
      <point x="329" y="584" type="line"/>
      <point x="254" y="640"/>
      <point x="185" y="722"/>
      <point x="185" y="838" type="curve" smooth="yes"/>
      <point x="185" y="1043"/>
      <point x="385" y="1201"/>
      <point x="591" y="1201" type="curve" smooth="yes"/>
      <point x="764" y="1201"/>
      <point x="870" y="1099"/>
      <point x="870" y="967" type="curve" smooth="yes"/>
      <point x="870" y="822"/>
      <point x="745" y="682"/>
      <point x="618" y="639" type="curve"/>
      <point x="613" y="629" type="line"/>
      <point x="728" y="534"/>
      <point x="810" y="437"/>
      <point x="810" y="322" type="curve" smooth="yes"/>
      <point x="810" y="98"/>
      <point x="619" y="-27"/>
      <point x="342" y="-27" type="curve" smooth="yes"/>
      <point x="176" y="-27"/>
      <point x="44" y="68"/>
      <point x="44" y="229" type="curve" smooth="yes"/>
      <point x="44" y="390"/>
      <point x="139" y="474"/>
    </contour>
    <contour>
      <point x="238" y="273" type="curve" smooth="yes"/>
      <point x="238" y="150"/>
      <point x="328" y="61"/>
      <point x="420" y="61" type="curve" smooth="yes"/>
      <point x="512" y="61"/>
      <point x="617" y="123"/>
      <point x="617" y="256" type="curve" smooth="yes"/>
      <point x="617" y="362"/>
      <point x="489" y="463"/>
      <point x="388" y="533" type="curve"/>
      <point x="316" y="476"/>
      <point x="238" y="424"/>
    </contour>
    <contour>
      <point x="365" y="930" type="curve" smooth="yes"/>
      <point x="365" y="844"/>
      <point x="434" y="754"/>
      <point x="554" y="678" type="curve"/>
      <point x="642" y="725"/>
      <point x="697" y="793"/>
      <point x="697" y="939" type="curve" smooth="yes"/>
      <point x="697" y="1046"/>
      <point x="643" y="1124"/>
      <point x="554" y="1124" type="curve" smooth="yes"/>
      <point x="436" y="1124"/>
      <point x="365" y="1026"/>
    </contour>
  </outline>
</glyph>
<glyph name="nine" format="1">
  <advance width="873"/>
  <unicode hex="0039"/>
  <outline>
    <contour>
      <point x="518" y="1211" type="curve" smooth="yes"/>
      <point x="742" y="1211"/>
      <point x="824" y="1047"/>
      <point x="824" y="856" type="curve" smooth="yes"/>
      <point x="824" y="432"/>
      <point x="481" y="40"/>
      <point x="88" y="-27" type="curve"/>
      <point x="77" y="47" type="line"/>
      <point x="343" y="123"/>
      <point x="522" y="345"/>
      <point x="582" y="575" type="curve"/>
      <point x="569" y="575" type="line"/>
      <point x="491" y="502"/>
      <point x="400" y="466"/>
      <point x="308" y="466" type="curve" smooth="yes"/>
      <point x="144" y="466"/>
      <point x="54" y="574"/>
      <point x="54" y="737" type="curve" smooth="yes"/>
      <point x="54" y="1033"/>
      <point x="305" y="1211"/>
    </contour>
    <contour>
      <point x="261" y="766" type="curve" smooth="yes"/>
      <point x="261" y="662"/>
      <point x="300" y="575"/>
      <point x="414" y="575" type="curve" smooth="yes"/>
      <point x="484" y="575"/>
      <point x="560" y="612"/>
      <point x="599" y="662" type="curve"/>
      <point x="624" y="738"/>
      <point x="638" y="812"/>
      <point x="638" y="898" type="curve" smooth="yes"/>
      <point x="638" y="1025"/>
      <point x="593" y="1130"/>
      <point x="499" y="1130" type="curve" smooth="yes"/>
      <point x="339" y="1130"/>
      <point x="261" y="973"/>
    </contour>
  </outline>
</glyph>
<glyph name="colon" format="1">
  <advance width="428"/>
  <unicode hex="003A"/>
  <outline>
    <contour>
      <point x="281" y="852" type="curve" smooth="yes"/>
      <point x="336" y="852"/>
      <point x="377" y="814"/>
      <point x="377" y="762" type="curve" smooth="yes"/>
      <point x="377" y="687"/>
      <point x="309" y="629"/>
      <point x="245" y="629" type="curve" smooth="yes"/>
      <point x="188" y="629"/>
      <point x="151" y="672"/>
      <point x="151" y="727" type="curve" smooth="yes"/>
      <point x="151" y="801"/>
      <point x="216" y="852"/>
    </contour>
    <contour>
      <point x="182" y="225" type="curve" smooth="yes"/>
      <point x="237" y="225"/>
      <point x="278" y="185"/>
      <point x="278" y="134" type="curve" smooth="yes"/>
      <point x="278" y="59"/>
      <point x="209" y="2"/>
      <point x="145" y="2" type="curve" smooth="yes"/>
      <point x="88" y="2"/>
      <point x="50" y="45"/>
      <point x="50" y="100" type="curve" smooth="yes"/>
      <point x="50" y="172"/>
      <point x="117" y="225"/>
    </contour>
  </outline>
</glyph>
<glyph name="semicolon" format="1">
  <advance width="488"/>
  <unicode hex="003B"/>
  <outline>
    <contour>
      <point x="45" y="-216" type="line"/>
      <point x="167" y="-184"/>
      <point x="234" y="-110"/>
      <point x="234" y="-52" type="curve" smooth="yes"/>
      <point x="234" y="7"/>
      <point x="188" y="48"/>
      <point x="116" y="30" type="curve"/>
      <point x="93" y="129"/>
      <point x="150" y="199"/>
      <point x="239" y="199" type="curve" smooth="yes"/>
      <point x="301" y="199"/>
      <point x="376" y="167"/>
      <point x="376" y="30" type="curve" smooth="yes"/>
      <point x="376" y="-56"/>
      <point x="302" y="-217"/>
      <point x="55" y="-279" type="curve"/>
    </contour>
    <contour>
      <point x="342" y="852" type="curve" smooth="yes"/>
      <point x="397" y="852"/>
      <point x="437" y="814"/>
      <point x="437" y="762" type="curve" smooth="yes"/>
      <point x="437" y="687"/>
      <point x="370" y="629"/>
      <point x="306" y="629" type="curve" smooth="yes"/>
      <point x="249" y="629"/>
      <point x="211" y="672"/>
      <point x="211" y="727" type="curve" smooth="yes"/>
      <point x="211" y="801"/>
      <point x="277" y="852"/>
    </contour>
  </outline>
</glyph>
<glyph name="greater" format="1">
  <advance width="789"/>
  <unicode hex="003E"/>
  <outline>
    <contour>
      <point x="43" y="-13" type="line"/>
      <point x="503" y="434" type="line"/>
      <point x="63" y="900" type="line"/>
      <point x="119" y="973" type="line"/>
      <point x="739" y="472" type="line"/>
      <point x="740" y="415" type="line"/>
      <point x="106" y="-83" type="line"/>
    </contour>
  </outline>
</glyph>
<glyph name="question" format="1">
  <advance width="648"/>
  <unicode hex="003F"/>
  <outline>
    <contour>
      <point x="321" y="1288" type="curve" smooth="yes"/>
      <point x="460" y="1288"/>
      <point x="603" y="1148"/>
      <point x="603" y="937" type="curve" smooth="yes"/>
      <point x="603" y="561"/>
      <point x="249" y="744"/>
      <point x="249" y="454" type="curve" smooth="yes"/>
      <point x="249" y="432"/>
      <point x="251" y="410"/>
      <point x="255" y="383" type="curve"/>
      <point x="178" y="367" type="line"/>
      <point x="161" y="401"/>
      <point x="132" y="476"/>
      <point x="132" y="548" type="curve" smooth="yes"/>
      <point x="132" y="828"/>
      <point x="500" y="715"/>
      <point x="500" y="960" type="curve" smooth="yes"/>
      <point x="500" y="1043"/>
      <point x="418" y="1113"/>
      <point x="363" y="1113" type="curve" smooth="yes"/>
      <point x="287" y="1113"/>
      <point x="210" y="1088"/>
      <point x="160" y="1042" type="curve"/>
      <point x="132" y="1054"/>
      <point x="102" y="1090"/>
      <point x="102" y="1137" type="curve" smooth="yes"/>
      <point x="102" y="1205"/>
      <point x="160" y="1288"/>
    </contour>
    <contour>
      <point x="150" y="-36" type="curve" smooth="yes"/>
      <point x="88" y="-36"/>
      <point x="44" y="10"/>
      <point x="44" y="70" type="curve" smooth="yes"/>
      <point x="44" y="153"/>
      <point x="116" y="210"/>
      <point x="188" y="210" type="curve" smooth="yes"/>
      <point x="250" y="210"/>
      <point x="296" y="167"/>
      <point x="296" y="108" type="curve" smooth="yes"/>
      <point x="296" y="25"/>
      <point x="220" y="-36"/>
    </contour>
  </outline>
</glyph>
<glyph name="C" format="1">
  <advance width="1190"/>
  <unicode hex="0043"/>
  <outline>
    <contour>
      <point x="662" y="106" type="curve" smooth="yes"/>
      <point x="778" y="106"/>
      <point x="894" y="128"/>
      <point x="1021" y="240" type="curve"/>
      <point x="1064" y="185" type="line"/>
      <point x="912" y="15"/>
      <point x="721" y="-25"/>
      <point x="558" y="-25" type="curve" smooth="yes"/>
      <point x="284" y="-25"/>
      <point x="53" y="197"/>
      <point x="53" y="535" type="curve" smooth="yes"/>
      <point x="53" y="858"/>
      <point x="304" y="1270"/>
      <point x="814" y="1270" type="curve" smooth="yes"/>
      <point x="946" y="1270"/>
      <point x="1064" y="1222"/>
      <point x="1148" y="1149" type="curve"/>
      <point x="1065" y="817" type="line"/>
      <point x="981" y="831" type="line"/>
      <point x="973" y="1050" type="line"/>
      <point x="937" y="1109"/>
      <point x="867" y="1174"/>
      <point x="738" y="1174" type="curve" smooth="yes"/>
      <point x="498" y="1174"/>
      <point x="276" y="950"/>
      <point x="276" y="575" type="curve" smooth="yes"/>
      <point x="276" y="268"/>
      <point x="451" y="106"/>
    </contour>
  </outline>
</glyph>
<glyph name="G" format="1">
  <advance width="1319"/>
  <unicode hex="0047"/>
  <outline>
    <contour>
      <point x="1236" y="1163" type="curve"/>
      <point x="1160" y="841" type="line"/>
      <point x="1074" y="855" type="line"/>
      <point x="1069" y="1047" type="line"/>
      <point x="1034" y="1100"/>
      <point x="941" y="1161"/>
      <point x="759" y="1161" type="curve" smooth="yes"/>
      <point x="527" y="1161"/>
      <point x="281" y="1004"/>
      <point x="281" y="559" type="curve" smooth="yes"/>
      <point x="281" y="298"/>
      <point x="407" y="76"/>
      <point x="686" y="76" type="curve" smooth="yes"/>
      <point x="790" y="76"/>
      <point x="848" y="99"/>
      <point x="876" y="122" type="curve"/>
      <point x="924" y="434" type="line"/>
      <point x="694" y="472" type="line"/>
      <point x="719" y="555" type="line"/>
      <point x="1276" y="555" type="line"/>
      <point x="1252" y="481" type="line"/>
      <point x="1120" y="439" type="line"/>
      <point x="1066" y="88" type="line"/>
      <point x="954" y="15"/>
      <point x="770" y="-31"/>
      <point x="549" y="-31" type="curve" smooth="yes"/>
      <point x="201" y="-31"/>
      <point x="53" y="213"/>
      <point x="53" y="489" type="curve" smooth="yes"/>
      <point x="53" y="980"/>
      <point x="456" y="1260"/>
      <point x="825" y="1260" type="curve" smooth="yes"/>
      <point x="1018" y="1260"/>
      <point x="1145" y="1229"/>
    </contour>
  </outline>
</glyph>
<glyph name="J" format="1">
  <advance width="927"/>
  <unicode hex="004A"/>
  <outline>
    <contour>
      <point x="84" y="-325" type="curve"/>
      <point x="67" y="-302"/>
      <point x="50" y="-269"/>
      <point x="42" y="-238" type="curve"/>
      <point x="220" y="-91"/>
      <point x="321" y="37"/>
      <point x="346" y="197" type="curve" smooth="yes"/>
      <point x="495" y="1126" type="line"/>
      <point x="320" y="1168" type="line"/>
      <point x="340" y="1244" type="line"/>
      <point x="885" y="1244" type="line"/>
      <point x="865" y="1168" type="line"/>
      <point x="690" y="1130" type="line"/>
      <point x="562" y="318" type="line" smooth="yes"/>
      <point x="506" y="-37"/>
      <point x="401" y="-137"/>
    </contour>
  </outline>
</glyph>
<glyph name="K" format="1">
  <advance width="1387"/>
  <unicode hex="004B"/>
  <outline>
    <contour>
      <point x="747" y="261" type="curve" smooth="yes"/>
      <point x="612" y="509" type="line"/>
      <point x="612" y="509"/>
      <point x="568" y="579"/>
      <point x="543" y="604" type="curve"/>
      <point x="547" y="629" type="line"/>
      <point x="583" y="654"/>
      <point x="635" y="696"/>
      <point x="675" y="737" type="curve" smooth="yes"/>
      <point x="1030" y="1121" type="line"/>
      <point x="874" y="1168" type="line"/>
      <point x="894" y="1244" type="line"/>
      <point x="1391" y="1244" type="line"/>
      <point x="1368" y="1168" type="line"/>
      <point x="1185" y="1121" type="line"/>
      <point x="731" y="644" type="line"/>
      <point x="914" y="378" type="line" smooth="yes"/>
      <point x="1035" y="202"/>
      <point x="1105" y="123"/>
      <point x="1226" y="83" type="curve" smooth="yes"/>
      <point x="1261" y="71" type="line"/>
      <point x="1239" y="2" type="line"/>
      <point x="1191" y="-15"/>
      <point x="1147" y="-21"/>
      <point x="1106" y="-21" type="curve" smooth="yes"/>
      <point x="939" y="-21"/>
      <point x="835" y="102"/>
    </contour>
    <contour>
      <point x="440" y="124" type="line"/>
      <point x="622" y="81" type="line"/>
      <point x="597" y="0" type="line"/>
      <point x="44" y="0" type="line"/>
      <point x="65" y="74" type="line"/>
      <point x="247" y="129" type="line"/>
      <point x="402" y="1118" type="line"/>
      <point x="220" y="1168" type="line"/>
      <point x="245" y="1244" type="line"/>
      <point x="795" y="1244" type="line"/>
      <point x="774" y="1168" type="line"/>
      <point x="595" y="1121" type="line"/>
    </contour>
  </outline>
</glyph>
<glyph name="M" format="1">
  <advance width="1832"/>
  <unicode hex="004D"/>
  <outline>
    <contour>
      <point x="766" y="31" type="line"/>
      <point x="528" y="966" type="line"/>
      <point x="370" y="114" type="line"/>
      <point x="550" y="81" type="line"/>
      <point x="523" y="0" type="line"/>
      <point x="43" y="0" type="line"/>
      <point x="66" y="74" type="line"/>
      <point x="241" y="121" type="line"/>
      <point x="432" y="1126" type="line"/>
      <point x="254" y="1168" type="line"/>
      <point x="277" y="1244" type="line"/>
      <point x="670" y="1244" type="line"/>
      <point x="726" y="1050" type="line"/>
      <point x="901" y="310" type="line"/>
      <point x="1292" y="1083" type="line"/>
      <point x="1391" y="1244" type="line"/>
      <point x="1791" y="1244" type="line"/>
      <point x="1770" y="1168" type="line"/>
      <point x="1596" y="1130" type="line"/>
      <point x="1529" y="114" type="line"/>
      <point x="1706" y="81" type="line"/>
      <point x="1682" y="0" type="line"/>
      <point x="1147" y="0" type="line"/>
      <point x="1171" y="74" type="line"/>
      <point x="1344" y="121" type="line"/>
      <point x="1385" y="1004" type="line"/>
      <point x="893" y="51" type="line"/>
    </contour>
  </outline>
</glyph>
<glyph name="P" format="1">
  <advance width="1227"/>
  <unicode hex="0050"/>
  <outline>
    <contour>
      <point x="1184" y="926" type="curve" smooth="yes"/>
      <point x="1184" y="650"/>
      <point x="939" y="490"/>
      <point x="671" y="490" type="curve" smooth="yes"/>
      <point x="635" y="490"/>
      <point x="597" y="494"/>
      <point x="557" y="499" type="curve"/>
      <point x="550" y="581" type="line"/>
      <point x="603" y="581" type="line" smooth="yes"/>
      <point x="856" y="581"/>
      <point x="970" y="694"/>
      <point x="970" y="907" type="curve" smooth="yes"/>
      <point x="970" y="1058"/>
      <point x="889" y="1173"/>
      <point x="704" y="1173" type="curve" smooth="yes"/>
      <point x="663" y="1173"/>
      <point x="596" y="1168"/>
      <point x="596" y="1168" type="curve"/>
      <point x="433" y="122" type="line"/>
      <point x="662" y="84" type="line"/>
      <point x="636" y="0" type="line"/>
      <point x="43" y="0" type="line"/>
      <point x="65" y="74" type="line"/>
      <point x="241" y="121" type="line"/>
      <point x="395" y="1105" type="line"/>
      <point x="230" y="1135" type="line"/>
      <point x="251" y="1211" type="line"/>
      <point x="383" y="1231"/>
      <point x="565" y="1255"/>
      <point x="735" y="1255" type="curve" smooth="yes"/>
      <point x="970" y="1255"/>
      <point x="1184" y="1170"/>
    </contour>
  </outline>
</glyph>
<glyph name="S" format="1">
  <advance width="944"/>
  <unicode hex="0053"/>
  <outline>
    <contour>
      <point x="835" y="887" type="curve"/>
      <point x="738" y="898" type="line"/>
      <point x="741" y="1090" type="line"/>
      <point x="734" y="1118"/>
      <point x="671" y="1184"/>
      <point x="587" y="1184" type="curve" smooth="yes"/>
      <point x="473" y="1184"/>
      <point x="374" y="1120"/>
      <point x="374" y="968" type="curve" smooth="yes"/>
      <point x="374" y="736"/>
      <point x="865" y="708"/>
      <point x="865" y="380" type="curve" smooth="yes"/>
      <point x="865" y="127"/>
      <point x="606" y="-25"/>
      <point x="355" y="-25" type="curve" smooth="yes"/>
      <point x="211" y="-25"/>
      <point x="83" y="41"/>
      <point x="42" y="122" type="curve"/>
      <point x="99" y="390" type="line"/>
      <point x="198" y="375" type="line"/>
      <point x="204" y="187" type="line"/>
      <point x="232" y="123"/>
      <point x="297" y="78"/>
      <point x="394" y="78" type="curve" smooth="yes"/>
      <point x="510" y="78"/>
      <point x="668" y="149"/>
      <point x="668" y="312" type="curve" smooth="yes"/>
      <point x="668" y="524"/>
      <point x="189" y="556"/>
      <point x="189" y="880" type="curve" smooth="yes"/>
      <point x="189" y="1134"/>
      <point x="417" y="1270"/>
      <point x="635" y="1270" type="curve" smooth="yes"/>
      <point x="723" y="1270"/>
      <point x="835" y="1247"/>
      <point x="901" y="1169" type="curve"/>
      <point x="899" y="1161"/>
      <point x="835" y="887"/>
    </contour>
  </outline>
</glyph>
<glyph name="T" format="1">
  <advance width="1242"/>
  <unicode hex="0054"/>
  <outline>
    <contour>
      <point x="88" y="1244" type="line"/>
      <point x="1199" y="1244" type="line"/>
      <point x="1113" y="907" type="line"/>
      <point x="1021" y="922" type="line"/>
      <point x="1018" y="1153" type="line"/>
      <point x="714" y="1153" type="line"/>
      <point x="550" y="114" type="line"/>
      <point x="729" y="81" type="line"/>
      <point x="702" y="0" type="line"/>
      <point x="162" y="0" type="line"/>
      <point x="184" y="74" type="line"/>
      <point x="360" y="121" type="line"/>
      <point x="522" y="1153" type="line"/>
      <point x="227" y="1153" type="line"/>
      <point x="136" y="910" type="line"/>
      <point x="46" y="923" type="line"/>
    </contour>
  </outline>
</glyph>
<glyph name="U" format="1">
  <advance width="1458"/>
  <unicode hex="0055"/>
  <outline>
    <contour>
      <point x="603" y="92" type="curve" smooth="yes"/>
      <point x="904" y="92"/>
      <point x="965" y="326"/>
      <point x="990" y="481" type="curve" smooth="yes"/>
      <point x="1092" y="1126" type="line"/>
      <point x="917" y="1168" type="line"/>
      <point x="937" y="1244" type="line"/>
      <point x="1416" y="1244" type="line"/>
      <point x="1394" y="1168" type="line"/>
      <point x="1221" y="1130" type="line"/>
      <point x="1117" y="499" type="line" smooth="yes"/>
      <point x="1053" y="114"/>
      <point x="824" y="-26"/>
      <point x="517" y="-26" type="curve" smooth="yes"/>
      <point x="329" y="-26"/>
      <point x="57" y="48"/>
      <point x="123" y="469" type="curve" smooth="yes"/>
      <point x="227" y="1126" type="line"/>
      <point x="47" y="1168" type="line"/>
      <point x="70" y="1244" type="line"/>
      <point x="611" y="1244" type="line"/>
      <point x="592" y="1168" type="line"/>
      <point x="417" y="1130" type="line"/>
      <point x="317" y="494" type="line" smooth="yes"/>
      <point x="272" y="208"/>
      <point x="398" y="92"/>
    </contour>
  </outline>
</glyph>
<glyph name="V" format="1">
  <advance width="1384"/>
  <unicode hex="0056"/>
  <outline>
    <contour>
      <point x="508" y="-25" type="line"/>
      <point x="188" y="1126" type="line"/>
      <point x="49" y="1168" type="line"/>
      <point x="70" y="1244" type="line"/>
      <point x="597" y="1244" type="line"/>
      <point x="576" y="1168" type="line"/>
      <point x="402" y="1130" type="line"/>
      <point x="640" y="240" type="line"/>
      <point x="1043" y="1126" type="line"/>
      <point x="866" y="1168" type="line"/>
      <point x="886" y="1244" type="line"/>
      <point x="1342" y="1244" type="line"/>
      <point x="1322" y="1168" type="line"/>
      <point x="1187" y="1130" type="line"/>
      <point x="663" y="5" type="line"/>
    </contour>
  </outline>
</glyph>
<glyph name="W" format="1">
  <advance width="1910"/>
  <unicode hex="0057"/>
  <outline>
    <contour>
      <point x="1076" y="-25" type="line"/>
      <point x="928" y="951" type="line"/>
      <point x="533" y="5" type="line"/>
      <point x="368" y="-25" type="line"/>
      <point x="181" y="1126" type="line"/>
      <point x="49" y="1168" type="line"/>
      <point x="68" y="1244" type="line"/>
      <point x="582" y="1244" type="line"/>
      <point x="557" y="1168" type="line"/>
      <point x="384" y="1130" type="line"/>
      <point x="511" y="252" type="line"/>
      <point x="905" y="1194" type="line"/>
      <point x="1086" y="1219" type="line"/>
      <point x="1228" y="269" type="line"/>
      <point x="1571" y="1126" type="line"/>
      <point x="1396" y="1168" type="line"/>
      <point x="1419" y="1244" type="line"/>
      <point x="1868" y="1244" type="line"/>
      <point x="1845" y="1168" type="line"/>
      <point x="1718" y="1130" type="line"/>
      <point x="1235" y="5" type="line"/>
    </contour>
  </outline>
</glyph>
<glyph name="X" format="1">
  <advance width="1460"/>
  <unicode hex="0058"/>
  <outline>
    <contour>
      <point x="851" y="637" type="line"/>
      <point x="1109" y="114" type="line"/>
      <point x="1243" y="81" type="line"/>
      <point x="1217" y="0" type="line"/>
      <point x="703" y="0" type="line"/>
      <point x="728" y="74" type="line"/>
      <point x="903" y="121" type="line"/>
      <point x="690" y="536" type="line"/>
      <point x="343" y="114" type="line"/>
      <point x="520" y="81" type="line"/>
      <point x="497" y="0" type="line"/>
      <point x="44" y="0" type="line"/>
      <point x="69" y="74" type="line"/>
      <point x="198" y="121" type="line"/>
      <point x="639" y="627" type="line"/>
      <point x="381" y="1118" type="line"/>
      <point x="256" y="1168" type="line"/>
      <point x="279" y="1244" type="line"/>
      <point x="806" y="1244" type="line"/>
      <point x="782" y="1168" type="line"/>
      <point x="604" y="1121" type="line"/>
      <point x="796" y="725" type="line"/>
      <point x="1124" y="1126" type="line"/>
      <point x="943" y="1168" type="line"/>
      <point x="966" y="1244" type="line"/>
      <point x="1418" y="1244" type="line"/>
      <point x="1398" y="1168" type="line"/>
      <point x="1266" y="1130" type="line"/>
    </contour>
  </outline>
</glyph>
<glyph name="Y" format="1">
  <advance width="1225"/>
  <unicode hex="0059"/>
  <outline>
    <contour>
      <point x="632" y="528" type="line"/>
      <point x="567" y="114" type="line"/>
      <point x="726" y="81" type="line"/>
      <point x="703" y="0" type="line"/>
      <point x="196" y="0" type="line"/>
      <point x="217" y="74" type="line"/>
      <point x="376" y="121" type="line"/>
      <point x="437" y="505" type="line"/>
      <point x="179" y="1126" type="line"/>
      <point x="49" y="1168" type="line"/>
      <point x="73" y="1244" type="line"/>
      <point x="580" y="1244" type="line"/>
      <point x="557" y="1168" type="line"/>
      <point x="394" y="1130" type="line"/>
      <point x="594" y="641" type="line"/>
      <point x="894" y="1126" type="line"/>
      <point x="717" y="1168" type="line"/>
      <point x="739" y="1244" type="line"/>
      <point x="1183" y="1244" type="line"/>
      <point x="1161" y="1168" type="line"/>
      <point x="1033" y="1130" type="line"/>
    </contour>
  </outline>
</glyph>
<glyph name="Z" format="1">
  <advance width="1223"/>
  <unicode hex="005A"/>
  <outline>
    <contour>
      <point x="263" y="1244" type="line"/>
      <point x="1181" y="1244" type="line"/>
      <point x="1170" y="1168" type="line"/>
      <point x="268" y="101" type="line"/>
      <point x="858" y="101" type="line"/>
      <point x="990" y="350" type="line"/>
      <point x="1081" y="335" type="line"/>
      <point x="1002" y="0" type="line"/>
      <point x="45" y="0" type="line"/>
      <point x="54" y="104" type="line"/>
      <point x="923" y="1149" type="line"/>
      <point x="407" y="1149" type="line"/>
      <point x="309" y="903" type="line"/>
      <point x="222" y="922" type="line"/>
    </contour>
  </outline>
</glyph>
<glyph name="asciicircum" format="1">
  <advance width="746"/>
  <unicode hex="005E"/>
  <outline>
    <contour>
      <point x="467" y="1250" type="line"/>
      <point x="695" y="824" type="line"/>
      <point x="634" y="788" type="line"/>
      <point x="406" y="1073" type="line"/>
      <point x="396" y="1073" type="line"/>
      <point x="100" y="793" type="line"/>
      <point x="56" y="826" type="line"/>
      <point x="411" y="1237" type="line"/>
    </contour>
  </outline>
</glyph>
<glyph name="a" format="1">
  <advance width="807"/>
  <unicode hex="0061"/>
  <outline>
    <contour>
      <point x="691" y="96" type="curve" smooth="yes"/>
      <point x="767" y="84" type="line" smooth="yes"/>
      <point x="749" y="15" type="line"/>
      <point x="714" y="2"/>
      <point x="658" y="-17"/>
      <point x="598" y="-17" type="curve" smooth="yes"/>
      <point x="505" y="-17"/>
      <point x="449" y="44"/>
      <point x="473" y="132" type="curve"/>
      <point x="461" y="132" type="line"/>
      <point x="415" y="49"/>
      <point x="326" y="-21"/>
      <point x="225" y="-21" type="curve" smooth="yes"/>
      <point x="103" y="-21"/>
      <point x="24" y="91"/>
      <point x="24" y="274" type="curve" smooth="yes"/>
      <point x="24" y="667"/>
      <point x="313" y="885"/>
      <point x="534" y="885" type="curve" smooth="yes"/>
      <point x="611" y="885"/>
      <point x="700" y="876"/>
      <point x="735" y="832" type="curve"/>
      <point x="663" y="378" type="line" smooth="yes"/>
      <point x="628" y="153"/>
      <point x="632" y="105"/>
    </contour>
    <contour>
      <point x="564" y="746" type="line"/>
      <point x="536" y="772"/>
      <point x="491" y="781"/>
      <point x="445" y="781" type="curve" smooth="yes"/>
      <point x="285" y="781"/>
      <point x="185" y="533"/>
      <point x="185" y="320" type="curve" smooth="yes"/>
      <point x="185" y="171"/>
      <point x="227" y="106"/>
      <point x="306" y="106" type="curve" smooth="yes"/>
      <point x="382" y="106"/>
      <point x="432" y="150"/>
      <point x="478" y="201" type="curve"/>
    </contour>
  </outline>
</glyph>
<glyph name="b" format="1">
  <advance width="843"/>
  <unicode hex="0062"/>
  <outline>
    <contour>
      <point x="387" y="1124.1" type="curve" smooth="yes"/>
      <point x="337" y="842" type="line"/>
      <point x="309" y="722" type="line"/>
      <point x="321" y="722" type="line"/>
      <point x="373" y="813"/>
      <point x="483" y="890"/>
      <point x="574" y="890" type="curve" smooth="yes"/>
      <point x="742" y="890"/>
      <point x="818" y="731"/>
      <point x="818" y="544" type="curve" smooth="yes"/>
      <point x="818" y="260"/>
      <point x="606" y="-23"/>
      <point x="290" y="-23" type="curve" smooth="yes"/>
      <point x="217" y="-23"/>
      <point x="114" y="-1"/>
      <point x="58" y="50" type="curve"/>
      <point x="229" y="1120.1" type="line" smooth="yes"/>
      <point x="244" y="1213.1"/>
      <point x="172" y="1206.1"/>
      <point x="98" y="1204.1" type="curve"/>
      <point x="107" y="1284.1" type="line"/>
      <point x="150" y="1305.1"/>
      <point x="200" y="1317.1"/>
      <point x="260" y="1317.1" type="curve" smooth="yes"/>
      <point x="392" y="1317.1"/>
      <point x="406" y="1248.1"/>
    </contour>
    <contour>
      <point x="489" y="748" type="curve" smooth="yes"/>
      <point x="405" y="748"/>
      <point x="358" y="702"/>
      <point x="312" y="646" type="curve"/>
      <point x="228" y="155" type="line"/>
      <point x="253" y="112"/>
      <point x="315" y="84"/>
      <point x="377" y="84" type="curve" smooth="yes"/>
      <point x="539" y="84"/>
      <point x="651" y="289"/>
      <point x="651" y="483" type="curve" smooth="yes"/>
      <point x="651" y="613"/>
      <point x="609" y="748"/>
    </contour>
  </outline>
</glyph>
<glyph name="c" format="1">
  <advance width="708"/>
  <unicode hex="0063"/>
  <outline>
    <contour>
      <point x="611" y="179" type="curve"/>
      <point x="635" y="118" type="line"/>
      <point x="565" y="39"/>
      <point x="438" y="-24"/>
      <point x="327" y="-24" type="curve" smooth="yes"/>
      <point x="149" y="-24"/>
      <point x="24" y="85"/>
      <point x="24" y="308" type="curve" smooth="yes"/>
      <point x="24" y="644"/>
      <point x="275" y="888"/>
      <point x="514" y="888" type="curve" smooth="yes"/>
      <point x="632" y="888"/>
      <point x="700" y="825"/>
      <point x="700" y="731" type="curve" smooth="yes"/>
      <point x="700" y="668"/>
      <point x="640" y="633"/>
      <point x="571" y="627" type="curve"/>
      <point x="543" y="711"/>
      <point x="518" y="791"/>
      <point x="431" y="791" type="curve" smooth="yes"/>
      <point x="261" y="791"/>
      <point x="197" y="546"/>
      <point x="197" y="380" type="curve" smooth="yes"/>
      <point x="197" y="197"/>
      <point x="259" y="106"/>
      <point x="398" y="106" type="curve" smooth="yes"/>
      <point x="482" y="106"/>
      <point x="561" y="148"/>
    </contour>
  </outline>
</glyph>
<glyph name="d" format="1">
  <advance width="844"/>
  <unicode hex="0064"/>
  <outline>
    <contour>
      <point x="799" y="1124.1" type="curve" smooth="yes"/>
      <point x="682.75" y="380" type="line" smooth="yes"/>
      <point x="644" y="131"/>
      <point x="644.75" y="107"/>
      <point x="698.75" y="97" type="curve" smooth="yes"/>
      <point x="764.75" y="86" type="line"/>
      <point x="745.75" y="17" type="line"/>
      <point x="712.75" y="4"/>
      <point x="662.75" y="-15"/>
      <point x="606.75" y="-15" type="curve" smooth="yes"/>
      <point x="520.75" y="-15"/>
      <point x="489.75" y="26"/>
      <point x="487.75" y="74" type="curve" smooth="yes"/>
      <point x="487.75" y="93"/>
      <point x="490.75" y="112"/>
      <point x="492.75" y="122" type="curve"/>
      <point x="479.75" y="122" type="line"/>
      <point x="433.75" y="44"/>
      <point x="344.75" y="-21"/>
      <point x="243.75" y="-21" type="curve" smooth="yes"/>
      <point x="112.75" y="-21"/>
      <point x="23.75" y="76"/>
      <point x="23.75" y="286" type="curve" smooth="yes"/>
      <point x="23.75" y="669"/>
      <point x="309.75" y="884"/>
      <point x="565.75" y="884" type="curve" smooth="yes"/>
      <point x="583.75" y="884"/>
      <point x="597.75" y="883"/>
      <point x="606.75" y="881" type="curve"/>
      <point x="612.75" y="881" type="line"/>
      <point x="641" y="1120.1" type="line" smooth="yes"/>
      <point x="651" y="1213.1"/>
      <point x="584" y="1206.1"/>
      <point x="510" y="1204.1" type="curve"/>
      <point x="519" y="1284.1" type="line"/>
      <point x="562" y="1305.1"/>
      <point x="612" y="1317.1"/>
      <point x="672" y="1317.1" type="curve" smooth="yes"/>
      <point x="804" y="1317.1"/>
      <point x="819" y="1248.1"/>
    </contour>
    <contour>
      <point x="494.75" y="201" type="curve"/>
      <point x="576.75" y="736" type="line"/>
      <point x="549.75" y="757"/>
      <point x="515.75" y="781"/>
      <point x="450.75" y="781" type="curve" smooth="yes"/>
      <point x="296.75" y="781"/>
      <point x="186.75" y="571"/>
      <point x="186.75" y="337" type="curve" smooth="yes"/>
      <point x="186.75" y="172"/>
      <point x="230.75" y="106"/>
      <point x="320.75" y="106" type="curve" smooth="yes"/>
      <point x="403.75" y="106"/>
      <point x="453.75" y="145"/>
    </contour>
  </outline>
</glyph>
<glyph name="e" format="1">
  <advance width="676"/>
  <unicode hex="0065"/>
  <outline>
    <contour>
      <point x="198" y="449" type="curve"/>
      <point x="345" y="450"/>
      <point x="478" y="481"/>
      <point x="478" y="663" type="curve" smooth="yes"/>
      <point x="478" y="734"/>
      <point x="444" y="798"/>
      <point x="386" y="798" type="curve" smooth="yes"/>
      <point x="310" y="798"/>
      <point x="211" y="728"/>
    </contour>
    <contour>
      <point x="24" y="289" type="curve" smooth="yes"/>
      <point x="24" y="614"/>
      <point x="223" y="890"/>
      <point x="446" y="890" type="curve" smooth="yes"/>
      <point x="557" y="890"/>
      <point x="628" y="814"/>
      <point x="628" y="692" type="curve" smooth="yes"/>
      <point x="628" y="426"/>
      <point x="393" y="370"/>
      <point x="189" y="376" type="curve"/>
      <point x="177" y="203"/>
      <point x="215" y="102"/>
      <point x="336" y="102" type="curve" smooth="yes"/>
      <point x="448" y="102"/>
      <point x="527" y="152"/>
      <point x="556" y="177" type="curve"/>
      <point x="582" y="132" type="line"/>
      <point x="537" y="63"/>
      <point x="408" y="-30"/>
      <point x="272" y="-30" type="curve" smooth="yes"/>
      <point x="114" y="-30"/>
      <point x="24" y="68"/>
    </contour>
  </outline>
</glyph>
<glyph name="f" format="1">
  <advance width="579"/>
  <unicode hex="0066"/>
  <outline>
    <contour>
      <point x="95" y="99" type="curve" smooth="yes"/>
      <point x="207" y="768" type="line"/>
      <point x="58" y="768" type="line"/>
      <point x="72" y="836" type="line"/>
      <point x="229" y="872" type="line"/>
      <point x="276.992" y="1162.24"/>
      <point x="465.207" y="1317.1"/>
      <point x="616" y="1317.1" type="curve" smooth="yes"/>
      <point x="729.29" y="1317.1"/>
      <point x="780" y="1276.1"/>
      <point x="780" y="1204.1" type="curve" smooth="yes"/>
      <point x="780" y="1168.1"/>
      <point x="751.667" y="1123.1"/>
      <point x="685" y="1101.1" type="curve"/>
      <point x="634.153" y="1163.1"/>
      <point x="606.755" y="1209.1"/>
      <point x="523" y="1209.1" type="curve" smooth="yes"/>
      <point x="441.403" y="1209.1"/>
      <point x="412.791" y="1115.13"/>
      <point x="381" y="858" type="curve"/>
      <point x="561" y="858" type="line"/>
      <point x="543" y="768" type="line"/>
      <point x="368" y="768" type="line"/>
      <point x="258" y="135" type="line" smooth="yes"/>
      <point x="213.799" y="-53.3332"/>
      <point x="187.771" y="-165.257"/>
      <point x="156" y="-204" type="curve"/>
      <point x="0" y="-204" type="line"/>
      <point x="35.4235" y="-148.207"/>
      <point x="49.5653" y="-96.8788"/>
    </contour>
  </outline>
</glyph>
<glyph name="g" format="1">
  <advance width="725"/>
  <unicode hex="0067"/>
  <outline>
    <contour>
      <point x="207.472" y="542" type="curve" smooth="yes"/>
      <point x="207.472" y="463"/>
      <point x="245.472" y="380"/>
      <point x="317.472" y="380" type="curve" smooth="yes"/>
      <point x="429.472" y="380"/>
      <point x="478.472" y="533"/>
      <point x="478.472" y="661" type="curve" smooth="yes"/>
      <point x="478.472" y="741"/>
      <point x="455.472" y="822"/>
      <point x="385.472" y="822" type="curve" smooth="yes"/>
      <point x="270.472" y="822"/>
      <point x="207.472" y="667"/>
    </contour>
    <contour>
      <point x="309.472" y="169" type="curve" smooth="yes"/>
      <point x="490.472" y="161"/>
      <point x="646.472" y="130"/>
      <point x="646.472" y="-69" type="curve" smooth="yes"/>
      <point x="646.472" y="-241"/>
      <point x="406.472" y="-375"/>
      <point x="175.472" y="-375" type="curve" smooth="yes"/>
      <point x="21.4717" y="-375"/>
      <point x="-137.528" y="-325"/>
      <point x="-139.528" y="-177" type="curve"/>
      <point x="-139.528" y="-74"/>
      <point x="-23.5283" y="11"/>
      <point x="70.4717" y="37" type="curve"/>
      <point x="70.4717" y="45" type="line"/>
      <point x="29.4717" y="61"/>
      <point x="-15.5283" y="88"/>
      <point x="-15.5283" y="163" type="curve" smooth="yes"/>
      <point x="-15.5283" y="235"/>
      <point x="94.4717" y="307"/>
      <point x="166.472" y="330" type="curve"/>
      <point x="161.472" y="338" type="line"/>
      <point x="123.472" y="354"/>
      <point x="55.4717" y="444"/>
      <point x="55.4717" y="530" type="curve" smooth="yes"/>
      <point x="55.4717" y="725"/>
      <point x="233.472" y="897"/>
      <point x="418.472" y="897" type="curve" smooth="yes"/>
      <point x="484.472" y="897"/>
      <point x="536.472" y="876"/>
      <point x="575.472" y="834" type="curve"/>
      <point x="776.472" y="859" type="line"/>
      <point x="793.472" y="836" type="line"/>
      <point x="748.472" y="715" type="line"/>
      <point x="732.472" y="715" type="line"/>
      <point x="613.472" y="755" type="line"/>
      <point x="611.472" y="738" type="line"/>
      <point x="625.472" y="720"/>
      <point x="626.472" y="668"/>
      <point x="626.472" y="631" type="curve" smooth="yes"/>
      <point x="626.472" y="438"/>
      <point x="417.472" y="278"/>
      <point x="244.472" y="311" type="curve"/>
      <point x="206.472" y="299"/>
      <point x="161.472" y="260"/>
      <point x="161.472" y="220" type="curve" smooth="yes"/>
      <point x="161.472" y="175"/>
      <point x="212.472" y="173"/>
    </contour>
    <contour>
      <point x="145.472" y="22" type="curve"/>
      <point x="93.4717" y="8"/>
      <point x="9.47168" y="-54"/>
      <point x="9.47168" y="-128" type="curve" smooth="yes"/>
      <point x="9.47168" y="-220"/>
      <point x="117.472" y="-279"/>
      <point x="235.472" y="-279" type="curve" smooth="yes"/>
      <point x="367.472" y="-279"/>
      <point x="475.472" y="-219"/>
      <point x="475.472" y="-132" type="curve" smooth="yes"/>
      <point x="475.472" y="21"/>
      <point x="331.472" y="22"/>
    </contour>
  </outline>
</glyph>
<glyph name="h" format="1">
  <advance width="889"/>
  <unicode hex="0068"/>
  <outline>
    <contour>
      <point x="59" y="0" type="line"/>
      <point x="228" y="1120.1" type="line" smooth="yes"/>
      <point x="242" y="1213.1"/>
      <point x="171" y="1206.1"/>
      <point x="97" y="1204.1" type="curve"/>
      <point x="106" y="1284.1" type="line"/>
      <point x="149" y="1305.1"/>
      <point x="199" y="1317.1"/>
      <point x="259" y="1317.1" type="curve" smooth="yes"/>
      <point x="391" y="1317.1"/>
      <point x="405" y="1248.1"/>
      <point x="386" y="1124.1" type="curve" smooth="yes"/>
      <point x="343" y="846" type="line"/>
      <point x="315" y="722" type="line"/>
      <point x="327" y="722" type="line"/>
      <point x="384" y="796"/>
      <point x="493" y="893"/>
      <point x="616" y="893" type="curve" smooth="yes"/>
      <point x="754" y="893"/>
      <point x="814" y="808"/>
      <point x="780" y="613" type="curve" smooth="yes"/>
      <point x="745" y="378" type="line" smooth="yes"/>
      <point x="730" y="283"/>
      <point x="722" y="216"/>
      <point x="722" y="172" type="curve" smooth="yes"/>
      <point x="722" y="95"/>
      <point x="780" y="94"/>
      <point x="849" y="96" type="curve"/>
      <point x="841" y="15" type="line"/>
      <point x="812" y="0"/>
      <point x="756" y="-17"/>
      <point x="700" y="-17" type="curve" smooth="yes"/>
      <point x="568" y="-17"/>
      <point x="537" y="48"/>
      <point x="562" y="194" type="curve" smooth="yes"/>
      <point x="613" y="525" type="line" smooth="yes"/>
      <point x="641" y="661"/>
      <point x="618" y="745"/>
      <point x="509" y="745" type="curve" smooth="yes"/>
      <point x="412" y="745"/>
      <point x="356" y="698"/>
      <point x="317" y="662" type="curve"/>
      <point x="222" y="0" type="line"/>
    </contour>
  </outline>
</glyph>
<glyph name="i" format="1">
  <advance width="493"/>
  <unicode hex="0069"/>
  <outline>
    <contour>
      <point x="74" y="853" type="line"/>
      <point x="117" y="874"/>
      <point x="167" y="886"/>
      <point x="227" y="886" type="curve" smooth="yes"/>
      <point x="359" y="886"/>
      <point x="372" y="817"/>
      <point x="354" y="693" type="curve" smooth="yes"/>
      <point x="308" y="378" type="line" smooth="yes"/>
      <point x="294" y="281"/>
      <point x="285" y="216"/>
      <point x="285" y="172" type="curve" smooth="yes"/>
      <point x="285" y="95"/>
      <point x="343" y="94"/>
      <point x="412" y="96" type="curve"/>
      <point x="404" y="15" type="line"/>
      <point x="375" y="0"/>
      <point x="319" y="-17"/>
      <point x="263" y="-17" type="curve" smooth="yes"/>
      <point x="131" y="-17"/>
      <point x="104" y="47"/>
      <point x="125" y="194" type="curve" smooth="yes"/>
      <point x="196" y="689" type="line" smooth="yes"/>
      <point x="211" y="782"/>
      <point x="139" y="775"/>
      <point x="65" y="773" type="curve"/>
    </contour>
    <contour>
      <point x="345" y="1292" type="curve" smooth="yes"/>
      <point x="404" y="1292"/>
      <point x="453" y="1244"/>
      <point x="453" y="1179" type="curve" smooth="yes"/>
      <point x="453" y="1115"/>
      <point x="400" y="1069"/>
      <point x="334" y="1069" type="curve" smooth="yes"/>
      <point x="275" y="1069"/>
      <point x="226" y="1117"/>
      <point x="226" y="1177" type="curve" smooth="yes"/>
      <point x="226" y="1236"/>
      <point x="274" y="1292"/>
    </contour>
  </outline>
</glyph>
<glyph name="j" format="1">
  <advance width="478"/>
  <unicode hex="006A"/>
  <outline>
    <contour>
      <point x="358" y="687" type="curve" smooth="yes"/>
      <point x="270" y="86" type="line" smooth="yes"/>
      <point x="229" y="-196"/>
      <point x="11" y="-336"/>
      <point x="-93" y="-386" type="curve"/>
      <point x="-143" y="-307" type="line"/>
      <point x="6" y="-198"/>
      <point x="90" y="-70"/>
      <point x="115" y="99" type="curve" smooth="yes"/>
      <point x="200" y="683" type="line" smooth="yes"/>
      <point x="215" y="776"/>
      <point x="143" y="769"/>
      <point x="69" y="767" type="curve"/>
      <point x="78" y="847" type="line"/>
      <point x="121" y="868"/>
      <point x="171" y="880"/>
      <point x="231" y="880" type="curve" smooth="yes"/>
      <point x="363" y="880"/>
      <point x="378" y="811"/>
    </contour>
    <contour>
      <point x="337" y="1293" type="curve" smooth="yes"/>
      <point x="397" y="1293"/>
      <point x="446" y="1244"/>
      <point x="446" y="1179" type="curve" smooth="yes"/>
      <point x="446" y="1115"/>
      <point x="393" y="1068"/>
      <point x="326" y="1068" type="curve" smooth="yes"/>
      <point x="267" y="1068"/>
      <point x="216" y="1116"/>
      <point x="216" y="1177" type="curve" smooth="yes"/>
      <point x="216" y="1237"/>
      <point x="266" y="1293"/>
    </contour>
  </outline>
</glyph>
<glyph name="k" format="1">
  <advance width="801"/>
  <unicode hex="006B"/>
  <outline>
    <contour>
      <point x="326" y="451" type="line"/>
      <point x="455" y="529"/>
      <point x="594" y="670"/>
      <point x="594" y="738" type="curve" smooth="yes"/>
      <point x="594" y="783"/>
      <point x="547" y="790"/>
      <point x="495" y="777" type="curve"/>
      <point x="504" y="857" type="line"/>
      <point x="539" y="878"/>
      <point x="579" y="890"/>
      <point x="627" y="890" type="curve" smooth="yes"/>
      <point x="712" y="890"/>
      <point x="744" y="861"/>
      <point x="744" y="770" type="curve" smooth="yes"/>
      <point x="744" y="649"/>
      <point x="522" y="497"/>
      <point x="473" y="466" type="curve"/>
      <point x="510" y="383" type="line" smooth="yes"/>
      <point x="600" y="180"/>
      <point x="670" y="109"/>
      <point x="773" y="89" type="curve" smooth="yes"/>
      <point x="799" y="84" type="line"/>
      <point x="786" y="6" type="line"/>
      <point x="740" y="-8"/>
      <point x="700" y="-15"/>
      <point x="664" y="-15" type="curve" smooth="yes"/>
      <point x="544" y="-15"/>
      <point x="481" y="40"/>
      <point x="382" y="287" type="curve" smooth="yes"/>
      <point x="323" y="434" type="line"/>
    </contour>
    <contour>
      <point x="386" y="1124.1" type="curve" smooth="yes"/>
      <point x="221" y="0" type="line"/>
      <point x="58" y="0" type="line"/>
      <point x="228" y="1120.1" type="line" smooth="yes"/>
      <point x="242" y="1213.1"/>
      <point x="171" y="1206.1"/>
      <point x="97" y="1204.1" type="curve"/>
      <point x="106" y="1284.1" type="line"/>
      <point x="149" y="1305.1"/>
      <point x="199" y="1317.1"/>
      <point x="259" y="1317.1" type="curve" smooth="yes"/>
      <point x="391" y="1317.1"/>
      <point x="405" y="1248.1"/>
    </contour>
  </outline>
</glyph>
<glyph name="l" format="1">
  <advance width="410"/>
  <unicode hex="006C"/>
  <outline>
    <contour>
      <point x="86" y="1284.1" type="line"/>
      <point x="129" y="1305.1"/>
      <point x="179" y="1317.1"/>
      <point x="239" y="1317.1" type="curve" smooth="yes"/>
      <point x="371" y="1317.1"/>
      <point x="384" y="1248.1"/>
      <point x="366" y="1124.1" type="curve" smooth="yes"/>
      <point x="248.152" y="378" type="line" smooth="yes"/>
      <point x="233" y="283"/>
      <point x="225.152" y="216"/>
      <point x="225.152" y="172" type="curve" smooth="yes"/>
      <point x="225.152" y="95"/>
      <point x="283.152" y="94"/>
      <point x="352.152" y="96" type="curve"/>
      <point x="344.152" y="15" type="line"/>
      <point x="315.152" y="0"/>
      <point x="259.152" y="-17"/>
      <point x="203.152" y="-17" type="curve" smooth="yes"/>
      <point x="71.1523" y="-17"/>
      <point x="43" y="48"/>
      <point x="65.1523" y="194" type="curve" smooth="yes"/>
      <point x="208" y="1120.1" type="line" smooth="yes"/>
      <point x="223" y="1213.1"/>
      <point x="151" y="1206.1"/>
      <point x="77" y="1204.1" type="curve"/>
    </contour>
  </outline>
</glyph>
<glyph name="m" format="1">
  <advance width="1402"/>
  <unicode hex="006D"/>
  <outline>
    <contour>
      <point x="801" y="625" type="curve"/>
      <point x="811" y="685" type="line"/>
      <point x="875" y="775"/>
      <point x="996" y="893"/>
      <point x="1134" y="893" type="curve" smooth="yes"/>
      <point x="1260" y="893"/>
      <point x="1306" y="809"/>
      <point x="1284" y="613" type="curve" smooth="yes"/>
      <point x="1258" y="378" type="line" smooth="yes"/>
      <point x="1247" y="285"/>
      <point x="1235" y="218"/>
      <point x="1235" y="175" type="curve" smooth="yes"/>
      <point x="1235" y="98"/>
      <point x="1293" y="97"/>
      <point x="1362" y="99" type="curve"/>
      <point x="1354" y="18" type="line"/>
      <point x="1325" y="3"/>
      <point x="1269" y="-14"/>
      <point x="1213" y="-14" type="curve" smooth="yes"/>
      <point x="1081" y="-14"/>
      <point x="1056" y="51"/>
      <point x="1075" y="197" type="curve" smooth="yes"/>
      <point x="1117" y="525" type="line" smooth="yes"/>
      <point x="1135" y="662"/>
      <point x="1122" y="745"/>
      <point x="1027" y="745" type="curve" smooth="yes"/>
      <point x="913" y="745"/>
      <point x="847" y="677"/>
    </contour>
    <contour>
      <point x="582" y="0" type="line"/>
      <point x="648" y="525" type="line" smooth="yes"/>
      <point x="665" y="662"/>
      <point x="653" y="745"/>
      <point x="549" y="745" type="curve" smooth="yes"/>
      <point x="455" y="745"/>
      <point x="400" y="698"/>
      <point x="362" y="662" type="curve"/>
      <point x="267" y="0" type="line"/>
      <point x="104" y="0" type="line"/>
      <point x="196" y="697" type="line" smooth="yes"/>
      <point x="210" y="790"/>
      <point x="139" y="783"/>
      <point x="65" y="781" type="curve"/>
      <point x="74" y="861" type="line"/>
      <point x="117" y="882"/>
      <point x="167" y="894"/>
      <point x="227" y="894" type="curve" smooth="yes"/>
      <point x="343" y="894"/>
      <point x="388" y="840"/>
      <point x="360" y="722" type="curve"/>
      <point x="372" y="722" type="line"/>
      <point x="428" y="796"/>
      <point x="535" y="893"/>
      <point x="656" y="893" type="curve" smooth="yes"/>
      <point x="790" y="893"/>
      <point x="837" y="809"/>
      <point x="815" y="613" type="curve" smooth="yes"/>
      <point x="745" y="0" type="line"/>
    </contour>
  </outline>
</glyph>
<glyph name="n" format="1">
  <advance width="924"/>
  <unicode hex="006E"/>
  <outline>
    <contour>
      <point x="360" y="722" type="curve"/>
      <point x="372" y="722" type="line"/>
      <point x="428" y="796"/>
      <point x="535" y="893"/>
      <point x="656" y="893" type="curve" smooth="yes"/>
      <point x="790" y="893"/>
      <point x="848" y="808"/>
      <point x="815" y="613" type="curve" smooth="yes"/>
      <point x="780" y="378" type="line" smooth="yes"/>
      <point x="765" y="284"/>
      <point x="757" y="218"/>
      <point x="757" y="175" type="curve" smooth="yes"/>
      <point x="757" y="98"/>
      <point x="815" y="97"/>
      <point x="884" y="99" type="curve"/>
      <point x="876" y="18" type="line"/>
      <point x="847" y="3"/>
      <point x="791" y="-14"/>
      <point x="735" y="-14" type="curve" smooth="yes"/>
      <point x="603" y="-14"/>
      <point x="572" y="51"/>
      <point x="597" y="197" type="curve" smooth="yes"/>
      <point x="648" y="525" type="line" smooth="yes"/>
      <point x="669" y="662"/>
      <point x="653" y="745"/>
      <point x="549" y="745" type="curve" smooth="yes"/>
      <point x="455" y="745"/>
      <point x="400" y="698"/>
      <point x="362" y="662" type="curve"/>
      <point x="267" y="0" type="line"/>
      <point x="104" y="0" type="line"/>
      <point x="196" y="697" type="line" smooth="yes"/>
      <point x="210" y="790"/>
      <point x="139" y="783"/>
      <point x="65" y="781" type="curve"/>
      <point x="74" y="861" type="line"/>
      <point x="117" y="882"/>
      <point x="167" y="894"/>
      <point x="227" y="894" type="curve" smooth="yes"/>
      <point x="343" y="894"/>
      <point x="388" y="840"/>
    </contour>
  </outline>
</glyph>
<glyph name="o" format="1">
  <advance width="819"/>
  <unicode hex="006F"/>
  <outline>
    <contour>
      <point x="595.639" y="472" type="curve" smooth="yes"/>
      <point x="595.639" y="628"/>
      <point x="542.639" y="775"/>
      <point x="398.639" y="775" type="curve" smooth="yes"/>
      <point x="275.639" y="775"/>
      <point x="189.639" y="640"/>
      <point x="189.639" y="388" type="curve" smooth="yes"/>
      <point x="189.639" y="194"/>
      <point x="272.639" y="94"/>
      <point x="376.639" y="94" type="curve" smooth="yes"/>
      <point x="517.639" y="94"/>
      <point x="595.639" y="238"/>
    </contour>
    <contour>
      <point x="313.639" y="-26" type="curve" smooth="yes"/>
      <point x="123.639" y="-26"/>
      <point x="24.6387" y="138"/>
      <point x="24.6387" y="347" type="curve" smooth="yes"/>
      <point x="24.6387" y="628"/>
      <point x="213.639" y="893"/>
      <point x="478.639" y="893" type="curve" smooth="yes"/>
      <point x="674.639" y="893"/>
      <point x="761.639" y="704"/>
      <point x="761.639" y="515" type="curve" smooth="yes"/>
      <point x="761.639" y="247"/>
      <point x="578.639" y="-26"/>
    </contour>
  </outline>
</glyph>
<glyph name="p" format="1">
  <advance width="905"/>
  <unicode hex="0070"/>
  <outline>
    <contour>
      <point x="30" y="-366" type="line"/>
      <point x="183" y="675" type="line" smooth="yes"/>
      <point x="197" y="768"/>
      <point x="126" y="761"/>
      <point x="52" y="759" type="curve"/>
      <point x="61" y="839" type="line"/>
      <point x="104" y="860"/>
      <point x="154" y="872"/>
      <point x="214" y="872" type="curve" smooth="yes"/>
      <point x="343" y="872"/>
      <point x="357" y="818"/>
      <point x="338" y="722" type="curve"/>
      <point x="351" y="720" type="line"/>
      <point x="394" y="799"/>
      <point x="498" y="890"/>
      <point x="608" y="890" type="curve" smooth="yes"/>
      <point x="742" y="890"/>
      <point x="848" y="764"/>
      <point x="848" y="542" type="curve" smooth="yes"/>
      <point x="848" y="246"/>
      <point x="602" y="-17"/>
      <point x="362" y="-17" type="curve" smooth="yes"/>
      <point x="327" y="-17"/>
      <point x="293" y="-14"/>
      <point x="275" y="-8" type="curve"/>
      <point x="298" y="114" type="line"/>
      <point x="327" y="100"/>
      <point x="348" y="89"/>
      <point x="426" y="89" type="curve" smooth="yes"/>
      <point x="517" y="89"/>
      <point x="679" y="194"/>
      <point x="679" y="486" type="curve" smooth="yes"/>
      <point x="679" y="651"/>
      <point x="606" y="746"/>
      <point x="528" y="746" type="curve" smooth="yes"/>
      <point x="447" y="746"/>
      <point x="408" y="717"/>
      <point x="342" y="651" type="curve"/>
      <point x="189" y="-366" type="line"/>
    </contour>
  </outline>
</glyph>
<glyph name="q" format="1">
  <advance width="776"/>
  <unicode hex="0071"/>
  <outline>
    <contour>
      <point x="405" y="-364" type="line"/>
      <point x="565" y="746" type="line"/>
      <point x="537" y="772"/>
      <point x="492" y="781"/>
      <point x="446" y="781" type="curve" smooth="yes"/>
      <point x="286" y="781"/>
      <point x="186" y="533"/>
      <point x="186" y="320" type="curve" smooth="yes"/>
      <point x="186" y="203"/>
      <point x="225" y="102"/>
      <point x="308" y="102" type="curve" smooth="yes"/>
      <point x="358" y="102"/>
      <point x="410" y="117"/>
      <point x="439" y="137" type="curve"/>
      <point x="442" y="82" type="line"/>
      <point x="397" y="27"/>
      <point x="338" y="-21"/>
      <point x="219" y="-21" type="curve" smooth="yes"/>
      <point x="92" y="-21"/>
      <point x="24" y="102"/>
      <point x="24" y="264" type="curve" smooth="yes"/>
      <point x="24" y="663"/>
      <point x="314" y="885"/>
      <point x="535" y="885" type="curve" smooth="yes"/>
      <point x="612" y="885"/>
      <point x="701" y="876"/>
      <point x="736" y="832" type="curve"/>
      <point x="560" y="-364" type="line"/>
    </contour>
  </outline>
</glyph>
<glyph name="r" format="1">
  <advance width="646"/>
  <unicode hex="0072"/>
  <outline>
    <contour>
      <point x="104" y="0" type="line"/>
      <point x="196" y="697" type="line" smooth="yes"/>
      <point x="208" y="790"/>
      <point x="139" y="783"/>
      <point x="65" y="781" type="curve"/>
      <point x="74" y="861" type="line"/>
      <point x="117" y="882"/>
      <point x="167" y="894"/>
      <point x="227" y="894" type="curve" smooth="yes"/>
      <point x="343" y="894"/>
      <point x="384" y="841"/>
      <point x="360" y="722" type="curve" smooth="yes"/>
      <point x="337" y="607" type="line"/>
      <point x="348" y="607" type="line"/>
      <point x="390" y="738"/>
      <point x="480" y="892"/>
      <point x="581" y="892" type="curve" smooth="yes"/>
      <point x="643" y="892"/>
      <point x="677" y="849"/>
      <point x="677" y="797" type="curve" smooth="yes"/>
      <point x="677" y="753"/>
      <point x="659" y="703"/>
      <point x="621" y="665" type="curve"/>
      <point x="593" y="693"/>
      <point x="569" y="699"/>
      <point x="535" y="699" type="curve" smooth="yes"/>
      <point x="446" y="699"/>
      <point x="371" y="575"/>
      <point x="338" y="508" type="curve"/>
      <point x="271" y="0" type="line"/>
    </contour>
  </outline>
</glyph>
<glyph name="s" format="1">
  <advance width="685"/>
  <unicode hex="0073"/>
  <outline>
    <contour>
      <point x="652" y="753" type="curve" smooth="yes"/>
      <point x="652" y="683"/>
      <point x="604" y="640"/>
      <point x="523" y="634" type="curve"/>
      <point x="496" y="768"/>
      <point x="463" y="826"/>
      <point x="381" y="826" type="curve" smooth="yes"/>
      <point x="317" y="826"/>
      <point x="258" y="786"/>
      <point x="258" y="697" type="curve" smooth="yes"/>
      <point x="258" y="519"/>
      <point x="619" y="454"/>
      <point x="619" y="220" type="curve" smooth="yes"/>
      <point x="619" y="75"/>
      <point x="445" y="-35"/>
      <point x="298" y="-35" type="curve" smooth="yes"/>
      <point x="125" y="-35"/>
      <point x="31" y="53"/>
      <point x="31" y="142" type="curve" smooth="yes"/>
      <point x="31" y="200"/>
      <point x="77" y="251"/>
      <point x="161" y="258" type="curve"/>
      <point x="190" y="98"/>
      <point x="239" y="54"/>
      <point x="346" y="54" type="curve" smooth="yes"/>
      <point x="420" y="54"/>
      <point x="466" y="109"/>
      <point x="466" y="169" type="curve" smooth="yes"/>
      <point x="466" y="339"/>
      <point x="113" y="383"/>
      <point x="113" y="634" type="curve" smooth="yes"/>
      <point x="113" y="769"/>
      <point x="254" y="902"/>
      <point x="432" y="902" type="curve" smooth="yes"/>
      <point x="555" y="902"/>
      <point x="652" y="856"/>
    </contour>
  </outline>
</glyph>
<glyph name="t" format="1">
  <advance width="573"/>
  <unicode hex="0074"/>
  <outline>
    <contour>
      <point x="251" y="347" type="line" smooth="yes"/>
      <point x="223" y="175"/>
      <point x="244" y="122"/>
      <point x="361" y="122" type="curve" smooth="yes"/>
      <point x="403" y="122"/>
      <point x="440" y="138"/>
      <point x="466" y="155" type="curve"/>
      <point x="479" y="102" type="line"/>
      <point x="426" y="33"/>
      <point x="349" y="-21"/>
      <point x="253" y="-21" type="curve" smooth="yes"/>
      <point x="99" y="-21"/>
      <point x="60" y="88"/>
      <point x="91" y="289" type="curve" smooth="yes"/>
      <point x="214" y="1080" type="line"/>
      <point x="368" y="1080" type="line"/>
    </contour>
    <contour>
      <point x="65" y="766" type="line"/>
      <point x="75" y="862" type="line"/>
      <point x="553" y="862" type="line"/>
      <point x="534" y="766" type="line"/>
    </contour>
  </outline>
</glyph>
<glyph name="u" format="1">
  <advance width="884"/>
  <unicode hex="0075"/>
  <outline>
    <contour>
      <point x="656" y="689" type="line" smooth="yes"/>
      <point x="670" y="782"/>
      <point x="599" y="775"/>
      <point x="525" y="773" type="curve"/>
      <point x="534" y="853" type="line"/>
      <point x="577" y="874"/>
      <point x="627" y="886"/>
      <point x="687" y="886" type="curve" smooth="yes"/>
      <point x="819" y="886"/>
      <point x="830" y="817"/>
      <point x="814" y="693" type="curve" smooth="yes"/>
      <point x="743" y="173" type="line" smooth="yes"/>
      <point x="735" y="119"/>
      <point x="758" y="101"/>
      <point x="798" y="95" type="curve" smooth="yes"/>
      <point x="864" y="83" type="line"/>
      <point x="846" y="14" type="line"/>
      <point x="811" y="1"/>
      <point x="759" y="-18"/>
      <point x="705" y="-18" type="curve" smooth="yes"/>
      <point x="604" y="-20"/>
      <point x="564" y="33"/>
      <point x="589" y="148" type="curve"/>
      <point x="577" y="148" type="line"/>
      <point x="521" y="74"/>
      <point x="414" y="-23"/>
      <point x="293" y="-23" type="curve" smooth="yes"/>
      <point x="159" y="-23"/>
      <point x="105" y="61"/>
      <point x="134" y="257" type="curve" smooth="yes"/>
      <point x="196" y="689" type="line" smooth="yes"/>
      <point x="210" y="782"/>
      <point x="139" y="775"/>
      <point x="65" y="773" type="curve"/>
      <point x="74" y="853" type="line"/>
      <point x="117" y="874"/>
      <point x="167" y="886"/>
      <point x="227" y="886" type="curve" smooth="yes"/>
      <point x="359" y="886"/>
      <point x="374" y="817"/>
      <point x="354" y="693" type="curve" smooth="yes"/>
      <point x="301" y="345" type="line" smooth="yes"/>
      <point x="280" y="208"/>
      <point x="296" y="125"/>
      <point x="400" y="125" type="curve" smooth="yes"/>
      <point x="494" y="125"/>
      <point x="549" y="172"/>
      <point x="587" y="208" type="curve"/>
    </contour>
  </outline>
</glyph>
<glyph name="v" format="1">
  <advance width="790"/>
  <unicode hex="0076"/>
  <outline>
    <contour>
      <point x="772" y="770" type="curve" smooth="yes"/>
      <point x="772" y="637"/>
      <point x="552" y="234"/>
      <point x="407" y="-10" type="curve"/>
      <point x="303" y="-28" type="line"/>
      <point x="177" y="689" type="line" smooth="yes"/>
      <point x="160" y="782"/>
      <point x="119" y="775"/>
      <point x="43" y="773" type="curve"/>
      <point x="52" y="853" type="line"/>
      <point x="93" y="874"/>
      <point x="139" y="886"/>
      <point x="195" y="886" type="curve" smooth="yes"/>
      <point x="312" y="886"/>
      <point x="324" y="804"/>
      <point x="343" y="669" type="curve" smooth="yes"/>
      <point x="414" y="155" type="line"/>
      <point x="534" y="365"/>
      <point x="622" y="527"/>
      <point x="622" y="738" type="curve" smooth="yes"/>
      <point x="622" y="781"/>
      <point x="575" y="790"/>
      <point x="523" y="777" type="curve"/>
      <point x="532" y="857" type="line"/>
      <point x="567" y="878"/>
      <point x="607" y="890"/>
      <point x="655" y="890" type="curve" smooth="yes"/>
      <point x="740" y="890"/>
      <point x="772" y="845"/>
    </contour>
  </outline>
</glyph>
<glyph name="w" format="1">
  <advance width="1183"/>
  <unicode hex="0077"/>
  <outline>
    <contour>
      <point x="598" y="777" type="line"/>
      <point x="564" y="575"/>
      <point x="498" y="399"/>
      <point x="414" y="175" type="curve"/>
      <point x="343" y="669" type="line" smooth="yes"/>
      <point x="324" y="804"/>
      <point x="312" y="886"/>
      <point x="195" y="886" type="curve" smooth="yes"/>
      <point x="139" y="886"/>
      <point x="93" y="874"/>
      <point x="52" y="853" type="curve"/>
      <point x="43" y="773" type="line"/>
      <point x="119" y="775"/>
      <point x="160" y="782"/>
      <point x="177" y="689" type="curve"/>
      <point x="303" y="-28" type="line"/>
      <point x="407" y="-10" type="line"/>
      <point x="468" y="141"/>
      <point x="544" y="341"/>
      <point x="605" y="523" type="curve"/>
      <point x="724" y="-28" type="line"/>
      <point x="828" y="-10" type="line"/>
      <point x="962" y="234"/>
      <point x="1165" y="637"/>
      <point x="1165" y="770" type="curve" smooth="yes"/>
      <point x="1165" y="845"/>
      <point x="1133" y="890"/>
      <point x="1048" y="890" type="curve" smooth="yes"/>
      <point x="996" y="890"/>
      <point x="953" y="878"/>
      <point x="915" y="857" type="curve"/>
      <point x="906" y="777" type="line"/>
      <point x="963" y="790"/>
      <point x="1015" y="781"/>
      <point x="1015" y="738" type="curve" smooth="yes"/>
      <point x="1015" y="527"/>
      <point x="939" y="365"/>
      <point x="835" y="155" type="curve"/>
      <point x="708" y="799" type="line"/>
    </contour>
  </outline>
</glyph>
<glyph name="x" format="1">
  <advance width="883"/>
  <unicode hex="0078"/>
  <outline>
    <contour>
      <point x="360" y="514" type="curve"/>
      <point x="384" y="474" type="line"/>
      <point x="281" y="379"/>
      <point x="170" y="274"/>
      <point x="170" y="125" type="curve" smooth="yes"/>
      <point x="170" y="91"/>
      <point x="217" y="86"/>
      <point x="269" y="96" type="curve"/>
      <point x="260" y="16" type="line"/>
      <point x="225" y="-5"/>
      <point x="185" y="-17"/>
      <point x="137" y="-17" type="curve" smooth="yes"/>
      <point x="52" y="-17"/>
      <point x="20" y="9"/>
      <point x="20" y="93" type="curve" smooth="yes"/>
      <point x="20" y="260"/>
      <point x="298" y="470"/>
    </contour>
    <contour>
      <point x="488" y="359" type="curve"/>
      <point x="464" y="399" type="line"/>
      <point x="567" y="491"/>
      <point x="678" y="593"/>
      <point x="678" y="738" type="curve" smooth="yes"/>
      <point x="678" y="783"/>
      <point x="631" y="790"/>
      <point x="579" y="777" type="curve"/>
      <point x="588" y="857" type="line"/>
      <point x="623" y="878"/>
      <point x="663" y="890"/>
      <point x="711" y="890" type="curve" smooth="yes"/>
      <point x="796" y="890"/>
      <point x="828" y="861"/>
      <point x="828" y="770" type="curve" smooth="yes"/>
      <point x="828" y="607"/>
      <point x="550" y="402"/>
    </contour>
    <contour>
      <point x="546" y="383" type="line" smooth="yes"/>
      <point x="639" y="180"/>
      <point x="706" y="109"/>
      <point x="809" y="89" type="curve" smooth="yes"/>
      <point x="835" y="84" type="line"/>
      <point x="822" y="6" type="line"/>
      <point x="776" y="-8"/>
      <point x="737" y="-15"/>
      <point x="701" y="-15" type="curve" smooth="yes"/>
      <point x="581" y="-15"/>
      <point x="530" y="45"/>
      <point x="418" y="287" type="curve" smooth="yes"/>
      <point x="233" y="689" type="line" smooth="yes"/>
      <point x="192" y="778"/>
      <point x="166" y="775"/>
      <point x="79" y="773" type="curve"/>
      <point x="88" y="853" type="line"/>
      <point x="123" y="874"/>
      <point x="163" y="886"/>
      <point x="211" y="886" type="curve" smooth="yes"/>
      <point x="296" y="886"/>
      <point x="328" y="862"/>
      <point x="396" y="713" type="curve" smooth="yes"/>
    </contour>
  </outline>
</glyph>
<glyph name="y" format="1">
  <advance width="778"/>
  <unicode hex="0079"/>
  <outline>
    <contour>
      <point x="435" y="-2" type="curve" smooth="yes"/>
      <point x="571" y="230"/>
      <point x="760" y="645"/>
      <point x="760" y="778" type="curve" smooth="yes"/>
      <point x="760" y="853"/>
      <point x="728" y="898"/>
      <point x="643" y="898" type="curve" smooth="yes"/>
      <point x="591.098" y="898"/>
      <point x="547.846" y="886"/>
      <point x="510" y="865" type="curve"/>
      <point x="501" y="785" type="line"/>
      <point x="559.828" y="798"/>
      <point x="613" y="789"/>
      <point x="613" y="746" type="curve" smooth="yes"/>
      <point x="613" y="495"/>
      <point x="480" y="228"/>
      <point x="432" y="143" type="curve"/>
      <point x="341" y="677" type="line" smooth="yes"/>
      <point x="318" y="812"/>
      <point x="310" y="894"/>
      <point x="193" y="894" type="curve" smooth="yes"/>
      <point x="137" y="894"/>
      <point x="91" y="882"/>
      <point x="50" y="861" type="curve"/>
      <point x="41" y="781" type="line"/>
      <point x="117" y="783"/>
      <point x="154" y="790"/>
      <point x="175" y="697" type="curve" smooth="yes"/>
      <point x="335" y="0" type="line"/>
      <point x="276" y="-139"/>
      <point x="201" y="-206"/>
      <point x="88" y="-206" type="curve" smooth="yes"/>
      <point x="31" y="-206"/>
      <point x="-15" y="-189"/>
      <point x="-73" y="-150" type="curve"/>
      <point x="-103.763" y="-180.763"/>
      <point x="-120.369" y="-219.882"/>
      <point x="-120.369" y="-257.076" type="curve" smooth="yes"/>
      <point x="-120.369" y="-339.567"/>
      <point x="-44.1838" y="-382"/>
      <point x="45" y="-382" type="curve" smooth="yes"/>
      <point x="215.793" y="-382"/>
      <point x="326.345" y="-193.958"/>
    </contour>
  </outline>
</glyph>
<glyph name="z" format="1">
  <advance width="778"/>
  <unicode hex="007A"/>
  <outline>
    <contour>
      <point x="101" y="-15" type="line"/>
      <point x="10" y="26" type="line"/>
      <point x="584" y="749" type="line"/>
      <point x="245" y="749" type="line"/>
      <point x="177" y="581" type="line"/>
      <point x="109" y="594" type="line"/>
      <point x="145" y="874" type="line"/>
      <point x="752" y="874" type="line"/>
      <point x="752" y="806" type="line"/>
      <point x="239" y="151" type="line"/>
      <point x="243" y="147" type="line"/>
      <point x="282" y="156"/>
      <point x="369.87" y="180.384"/>
      <point x="429" y="156" type="curve" smooth="yes"/>
      <point x="526" y="116" type="line" smooth="yes"/>
      <point x="608.599" y="84.3871"/>
      <point x="633.571" y="80.7742"/>
      <point x="696" y="172" type="curve"/>
      <point x="758" y="144" type="line"/>
      <point x="654" y="-82"/>
      <point x="541" y="-64"/>
      <point x="413" y="-18" type="curve" smooth="yes"/>
      <point x="280" y="30" type="line" smooth="yes"/>
      <point x="196" y="60"/>
      <point x="166" y="35"/>
      <point x="134" y="14" type="curve" smooth="yes"/>
    </contour>
  </outline>
</glyph>
<glyph name="bar" format="1">
  <advance width="452"/>
  <unicode hex="007C"/>
  <outline>
    <contour>
      <point x="155" y="-363" type="line"/>
      <point x="41" y="-350" type="line"/>
      <point x="295" y="1255" type="line"/>
      <point x="409" y="1244" type="line"/>
    </contour>
  </outline>
</glyph>
<glyph name="cent" format="1">
  <advance width="712"/>
  <unicode hex="00A2"/>
  <outline>
    <contour>
      <point x="611" y="179" type="curve"/>
      <point x="635" y="118" type="line"/>
      <point x="565" y="39"/>
      <point x="438" y="-24"/>
      <point x="327" y="-24" type="curve" smooth="yes"/>
      <point x="149" y="-24"/>
      <point x="24" y="98.1325"/>
      <point x="24" y="348" type="curve" smooth="yes"/>
      <point x="24" y="672.414"/>
      <point x="275" y="908"/>
      <point x="514" y="908" type="curve" smooth="yes"/>
      <point x="632" y="908"/>
      <point x="700" y="845"/>
      <point x="700" y="751" type="curve" smooth="yes"/>
      <point x="700" y="688"/>
      <point x="640" y="653"/>
      <point x="571" y="647" type="curve"/>
      <point x="543" y="731"/>
      <point x="518" y="811"/>
      <point x="431" y="811" type="curve" smooth="yes"/>
      <point x="261" y="811"/>
      <point x="197" y="577.922"/>
      <point x="197" y="420" type="curve" smooth="yes"/>
      <point x="197" y="210.285"/>
      <point x="259" y="106"/>
      <point x="398" y="106" type="curve" smooth="yes"/>
      <point x="482" y="106"/>
      <point x="561" y="148"/>
    </contour>
    <contour>
      <point x="424" y="1114" type="line"/>
      <point x="572" y="1131" type="line"/>
      <point x="506" y="863" type="line"/>
      <point x="415" y="863" type="line"/>
    </contour>
    <contour>
      <point x="231" y="-266" type="line"/>
      <point x="299" y="0" type="line"/>
      <point x="388" y="0" type="line"/>
      <point x="382" y="-250" type="line"/>
    </contour>
  </outline>
</glyph>
<glyph name="sterling" format="1">
  <advance width="1167"/>
  <unicode hex="00A3"/>
  <outline>
    <contour>
      <point x="43" y="0" type="line"/>
      <point x="62" y="74" type="line"/>
      <point x="237" y="121" type="line"/>
      <point x="284" y="221"/>
      <point x="304" y="313"/>
      <point x="330" y="461" type="curve" smooth="yes"/>
      <point x="347" y="549" type="line"/>
      <point x="165" y="538" type="line"/>
      <point x="193" y="639" type="line"/>
      <point x="366" y="649" type="line"/>
      <point x="390" y="786" type="line"/>
      <point x="451" y="1108"/>
      <point x="644" y="1250"/>
      <point x="871" y="1250" type="curve" smooth="yes"/>
      <point x="951" y="1250"/>
      <point x="1024" y="1244"/>
      <point x="1098" y="1211" type="curve"/>
      <point x="1017" y="895" type="line"/>
      <point x="933" y="907" type="line"/>
      <point x="926" y="1121" type="line"/>
      <point x="907" y="1132"/>
      <point x="880" y="1143"/>
      <point x="844" y="1143" type="curve" smooth="yes"/>
      <point x="677" y="1143"/>
      <point x="628" y="1037"/>
      <point x="569" y="703" type="curve"/>
      <point x="562" y="655" type="line"/>
      <point x="782" y="669" type="line"/>
      <point x="756" y="568" type="line"/>
      <point x="543" y="555" type="line"/>
      <point x="536" y="515" type="line"/>
      <point x="508" y="356"/>
      <point x="471" y="196"/>
      <point x="409" y="99" type="curve"/>
      <point x="868" y="96" type="line"/>
      <point x="1039" y="349" type="line"/>
      <point x="1122" y="331" type="line"/>
      <point x="1032" y="0" type="line"/>
    </contour>
  </outline>
</glyph>
<glyph name="currency" format="1">
  <advance width="789"/>
  <unicode hex="00A4"/>
  <outline>
    <contour>
      <point x="48" y="746" type="line"/>
      <point x="132" y="827" type="line"/>
      <point x="241" y="709" type="line"/>
      <point x="284" y="745"/>
      <point x="346" y="768"/>
      <point x="395" y="768" type="curve" smooth="yes"/>
      <point x="449" y="768"/>
      <point x="512" y="748"/>
      <point x="552" y="718" type="curve"/>
      <point x="663" y="830" type="line"/>
      <point x="737" y="742" type="line"/>
      <point x="622" y="636" type="line"/>
      <point x="643" y="599"/>
      <point x="658" y="538"/>
      <point x="658" y="491" type="curve" smooth="yes"/>
      <point x="658" y="441"/>
      <point x="642" y="379"/>
      <point x="615" y="342" type="curve"/>
      <point x="740" y="223" type="line"/>
      <point x="655" y="143" type="line"/>
      <point x="542" y="264" type="line"/>
      <point x="496" y="236"/>
      <point x="434" y="217"/>
      <point x="387" y="217" type="curve" smooth="yes"/>
      <point x="347" y="217"/>
      <point x="293" y="233"/>
      <point x="253" y="257" type="curve"/>
      <point x="145" y="136" type="line"/>
      <point x="61" y="221" type="line"/>
      <point x="176" y="332" type="line"/>
      <point x="149" y="372"/>
      <point x="131" y="435"/>
      <point x="131" y="488" type="curve" smooth="yes"/>
      <point x="131" y="534"/>
      <point x="147" y="592"/>
      <point x="170" y="628" type="curve"/>
    </contour>
    <contour>
      <point x="236" y="494" type="curve" smooth="yes"/>
      <point x="236" y="386"/>
      <point x="300" y="313"/>
      <point x="392" y="313" type="curve" smooth="yes"/>
      <point x="488" y="313"/>
      <point x="552" y="383"/>
      <point x="552" y="487" type="curve" smooth="yes"/>
      <point x="552" y="598"/>
      <point x="488" y="670"/>
      <point x="391" y="670" type="curve" smooth="yes"/>
      <point x="299" y="670"/>
      <point x="236" y="599"/>
    </contour>
  </outline>
</glyph>
<glyph name="brokenbar" format="1">
  <advance width="447"/>
  <unicode hex="00A6"/>
  <outline>
    <contour>
      <point x="41" y="-350" type="line"/>
      <point x="165" y="431" type="line"/>
      <point x="274" y="419" type="line"/>
      <point x="150" y="-363" type="line"/>
    </contour>
    <contour>
      <point x="183" y="540" type="line"/>
      <point x="295" y="1255" type="line"/>
      <point x="404" y="1244" type="line"/>
      <point x="287" y="528" type="line"/>
    </contour>
  </outline>
</glyph>
<glyph name="section" format="1">
  <advance width="1006"/>
  <unicode hex="00A7"/>
  <outline>
    <contour>
      <point x="41" y="-236" type="curve"/>
      <point x="96" y="31" type="line"/>
      <point x="198" y="16" type="line"/>
      <point x="205" y="-172" type="line"/>
      <point x="232" y="-229"/>
      <point x="301" y="-282"/>
      <point x="394" y="-282" type="curve" smooth="yes"/>
      <point x="499" y="-282"/>
      <point x="642" y="-219"/>
      <point x="665" y="-71" type="curve" smooth="yes"/>
      <point x="707" y="195"/>
      <point x="70" y="191"/>
      <point x="202" y="606" type="curve"/>
      <point x="527" y="406" type="line" smooth="yes"/>
      <point x="684" y="310"/>
      <point x="896" y="230"/>
      <point x="859" y="-4" type="curve" smooth="yes"/>
      <point x="823" y="-234"/>
      <point x="584" y="-383"/>
      <point x="356" y="-383" type="curve" smooth="yes"/>
      <point x="212" y="-383"/>
      <point x="92" y="-315"/>
    </contour>
    <contour>
      <point x="251" y="916" type="curve" smooth="yes"/>
      <point x="287" y="1143"/>
      <point x="497" y="1269"/>
      <point x="694" y="1269" type="curve" smooth="yes"/>
      <point x="802" y="1269"/>
      <point x="893" y="1235"/>
      <point x="962" y="1169" type="curve"/>
      <point x="961" y="1161"/>
      <point x="895" y="887"/>
      <point x="895" y="887" type="curve"/>
      <point x="798" y="899" type="line"/>
      <point x="802" y="1090" type="line"/>
      <point x="790" y="1126"/>
      <point x="729" y="1185"/>
      <point x="649" y="1185" type="curve" smooth="yes"/>
      <point x="549" y="1185"/>
      <point x="456" y="1126"/>
      <point x="435" y="995" type="curve" smooth="yes"/>
      <point x="388" y="698"/>
      <point x="1041" y="728"/>
      <point x="906" y="300" type="curve"/>
      <point x="536" y="527" type="line" smooth="yes"/>
      <point x="391" y="616"/>
      <point x="217" y="704"/>
    </contour>
  </outline>
</glyph>
<glyph name="dieresis" format="1">
  <advance width="603"/>
  <unicode hex="00A8"/>
  <outline>
    <contour>
      <point x="447" y="1542" type="curve" smooth="yes"/>
      <point x="492" y="1542"/>
      <point x="528" y="1511"/>
      <point x="521" y="1465" type="curve" smooth="yes"/>
      <point x="513" y="1415"/>
      <point x="467" y="1384"/>
      <point x="422" y="1384" type="curve" smooth="yes"/>
      <point x="379" y="1384"/>
      <point x="342" y="1415"/>
      <point x="350" y="1465" type="curve" smooth="yes"/>
      <point x="358" y="1513"/>
      <point x="406" y="1542"/>
    </contour>
    <contour>
      <point x="180" y="1542" type="curve" smooth="yes"/>
      <point x="225" y="1542"/>
      <point x="259" y="1511"/>
      <point x="252" y="1465" type="curve" smooth="yes"/>
      <point x="244" y="1415"/>
      <point x="200" y="1384"/>
      <point x="155" y="1384" type="curve" smooth="yes"/>
      <point x="112" y="1384"/>
      <point x="74" y="1415"/>
      <point x="82" y="1465" type="curve" smooth="yes"/>
      <point x="90" y="1513"/>
      <point x="139" y="1542"/>
    </contour>
    <contour>
      <point x="267" y="1255" type="move" smooth="yes"/>
    </contour>
  </outline>
</glyph>
<glyph name="copyright" format="1">
  <advance width="1380"/>
  <unicode hex="00A9"/>
  <outline>
    <contour>
      <point x="346" y="644" type="curve" smooth="yes"/>
      <point x="346" y="896"/>
      <point x="523" y="1056"/>
      <point x="707" y="1056" type="curve" smooth="yes"/>
      <point x="849" y="1056"/>
      <point x="912" y="993"/>
      <point x="912" y="926" type="curve" smooth="yes"/>
      <point x="912" y="876"/>
      <point x="875" y="842"/>
      <point x="804" y="837" type="curve"/>
      <point x="780" y="894"/>
      <point x="741" y="976"/>
      <point x="667" y="976" type="curve" smooth="yes"/>
      <point x="566" y="976"/>
      <point x="499" y="876"/>
      <point x="499" y="722" type="curve" smooth="yes"/>
      <point x="499" y="580"/>
      <point x="575" y="368"/>
      <point x="752" y="368" type="curve" smooth="yes"/>
      <point x="836" y="368"/>
      <point x="884" y="393"/>
      <point x="924" y="419" type="curve"/>
      <point x="945" y="370" type="line"/>
      <point x="900" y="316"/>
      <point x="791" y="266"/>
      <point x="681" y="266" type="curve" smooth="yes"/>
      <point x="477" y="266"/>
      <point x="346" y="440"/>
    </contour>
    <contour>
      <point x="54" y="645" type="curve" smooth="yes"/>
      <point x="54" y="1026"/>
      <point x="347" y="1320"/>
      <point x="685" y="1320" type="curve" smooth="yes"/>
      <point x="1080" y="1320"/>
      <point x="1328" y="1033"/>
      <point x="1328" y="649" type="curve" smooth="yes"/>
      <point x="1328" y="292"/>
      <point x="1042" y="-15"/>
      <point x="676" y="-15" type="curve" smooth="yes"/>
      <point x="310" y="-15"/>
      <point x="54" y="270"/>
    </contour>
    <contour>
      <point x="177" y="657" type="curve" smooth="yes"/>
      <point x="177" y="329"/>
      <point x="388" y="92"/>
      <point x="684" y="92" type="curve" smooth="yes"/>
      <point x="972" y="92"/>
      <point x="1206" y="325"/>
      <point x="1206" y="639" type="curve" smooth="yes"/>
      <point x="1206" y="964"/>
      <point x="1020" y="1217"/>
      <point x="685" y="1217" type="curve" smooth="yes"/>
      <point x="397" y="1217"/>
      <point x="177" y="961"/>
    </contour>
  </outline>
</glyph>
<glyph name="ordfeminine" format="1">
  <advance width="761"/>
  <unicode hex="00AA"/>
  <outline>
    <contour>
      <point x="472" y="932" type="curve"/>
      <point x="477" y="966" type="line" smooth="yes"/>
      <point x="494" y="1074"/>
      <point x="502" y="1170"/>
      <point x="396" y="1170" type="curve" smooth="yes"/>
      <point x="326" y="1170"/>
      <point x="305" y="1114"/>
      <point x="271" y="978" type="curve"/>
      <point x="196" y="970"/>
      <point x="158" y="1004"/>
      <point x="158" y="1066" type="curve" smooth="yes"/>
      <point x="158" y="1168"/>
      <point x="354" y="1254"/>
      <point x="468" y="1254" type="curve" smooth="yes"/>
      <point x="616" y="1254"/>
      <point x="657" y="1164"/>
      <point x="635" y="1008" type="curve" smooth="yes"/>
      <point x="597" y="748" type="line" smooth="yes"/>
      <point x="587" y="674"/>
      <point x="602" y="648"/>
      <point x="675" y="635" type="curve" smooth="yes"/>
      <point x="716" y="628" type="line"/>
      <point x="695" y="566" type="line"/>
      <point x="648" y="529"/>
      <point x="622" y="520"/>
      <point x="572" y="520" type="curve" smooth="yes"/>
      <point x="464" y="520"/>
      <point x="430" y="583"/>
      <point x="439" y="639" type="curve"/>
      <point x="430" y="639" type="line"/>
      <point x="401" y="597"/>
      <point x="339" y="515"/>
      <point x="204" y="515" type="curve" smooth="yes"/>
      <point x="124" y="515"/>
      <point x="62" y="574"/>
      <point x="62" y="655" type="curve" smooth="yes"/>
      <point x="62" y="797"/>
      <point x="188" y="932"/>
    </contour>
    <contour>
      <point x="230" y="701" type="curve" smooth="yes"/>
      <point x="230" y="665"/>
      <point x="249" y="631"/>
      <point x="303" y="631" type="curve" smooth="yes"/>
      <point x="364" y="631"/>
      <point x="403" y="679"/>
      <point x="436" y="709" type="curve"/>
      <point x="462" y="874" type="line"/>
      <point x="301" y="846"/>
      <point x="230" y="794"/>
    </contour>
  </outline>
</glyph>
<glyph name="softhyphen" format="1">
  <advance width="560"/>
  <unicode hex="00AD"/>
  <outline>
    <contour>
      <point x="83" y="522" type="line"/>
      <point x="501" y="581" type="line"/>
      <point x="475" y="466" type="line"/>
      <point x="57" y="406" type="line"/>
    </contour>
  </outline>
</glyph>
<glyph name="registered" format="1">
  <advance width="1074"/>
  <unicode hex="00AE"/>
  <outline>
    <contour>
      <point x="255" y="777" type="line"/>
      <point x="262" y="825" type="line"/>
      <point x="342" y="853" type="line"/>
      <point x="342" y="1248" type="line"/>
      <point x="261" y="1266" type="line"/>
      <point x="266" y="1319" type="line"/>
      <point x="332" y="1329"/>
      <point x="444" y="1341"/>
      <point x="511" y="1341" type="curve" smooth="yes"/>
      <point x="664" y="1341"/>
      <point x="756" y="1305"/>
      <point x="756" y="1194" type="curve" smooth="yes"/>
      <point x="756" y="1124"/>
      <point x="698" y="1051"/>
      <point x="631" y="1028" type="curve"/>
      <point x="630" y="1026" type="line"/>
      <point x="708" y="935" type="line" smooth="yes"/>
      <point x="758" y="877"/>
      <point x="777" y="862"/>
      <point x="827" y="839" type="curve" smooth="yes"/>
      <point x="843" y="832" type="line"/>
      <point x="833" y="777" type="line"/>
      <point x="814" y="771"/>
      <point x="783" y="766"/>
      <point x="751" y="766" type="curve" smooth="yes"/>
      <point x="660" y="766"/>
      <point x="618" y="823"/>
      <point x="568" y="918" type="curve" smooth="yes"/>
      <point x="525" y="1001" type="line"/>
      <point x="469" y="1001" type="line"/>
      <point x="469" y="857" type="line"/>
      <point x="543" y="830" type="line"/>
      <point x="538" y="777" type="line"/>
    </contour>
    <contour>
      <point x="469" y="1068" type="line"/>
      <point x="548" y="1068" type="line"/>
      <point x="588" y="1085"/>
      <point x="619" y="1117"/>
      <point x="619" y="1170" type="curve" smooth="yes"/>
      <point x="619" y="1233"/>
      <point x="576" y="1272"/>
      <point x="503" y="1272" type="curve" smooth="yes"/>
      <point x="485" y="1272"/>
      <point x="472" y="1270"/>
      <point x="469" y="1270" type="curve"/>
    </contour>
    <contour>
      <point x="55" y="1022" type="curve" smooth="yes"/>
      <point x="55" y="1344"/>
      <point x="266" y="1522"/>
      <point x="534" y="1522" type="curve" smooth="yes"/>
      <point x="810" y="1522"/>
      <point x="1029" y="1352"/>
      <point x="1029" y="1026" type="curve" smooth="yes"/>
      <point x="1029" y="716"/>
      <point x="806" y="540"/>
      <point x="524" y="540" type="curve" smooth="yes"/>
      <point x="262" y="540"/>
      <point x="55" y="724"/>
    </contour>
    <contour>
      <point x="143" y="1036" type="curve" smooth="yes"/>
      <point x="143" y="776"/>
      <point x="314" y="616"/>
      <point x="532" y="616" type="curve" smooth="yes"/>
      <point x="760" y="616"/>
      <point x="941" y="784"/>
      <point x="941" y="1016" type="curve" smooth="yes"/>
      <point x="941" y="1280"/>
      <point x="760" y="1446"/>
      <point x="534" y="1446" type="curve" smooth="yes"/>
      <point x="312" y="1446"/>
      <point x="143" y="1300"/>
    </contour>
  </outline>
</glyph>
<glyph name="degree" format="1">
  <advance width="485"/>
  <unicode hex="00B0"/>
  <outline>
    <contour>
      <point x="66" y="1107" type="curve" smooth="yes"/>
      <point x="66" y="1210"/>
      <point x="151" y="1304"/>
      <point x="259" y="1304" type="curve" smooth="yes"/>
      <point x="375" y="1304"/>
      <point x="430" y="1237"/>
      <point x="430" y="1128" type="curve" smooth="yes"/>
      <point x="430" y="1013"/>
      <point x="341" y="928"/>
      <point x="235" y="928" type="curve" smooth="yes"/>
      <point x="133" y="928"/>
      <point x="66" y="990"/>
    </contour>
    <contour>
      <point x="157" y="1129" type="curve" smooth="yes"/>
      <point x="157" y="1068"/>
      <point x="189" y="995"/>
      <point x="253" y="995" type="curve" smooth="yes"/>
      <point x="307" y="995"/>
      <point x="338" y="1032"/>
      <point x="338" y="1105" type="curve" smooth="yes"/>
      <point x="338" y="1167"/>
      <point x="305" y="1237"/>
      <point x="243" y="1237" type="curve" smooth="yes"/>
      <point x="184" y="1237"/>
      <point x="157" y="1185"/>
    </contour>
  </outline>
</glyph>
<glyph name="plusminus" format="1">
  <advance width="729"/>
  <unicode hex="00B1"/>
  <outline>
    <contour>
      <point x="68" y="117" type="line"/>
      <point x="679" y="124" type="line"/>
      <point x="663" y="20" type="line"/>
      <point x="51" y="13" type="line"/>
    </contour>
    <component base="plus" yxScale="-4.47035e-07" xOffset="8" yOffset="81"/>
  </outline>
</glyph>
<glyph name="two.superior" format="1">
  <advance width="728"/>
  <unicode hex="00B2"/>
  <outline>
    <contour>
      <point x="74" y="638" type="line"/>
      <point x="248" y="761" type="line"/>
      <point x="385" y="860"/>
      <point x="475" y="929"/>
      <point x="475" y="1057" type="curve" smooth="yes"/>
      <point x="475" y="1110"/>
      <point x="456" y="1153"/>
      <point x="385" y="1153" type="curve" smooth="yes"/>
      <point x="336" y="1153"/>
      <point x="291" y="1127"/>
      <point x="271" y="1095" type="curve"/>
      <point x="229" y="966" type="line"/>
      <point x="162" y="971" type="line"/>
      <point x="174" y="1141" type="line"/>
      <point x="227" y="1218"/>
      <point x="364" y="1257"/>
      <point x="465" y="1257" type="curve" smooth="yes"/>
      <point x="603" y="1257"/>
      <point x="679" y="1201"/>
      <point x="679" y="1104" type="curve" smooth="yes"/>
      <point x="679" y="922"/>
      <point x="489" y="805"/>
      <point x="306" y="696" type="curve" smooth="yes"/>
      <point x="232" y="652" type="line"/>
      <point x="502" y="652" type="line"/>
      <point x="605" y="805" type="line"/>
      <point x="659" y="784" type="line"/>
      <point x="600" y="531" type="line"/>
      <point x="49" y="531" type="line"/>
    </contour>
  </outline>
</glyph>
<glyph name="three.superior" format="1">
  <advance width="701"/>
  <unicode hex="00B3"/>
  <outline>
    <contour>
      <point x="49" y="563" type="curve"/>
      <point x="111" y="762" type="line"/>
      <point x="184" y="754" type="line"/>
      <point x="171" y="619" type="line"/>
      <point x="186" y="598"/>
      <point x="221" y="579"/>
      <point x="264" y="579" type="curve" smooth="yes"/>
      <point x="358" y="579"/>
      <point x="438" y="639"/>
      <point x="438" y="733" type="curve" smooth="yes"/>
      <point x="438" y="798"/>
      <point x="366" y="849"/>
      <point x="253" y="849" type="curve"/>
      <point x="247" y="908" type="line"/>
      <point x="302" y="924"/>
      <point x="458" y="975"/>
      <point x="458" y="1092" type="curve" smooth="yes"/>
      <point x="458" y="1142"/>
      <point x="431" y="1189"/>
      <point x="368" y="1189" type="curve" smooth="yes"/>
      <point x="337" y="1189"/>
      <point x="306" y="1186"/>
      <point x="282" y="1167" type="curve"/>
      <point x="233" y="1010" type="line"/>
      <point x="158" y="1016" type="line"/>
      <point x="173" y="1187" type="line"/>
      <point x="211" y="1231"/>
      <point x="333" y="1279"/>
      <point x="436" y="1279" type="curve" smooth="yes"/>
      <point x="561" y="1279"/>
      <point x="653" y="1231"/>
      <point x="653" y="1140" type="curve" smooth="yes"/>
      <point x="653" y="1019"/>
      <point x="545" y="955"/>
      <point x="442" y="927" type="curve"/>
      <point x="441" y="920" type="line"/>
      <point x="569" y="907"/>
      <point x="632" y="852"/>
      <point x="632" y="767" type="curve" smooth="yes"/>
      <point x="632" y="604"/>
      <point x="440" y="495"/>
      <point x="246" y="495" type="curve" smooth="yes"/>
      <point x="151" y="495"/>
      <point x="62" y="521"/>
    </contour>
  </outline>
</glyph>
<glyph name="micro" format="1">
  <advance width="945"/>
  <unicode hex="00B5"/>
  <outline>
    <contour>
      <point x="213" y="37" type="line"/>
      <point x="206" y="37" type="line"/>
      <point x="206" y="19"/>
      <point x="207" y="-28"/>
      <point x="201" y="-86" type="curve" smooth="yes"/>
      <point x="171" y="-388" type="line"/>
      <point x="42" y="-362" type="line"/>
      <point x="56" y="-313"/>
      <point x="189" y="255"/>
      <point x="227" y="497" type="curve" smooth="yes"/>
      <point x="266" y="746" type="line"/>
      <point x="135" y="770" type="line"/>
      <point x="145" y="844" type="line"/>
      <point x="428" y="869" type="line"/>
      <point x="447" y="846" type="line"/>
      <point x="368" y="375" type="line" smooth="yes"/>
      <point x="338" y="197"/>
      <point x="342" y="117"/>
      <point x="433" y="117" type="curve" smooth="yes"/>
      <point x="525" y="117"/>
      <point x="580" y="167"/>
      <point x="613" y="200" type="curve"/>
      <point x="695" y="746" type="line"/>
      <point x="561" y="770" type="line"/>
      <point x="571" y="844" type="line"/>
      <point x="857" y="869" type="line"/>
      <point x="877" y="846" type="line"/>
      <point x="801" y="370" type="line" smooth="yes"/>
      <point x="763" y="132"/>
      <point x="785" y="104"/>
      <point x="831" y="96" type="curve" smooth="yes"/>
      <point x="897" y="84" type="line"/>
      <point x="879" y="15" type="line"/>
      <point x="844" y="2"/>
      <point x="792" y="-17"/>
      <point x="738" y="-17" type="curve" smooth="yes"/>
      <point x="650" y="-17"/>
      <point x="599" y="26"/>
      <point x="611" y="130" type="curve"/>
      <point x="601" y="130" type="line"/>
      <point x="573" y="77"/>
      <point x="470" y="-20"/>
      <point x="338" y="-20" type="curve" smooth="yes"/>
      <point x="287" y="-20"/>
      <point x="241" y="-6"/>
      <point x="213" y="38" type="curve"/>
    </contour>
  </outline>
</glyph>
<glyph name="paragraph" format="1">
  <advance width="1356"/>
  <unicode hex="00B6"/>
  <outline>
    <contour>
      <point x="569" y="1245" type="curve" smooth="yes"/>
      <point x="915" y="1245" type="line"/>
      <point x="718" y="0" type="line"/>
      <point x="312" y="0" type="line"/>
      <point x="331" y="74" type="line"/>
      <point x="579" y="121" type="line"/>
      <point x="742" y="1152" type="line"/>
      <point x="702" y="1153"/>
      <point x="646" y="1154"/>
      <point x="636" y="1154" type="curve" smooth="yes"/>
      <point x="403" y="1154"/>
      <point x="265" y="1040"/>
      <point x="265" y="817" type="curve" smooth="yes"/>
      <point x="265" y="676"/>
      <point x="344" y="546"/>
      <point x="533" y="546" type="curve"/>
      <point x="500" y="448" type="line"/>
      <point x="262" y="448"/>
      <point x="54" y="551"/>
      <point x="54" y="785" type="curve" smooth="yes"/>
      <point x="54" y="1072"/>
      <point x="309" y="1245"/>
    </contour>
    <contour>
      <point x="797" y="0" type="line"/>
      <point x="994" y="1245" type="line"/>
      <point x="1314" y="1245" type="line"/>
      <point x="1293" y="1168" type="line"/>
      <point x="1117" y="1130" type="line"/>
      <point x="956" y="114" type="line"/>
      <point x="1132" y="80" type="line"/>
      <point x="1109" y="0" type="line"/>
    </contour>
  </outline>
</glyph>
<glyph name="one.superior" format="1">
  <advance width="599"/>
  <unicode hex="00B9"/>
  <outline>
    <contour>
      <point x="49" y="531" type="line"/>
      <point x="65" y="605" type="line"/>
      <point x="222" y="630" type="line"/>
      <point x="300" y="1122" type="line"/>
      <point x="155" y="1122" type="line"/>
      <point x="171" y="1199" type="line"/>
      <point x="480" y="1245" type="line"/>
      <point x="499" y="1245" type="line"/>
      <point x="401" y="627" type="line"/>
      <point x="551" y="614" type="line"/>
      <point x="532" y="531" type="line"/>
    </contour>
  </outline>
</glyph>
<glyph name="ordmasculine" format="1">
  <advance width="826"/>
  <unicode hex="00BA"/>
  <outline>
    <contour>
      <point x="494" y="1258" type="curve" smooth="yes"/>
      <point x="676" y="1258"/>
      <point x="778" y="1144"/>
      <point x="778" y="969" type="curve" smooth="yes"/>
      <point x="778" y="697"/>
      <point x="575" y="514"/>
      <point x="356" y="514" type="curve" smooth="yes"/>
      <point x="159" y="514"/>
      <point x="58" y="635"/>
      <point x="58" y="803" type="curve" smooth="yes"/>
      <point x="58" y="1090"/>
      <point x="289" y="1258"/>
    </contour>
    <contour>
      <point x="234" y="811" type="curve" smooth="yes"/>
      <point x="234" y="692"/>
      <point x="261" y="594"/>
      <point x="387" y="594" type="curve" smooth="yes"/>
      <point x="544" y="594"/>
      <point x="600" y="784"/>
      <point x="600" y="948" type="curve" smooth="yes"/>
      <point x="600" y="1068"/>
      <point x="565" y="1175"/>
      <point x="445" y="1175" type="curve" smooth="yes"/>
      <point x="282" y="1175"/>
      <point x="234" y="984"/>
    </contour>
  </outline>
</glyph>
<glyph name="onequarter" format="1">
  <advance width="1397"/>
  <unicode hex="00BC"/>
  <outline>
    <contour>
      <point x="748" y="270" type="line"/>
      <point x="1232" y="737" type="line"/>
      <point x="1287" y="726" type="line"/>
      <point x="1271" y="655"/>
      <point x="1248" y="539"/>
      <point x="1231" y="430" type="curve" smooth="yes"/>
      <point x="1206" y="272" type="line"/>
      <point x="1354" y="272" type="line"/>
      <point x="1330" y="175" type="line"/>
      <point x="1191" y="175" type="line"/>
      <point x="1176" y="83" type="line"/>
      <point x="1294" y="65" type="line"/>
      <point x="1278" y="0" type="line"/>
      <point x="864" y="0" type="line"/>
      <point x="877" y="58" type="line"/>
      <point x="1018" y="85" type="line"/>
      <point x="1033" y="178" type="line"/>
      <point x="746" y="178" type="line"/>
    </contour>
    <contour>
      <point x="855" y="272" type="line"/>
      <point x="1045" y="272" type="line"/>
      <point x="1082" y="508" type="line"/>
    </contour>
    <contour>
      <point x="44" y="531" type="line"/>
      <point x="60" y="605" type="line"/>
      <point x="217" y="630" type="line"/>
      <point x="295" y="1122" type="line"/>
      <point x="150" y="1122" type="line"/>
      <point x="166" y="1199" type="line"/>
      <point x="475" y="1245" type="line"/>
      <point x="494" y="1245" type="line"/>
      <point x="396" y="627" type="line"/>
      <point x="546" y="614" type="line"/>
      <point x="527" y="531" type="line"/>
    </contour>
    <contour>
      <point x="169" y="-10" type="line"/>
      <point x="671" y="588" type="line"/>
      <point x="1161" y="1210" type="line"/>
      <point x="1336" y="1207" type="line"/>
      <point x="1329" y="1178" type="line"/>
      <point x="836" y="591" type="line"/>
      <point x="366" y="-32" type="line"/>
    </contour>
  </outline>
</glyph>
<glyph name="onehalf" format="1">
  <advance width="1476"/>
  <unicode hex="00BD"/>
  <outline>
    <contour>
      <point x="821" y="109" type="line"/>
      <point x="996" y="232" type="line"/>
      <point x="1133" y="331"/>
      <point x="1222" y="400"/>
      <point x="1222" y="528" type="curve" smooth="yes"/>
      <point x="1222" y="581"/>
      <point x="1203" y="624"/>
      <point x="1132" y="624" type="curve" smooth="yes"/>
      <point x="1083" y="624"/>
      <point x="1039" y="598"/>
      <point x="1019" y="566" type="curve"/>
      <point x="976" y="437" type="line"/>
      <point x="909" y="442" type="line"/>
      <point x="921" y="612" type="line"/>
      <point x="974" y="689"/>
      <point x="1111" y="728"/>
      <point x="1212" y="728" type="curve" smooth="yes"/>
      <point x="1350" y="728"/>
      <point x="1426" y="672"/>
      <point x="1426" y="575" type="curve" smooth="yes"/>
      <point x="1426" y="393"/>
      <point x="1236" y="276"/>
      <point x="1053" y="167" type="curve" smooth="yes"/>
      <point x="979" y="123" type="line"/>
      <point x="1249" y="123" type="line"/>
      <point x="1353" y="276" type="line"/>
      <point x="1406" y="255" type="line"/>
      <point x="1347" y="2" type="line"/>
      <point x="796" y="2" type="line"/>
    </contour>
    <contour>
      <point x="44" y="531" type="line"/>
      <point x="60" y="605" type="line"/>
      <point x="217" y="630" type="line"/>
      <point x="295" y="1122" type="line"/>
      <point x="150" y="1122" type="line"/>
      <point x="166" y="1199" type="line"/>
      <point x="475" y="1245" type="line"/>
      <point x="494" y="1245" type="line"/>
      <point x="396" y="627" type="line"/>
      <point x="546" y="614" type="line"/>
      <point x="527" y="531" type="line"/>
    </contour>
    <contour>
      <point x="149" y="-10" type="line"/>
      <point x="651" y="588" type="line"/>
      <point x="1141" y="1210" type="line"/>
      <point x="1316" y="1207" type="line"/>
      <point x="1309" y="1178" type="line"/>
      <point x="816" y="591" type="line"/>
      <point x="346" y="-32" type="line"/>
    </contour>
  </outline>
</glyph>
<glyph name="threequarters" format="1">
  <advance width="1376"/>
  <unicode hex="00BE"/>
  <outline>
    <contour>
      <point x="46" y="546" type="curve"/>
      <point x="108" y="745" type="line"/>
      <point x="181" y="737" type="line"/>
      <point x="168" y="602" type="line"/>
      <point x="183" y="581"/>
      <point x="218" y="562"/>
      <point x="261" y="562" type="curve" smooth="yes"/>
      <point x="355" y="562"/>
      <point x="435" y="622"/>
      <point x="435" y="716" type="curve" smooth="yes"/>
      <point x="435" y="781"/>
      <point x="363" y="832"/>
      <point x="250" y="832" type="curve"/>
      <point x="244" y="891" type="line"/>
      <point x="299" y="907"/>
      <point x="455" y="958"/>
      <point x="455" y="1075" type="curve" smooth="yes"/>
      <point x="455" y="1125"/>
      <point x="428" y="1172"/>
      <point x="365" y="1172" type="curve" smooth="yes"/>
      <point x="334" y="1172"/>
      <point x="303" y="1169"/>
      <point x="279" y="1150" type="curve"/>
      <point x="230" y="993" type="line"/>
      <point x="155" y="999" type="line"/>
      <point x="170" y="1170" type="line"/>
      <point x="208" y="1214"/>
      <point x="330" y="1262"/>
      <point x="433" y="1262" type="curve" smooth="yes"/>
      <point x="558" y="1262"/>
      <point x="650" y="1214"/>
      <point x="650" y="1123" type="curve" smooth="yes"/>
      <point x="650" y="1002"/>
      <point x="542" y="938"/>
      <point x="439" y="910" type="curve"/>
      <point x="438" y="903" type="line"/>
      <point x="566" y="890"/>
      <point x="629" y="835"/>
      <point x="629" y="750" type="curve" smooth="yes"/>
      <point x="629" y="587"/>
      <point x="437" y="478"/>
      <point x="243" y="478" type="curve" smooth="yes"/>
      <point x="148" y="478"/>
      <point x="59" y="504"/>
    </contour>
    <contour>
      <point x="162" y="-10" type="line"/>
      <point x="664" y="588" type="line"/>
      <point x="1153" y="1210" type="line"/>
      <point x="1329" y="1207" type="line"/>
      <point x="1322" y="1178" type="line"/>
      <point x="828" y="591" type="line"/>
      <point x="358" y="-32" type="line"/>
    </contour>
    <contour>
      <point x="726" y="270" type="line"/>
      <point x="1210" y="737" type="line"/>
      <point x="1266" y="726" type="line"/>
      <point x="1250" y="655"/>
      <point x="1227" y="539"/>
      <point x="1210" y="430" type="curve" smooth="yes"/>
      <point x="1185" y="272" type="line"/>
      <point x="1333" y="272" type="line"/>
      <point x="1308" y="175" type="line"/>
      <point x="1169" y="175" type="line"/>
      <point x="1155" y="83" type="line"/>
      <point x="1273" y="65" type="line"/>
      <point x="1257" y="0" type="line"/>
      <point x="843" y="0" type="line"/>
      <point x="856" y="58" type="line"/>
      <point x="997" y="85" type="line"/>
      <point x="1012" y="178" type="line"/>
      <point x="725" y="178" type="line"/>
    </contour>
    <contour>
      <point x="834" y="272" type="line"/>
      <point x="1024" y="272" type="line"/>
      <point x="1061" y="508" type="line"/>
    </contour>
  </outline>
</glyph>
<glyph name="AE" format="1">
  <advance width="1919"/>
  <unicode hex="00C6"/>
  <outline>
    <contour>
      <point x="44" y="1" type="line"/>
      <point x="65" y="76" type="line"/>
      <point x="210" y="131" type="line"/>
      <point x="1000" y="1126" type="line"/>
      <point x="793" y="1168" type="line"/>
      <point x="815" y="1244" type="line"/>
      <point x="1877" y="1244" type="line"/>
      <point x="1795" y="927" type="line"/>
      <point x="1711" y="940" type="line"/>
      <point x="1702" y="1152" type="line"/>
      <point x="1264" y="1152" type="line"/>
      <point x="1189" y="679" type="line"/>
      <point x="1448" y="679" type="line"/>
      <point x="1510" y="802" type="line"/>
      <point x="1606" y="810" type="line"/>
      <point x="1511" y="424" type="line"/>
      <point x="1424" y="409" type="line"/>
      <point x="1418" y="586" type="line"/>
      <point x="1175" y="586" type="line"/>
      <point x="1097" y="96" type="line"/>
      <point x="1561" y="96" type="line"/>
      <point x="1699" y="329" type="line"/>
      <point x="1776" y="313" type="line"/>
      <point x="1697" y="0" type="line"/>
      <point x="726" y="0" type="line"/>
      <point x="746" y="74" type="line"/>
      <point x="920" y="121" type="line"/>
      <point x="976" y="472" type="line"/>
      <point x="617" y="472" type="line"/>
      <point x="344" y="126" type="line"/>
      <point x="525" y="83" type="line"/>
      <point x="499" y="1" type="line"/>
    </contour>
    <contour>
      <point x="684" y="568" type="line"/>
      <point x="991" y="568" type="line"/>
      <point x="1068" y="1058" type="line"/>
    </contour>
  </outline>
</glyph>
<glyph name="Eth" format="1">
  <advance width="1473"/>
  <unicode hex="00D0"/>
  <outline>
    <contour>
      <point x="137" y="555" type="line"/>
      <point x="162" y="647" type="line"/>
      <point x="334" y="660" type="line"/>
      <point x="404" y="1104" type="line"/>
      <point x="237" y="1134" type="line"/>
      <point x="258" y="1211" type="line"/>
      <point x="460" y="1242"/>
      <point x="634" y="1260"/>
      <point x="779" y="1260" type="curve" smooth="yes"/>
      <point x="1269" y="1260"/>
      <point x="1427" y="997"/>
      <point x="1427" y="735" type="curve" smooth="yes"/>
      <point x="1427" y="321"/>
      <point x="1083" y="0"/>
      <point x="556" y="0" type="curve" smooth="yes"/>
      <point x="43" y="0" type="line"/>
      <point x="69" y="74" type="line"/>
      <point x="249" y="129" type="line"/>
      <point x="319" y="569" type="line"/>
    </contour>
    <contour>
      <point x="436" y="104" type="line"/>
      <point x="648" y="104" type="line" smooth="yes"/>
      <point x="1007" y="104"/>
      <point x="1203" y="363"/>
      <point x="1203" y="689" type="curve" smooth="yes"/>
      <point x="1203" y="943"/>
      <point x="1051" y="1157"/>
      <point x="725" y="1157" type="curve" smooth="yes"/>
      <point x="685" y="1157"/>
      <point x="643" y="1155"/>
      <point x="602" y="1151" type="curve"/>
      <point x="526" y="672" type="line"/>
      <point x="788" y="693" type="line"/>
      <point x="761" y="602" type="line"/>
      <point x="512" y="581" type="line"/>
    </contour>
  </outline>
</glyph>
<glyph name="Oslash" format="1">
  <advance width="1344"/>
  <unicode hex="00D8"/>
  <outline>
    <contour>
      <point x="747" y="1176" type="curve" smooth="yes"/>
      <point x="331" y="1176"/>
      <point x="278" y="773"/>
      <point x="283" y="527" type="curve" smooth="yes"/>
      <point x="288" y="294"/>
      <point x="376" y="79"/>
      <point x="604" y="79" type="curve" smooth="yes"/>
      <point x="1015" y="79"/>
      <point x="1076" y="487"/>
      <point x="1073" y="713" type="curve" smooth="yes"/>
      <point x="1068" y="946"/>
      <point x="977" y="1176"/>
    </contour>
    <contour>
      <point x="1297" y="737" type="curve" smooth="yes"/>
      <point x="1304" y="339"/>
      <point x="1009" y="-26"/>
      <point x="538" y="-26" type="curve" smooth="yes"/>
      <point x="237" y="-26"/>
      <point x="59" y="204"/>
      <point x="54" y="505" type="curve" smooth="yes"/>
      <point x="46" y="943"/>
      <point x="358" y="1273"/>
      <point x="812" y="1273" type="curve" smooth="yes"/>
      <point x="1124" y="1273"/>
      <point x="1292" y="1029"/>
    </contour>
    <contour>
      <point x="121" y="-91" type="line"/>
      <point x="277" y="153" type="line"/>
      <point x="320" y="177" type="line"/>
      <point x="947" y="1159" type="line"/>
      <point x="943" y="1198" type="line"/>
      <point x="1023" y="1324" type="line"/>
      <point x="1190" y="1332" type="line"/>
      <point x="1075" y="1154" type="line"/>
      <point x="1019" y="1110" type="line"/>
      <point x="372" y="100" type="line"/>
      <point x="382" y="72" type="line"/>
      <point x="283" y="-82" type="line"/>
    </contour>
  </outline>
</glyph>
<glyph name="Thorn" format="1">
  <advance width="1194"/>
  <unicode hex="00DE"/>
  <outline>
    <contour>
      <point x="224" y="1168" type="line"/>
      <point x="247" y="1244" type="line"/>
      <point x="790" y="1244" type="line"/>
      <point x="768" y="1168" type="line"/>
      <point x="591" y="1130" type="line"/>
      <point x="574" y="1020" type="line"/>
      <point x="614" y="1021"/>
      <point x="658" y="1024"/>
      <point x="698" y="1024" type="curve" smooth="yes"/>
      <point x="936" y="1024"/>
      <point x="1148" y="934"/>
      <point x="1148" y="702" type="curve" smooth="yes"/>
      <point x="1148" y="415"/>
      <point x="894" y="260"/>
      <point x="634" y="260" type="curve" smooth="yes"/>
      <point x="598" y="260"/>
      <point x="557" y="262"/>
      <point x="518" y="266" type="curve"/>
      <point x="515" y="351" type="line"/>
      <point x="769" y="337"/>
      <point x="934" y="415"/>
      <point x="934" y="659" type="curve" smooth="yes"/>
      <point x="934" y="797"/>
      <point x="854" y="926"/>
      <point x="665" y="926" type="curve" smooth="yes"/>
      <point x="625" y="926"/>
      <point x="558" y="919"/>
      <point x="558" y="919" type="curve"/>
      <point x="431" y="121" type="line"/>
      <point x="662" y="83" type="line"/>
      <point x="636" y="-1" type="line"/>
      <point x="43" y="-1" type="line"/>
      <point x="65" y="73" type="line"/>
      <point x="240" y="119" type="line"/>
      <point x="400" y="1126" type="line"/>
    </contour>
  </outline>
</glyph>
<glyph name="germandbls" format="1">
  <advance width="1027"/>
  <unicode hex="00DF"/>
  <outline>
    <contour>
      <point x="424" y="839" type="curve" smooth="yes"/>
      <point x="350" y="135" type="line" smooth="yes"/>
      <point x="338" y="25"/>
      <point x="315.574" y="-37.7142"/>
      <point x="300" y="-60" type="curve"/>
      <point x="144" y="-60" type="line"/>
      <point x="160.034" y="-30.7224"/>
      <point x="177" y="-5"/>
      <point x="187" y="99" type="curve" smooth="yes"/>
      <point x="253" y="768" type="line"/>
      <point x="100" y="768" type="line"/>
      <point x="114" y="836" type="line"/>
      <point x="271" y="872" type="line"/>
      <point x="315.904" y="1105.69"/>
      <point x="512.358" y="1320"/>
      <point x="738" y="1320" type="curve" smooth="yes"/>
      <point x="902.339" y="1320"/>
      <point x="971.851" y="1211.54"/>
      <point x="971.851" y="1071.32" type="curve" smooth="yes"/>
      <point x="971.851" y="851.101"/>
      <point x="699" y="766.385"/>
      <point x="699" y="628" type="curve" smooth="yes"/>
      <point x="699" y="500.421"/>
      <point x="971.323" y="411.318"/>
      <point x="967" y="224" type="curve" smooth="yes"/>
      <point x="963" y="71"/>
      <point x="803" y="-35"/>
      <point x="673" y="-35" type="curve" smooth="yes"/>
      <point x="522" y="-35"/>
      <point x="439" y="23"/>
      <point x="439" y="82" type="curve" smooth="yes"/>
      <point x="439" y="145"/>
      <point x="482" y="200"/>
      <point x="561" y="208" type="curve"/>
      <point x="598" y="95"/>
      <point x="650" y="54"/>
      <point x="713" y="54" type="curve" smooth="yes"/>
      <point x="774" y="54"/>
      <point x="822" y="88"/>
      <point x="822" y="162" type="curve" smooth="yes"/>
      <point x="822" y="295.679"/>
      <point x="559" y="354.417"/>
      <point x="559" y="560" type="curve" smooth="yes"/>
      <point x="559" y="752.089"/>
      <point x="814.226" y="807.94"/>
      <point x="814.226" y="1014.78" type="curve" smooth="yes"/>
      <point x="814.226" y="1126.66"/>
      <point x="763.753" y="1217.37"/>
      <point x="667.749" y="1217.37" type="curve" smooth="yes"/>
      <point x="519.092" y="1217.37"/>
      <point x="452.415" y="1098.24"/>
    </contour>
  </outline>
</glyph>
<glyph name="ae" format="1">
  <advance width="1171"/>
  <unicode hex="00E6"/>
  <outline>
    <contour>
      <point x="607" y="740" type="line"/>
      <point x="579" y="766"/>
      <point x="514" y="781"/>
      <point x="468" y="781" type="curve" smooth="yes"/>
      <point x="308" y="781"/>
      <point x="208" y="533"/>
      <point x="208" y="320" type="curve" smooth="yes"/>
      <point x="208" y="171"/>
      <point x="250" y="106"/>
      <point x="329" y="106" type="curve" smooth="yes"/>
      <point x="405" y="106"/>
      <point x="476" y="150"/>
      <point x="508" y="208" type="curve"/>
    </contour>
    <contour>
      <point x="248" y="-21" type="curve" smooth="yes"/>
      <point x="126" y="-21"/>
      <point x="47" y="91"/>
      <point x="47" y="274" type="curve" smooth="yes"/>
      <point x="47" y="667"/>
      <point x="336" y="885"/>
      <point x="557" y="885" type="curve" smooth="yes"/>
      <point x="621" y="885"/>
      <point x="690" y="872"/>
      <point x="722" y="855" type="curve"/>
      <point x="737" y="836" type="line"/>
      <point x="733" y="798" type="line"/>
      <point x="789" y="838"/>
      <point x="881" y="890"/>
      <point x="944" y="890" type="curve" smooth="yes"/>
      <point x="1055" y="890"/>
      <point x="1126" y="814"/>
      <point x="1126" y="692" type="curve" smooth="yes"/>
      <point x="1126" y="456"/>
      <point x="845" y="372"/>
      <point x="687" y="396" type="curve"/>
      <point x="682" y="368"/>
      <point x="682" y="342"/>
      <point x="682" y="324" type="curve" smooth="yes"/>
      <point x="682" y="175"/>
      <point x="750" y="102"/>
      <point x="864" y="102" type="curve" smooth="yes"/>
      <point x="917" y="102"/>
      <point x="1029" y="152"/>
      <point x="1054" y="177" type="curve"/>
      <point x="1080" y="132" type="line"/>
      <point x="1035" y="63"/>
      <point x="906" y="-30"/>
      <point x="770" y="-30" type="curve" smooth="yes"/>
      <point x="652" y="-30"/>
      <point x="586" y="35"/>
      <point x="553" y="156" type="curve"/>
      <point x="482" y="48"/>
      <point x="364" y="-21"/>
    </contour>
    <contour>
      <point x="696" y="469" type="curve"/>
      <point x="832" y="453"/>
      <point x="976" y="498"/>
      <point x="976" y="663" type="curve" smooth="yes"/>
      <point x="976" y="734"/>
      <point x="942" y="798"/>
      <point x="884" y="798" type="curve" smooth="yes"/>
      <point x="792" y="798"/>
      <point x="732" y="692"/>
    </contour>
  </outline>
</glyph>
<glyph name="icircumflex" format="1">
  <advance width="698"/>
  <unicode hex="00EE"/>
  <outline>
    <contour>
      <point x="185" y="106" type="line"/>
      <point x="285" y="746" type="line"/>
      <point x="155" y="768" type="line"/>
      <point x="165" y="844" type="line"/>
      <point x="439" y="869" type="line"/>
      <point x="459" y="846" type="line"/>
      <point x="343" y="102" type="line"/>
      <point x="469" y="71" type="line"/>
      <point x="452" y="-2" type="line"/>
      <point x="44" y="-2" type="line"/>
      <point x="62" y="73" type="line"/>
    </contour>
    <component base="circumflex" xOffset="177" yOffset="-342"/>
  </outline>
</glyph>
<glyph name="idieresis" format="1">
  <advance width="584"/>
  <unicode hex="00EF"/>
  <outline>
    <contour>
      <point x="249" y="106" type="line"/>
      <point x="349" y="746" type="line"/>
      <point x="219" y="768" type="line"/>
      <point x="229" y="844" type="line"/>
      <point x="503" y="869" type="line"/>
      <point x="523" y="846" type="line"/>
      <point x="407" y="102" type="line"/>
      <point x="533" y="71" type="line"/>
      <point x="516" y="-2" type="line"/>
      <point x="108" y="-2" type="line"/>
      <point x="126" y="73" type="line"/>
    </contour>
    <component base="dieresis" xOffset="-35" yOffset="-369"/>
  </outline>
</glyph>
<glyph name="eth" format="1">
  <advance width="926"/>
  <unicode hex="00F0"/>
  <outline>
    <contour>
      <point x="231" y="380" type="curve" smooth="yes"/>
      <point x="231" y="194"/>
      <point x="300" y="70"/>
      <point x="413" y="70" type="curve" smooth="yes"/>
      <point x="584" y="70"/>
      <point x="676" y="263"/>
      <point x="676" y="510" type="curve" smooth="yes"/>
      <point x="676" y="694"/>
      <point x="597" y="853"/>
      <point x="499" y="856" type="curve"/>
      <point x="324" y="856"/>
      <point x="231" y="635"/>
    </contour>
    <contour>
      <point x="856" y="598" type="curve" smooth="yes"/>
      <point x="856" y="204"/>
      <point x="653" y="-27"/>
      <point x="375" y="-27" type="curve" smooth="yes"/>
      <point x="141" y="-27"/>
      <point x="47" y="141"/>
      <point x="47" y="340" type="curve" smooth="yes"/>
      <point x="47" y="690"/>
      <point x="290" y="948"/>
      <point x="527" y="948" type="curve" smooth="yes"/>
      <point x="567" y="948"/>
      <point x="651" y="933"/>
      <point x="669" y="857" type="curve"/>
      <point x="676" y="859" type="line"/>
      <point x="671" y="895"/>
      <point x="654" y="985"/>
      <point x="631" y="1078" type="curve"/>
      <point x="397" y="1031" type="line"/>
      <point x="419" y="1106" type="line"/>
      <point x="612" y="1146" type="line"/>
      <point x="593" y="1210"/>
      <point x="572" y="1267"/>
      <point x="549" y="1302" type="curve"/>
      <point x="666" y="1302" type="line"/>
      <point x="696" y="1271"/>
      <point x="723" y="1227"/>
      <point x="748" y="1174" type="curve"/>
      <point x="882" y="1201" type="line"/>
      <point x="860" y="1124" type="line"/>
      <point x="776" y="1107" type="line"/>
      <point x="829" y="964"/>
      <point x="856" y="778"/>
    </contour>
  </outline>
</glyph>
<glyph name="oslash" format="1">
  <advance width="963"/>
  <unicode hex="00F8"/>
  <outline>
    <contour>
      <point x="667" y="552" type="curve" smooth="yes"/>
      <point x="667" y="654"/>
      <point x="635" y="816"/>
      <point x="547" y="816" type="curve" smooth="yes"/>
      <point x="382" y="816"/>
      <point x="307" y="569"/>
      <point x="307" y="320" type="curve" smooth="yes"/>
      <point x="307" y="185"/>
      <point x="349" y="48"/>
      <point x="438" y="48" type="curve" smooth="yes"/>
      <point x="585" y="48"/>
      <point x="667" y="304"/>
    </contour>
    <contour>
      <point x="405" y="-26" type="curve" smooth="yes"/>
      <point x="222" y="-26"/>
      <point x="126" y="129"/>
      <point x="126" y="327" type="curve" smooth="yes"/>
      <point x="126" y="608"/>
      <point x="319" y="893"/>
      <point x="590" y="893" type="curve" smooth="yes"/>
      <point x="773" y="893"/>
      <point x="843" y="715"/>
      <point x="843" y="537" type="curve" smooth="yes"/>
      <point x="843" y="261"/>
      <point x="664" y="-26"/>
    </contour>
    <contour>
      <point x="42" y="-46" type="line"/>
      <point x="198" y="141" type="line"/>
      <point x="242" y="157" type="line"/>
      <point x="668" y="727" type="line"/>
      <point x="666" y="765" type="line"/>
      <point x="767" y="897" type="line"/>
      <point x="922" y="904" type="line"/>
      <point x="771" y="705" type="line"/>
      <point x="712" y="670" type="line"/>
      <point x="288" y="109" type="line"/>
      <point x="297" y="78" type="line"/>
      <point x="205" y="-41" type="line"/>
    </contour>
  </outline>
</glyph>
<glyph name="thorn" format="1">
  <advance width="1022"/>
  <unicode hex="00FE"/>
  <outline>
    <contour>
      <point x="482" y="662" type="curve"/>
      <point x="341" y="-263" type="line"/>
      <point x="496" y="-294" type="line"/>
      <point x="478" y="-365" type="line"/>
      <point x="42" y="-365" type="line"/>
      <point x="62" y="-291" type="line"/>
      <point x="182" y="-258" type="line"/>
      <point x="389" y="1126" type="line"/>
      <point x="255" y="1149" type="line"/>
      <point x="267" y="1225" type="line"/>
      <point x="548" y="1250" type="line"/>
      <point x="570" y="1227" type="line"/>
      <point x="509" y="847" type="line"/>
      <point x="480" y="722" type="line"/>
      <point x="490" y="722" type="line"/>
      <point x="532" y="801"/>
      <point x="645" y="890"/>
      <point x="736" y="890" type="curve" smooth="yes"/>
      <point x="868" y="890"/>
      <point x="973" y="733"/>
      <point x="973" y="532" type="curve" smooth="yes"/>
      <point x="973" y="185"/>
      <point x="736" y="-18"/>
      <point x="498" y="-18" type="curve" smooth="yes"/>
      <point x="472" y="-18"/>
      <point x="423" y="-17"/>
      <point x="405" y="-7" type="curve"/>
      <point x="427" y="107" type="line"/>
      <point x="447" y="97"/>
      <point x="494" y="89"/>
      <point x="514" y="89" type="curve" smooth="yes"/>
      <point x="616" y="89"/>
      <point x="798" y="111"/>
      <point x="798" y="486" type="curve" smooth="yes"/>
      <point x="798" y="651"/>
      <point x="734" y="746"/>
      <point x="666" y="746" type="curve" smooth="yes"/>
      <point x="556" y="746"/>
      <point x="482" y="662"/>
    </contour>
  </outline>
</glyph>
<glyph name="Ccaron" format="1">
  <advance width="1153"/>
  <unicode hex="010C"/>
  <outline>
    <contour>
      <point x="154.288" y="589" type="curve" smooth="yes"/>
      <point x="201.012" y="884"/>
      <point x="446.99" y="1269"/>
      <point x="904.99" y="1269" type="curve" smooth="yes"/>
      <point x="1036.99" y="1269"/>
      <point x="1166.71" y="1242"/>
      <point x="1251.15" y="1169" type="curve"/>
      <point x="1167.57" y="837" type="line"/>
      <point x="1081.63" y="850" type="line"/>
      <point x="1074.47" y="1070" type="line"/>
      <point x="1037.82" y="1129"/>
      <point x="961.943" y="1174"/>
      <point x="832.943" y="1174" type="curve" smooth="yes"/>
      <point x="624.943" y="1174"/>
      <point x="430.217" y="980"/>
      <point x="379.217" y="658" type="curve" smooth="yes"/>
      <point x="322.357" y="299"/>
      <point x="508.581" y="111"/>
      <point x="745.581" y="111" type="curve" smooth="yes"/>
      <point x="879.581" y="111"/>
      <point x="1020.83" y="182"/>
      <point x="1119.34" y="261" type="curve"/>
      <point x="1142.3" y="185" type="line"/>
      <point x="1048.1" y="89"/>
      <point x="855.199" y="-24"/>
      <point x="647.199" y="-24" type="curve" smooth="yes"/>
      <point x="340.199" y="-24"/>
      <point x="91.0928" y="190"/>
    </contour>
    <contour>
      <point x="713.854" y="1527" type="line"/>
      <point x="803.673" y="1589" type="line"/>
      <point x="929.865" y="1445" type="line"/>
      <point x="940.865" y="1445" type="line"/>
      <point x="1086.04" y="1585" type="line"/>
      <point x="1125.29" y="1555" type="line"/>
      <point x="923.938" y="1376" type="line"/>
      <point x="866.562" y="1361" type="line"/>
    </contour>
  </outline>
</glyph>
<glyph name="ecaron" format="1">
  <advance width="802"/>
  <unicode hex="011B"/>
  <outline>
    <contour>
      <point x="120.788" y="428" type="curve" smooth="yes"/>
      <point x="168.304" y="728"/>
      <point x="412.388" y="899"/>
      <point x="606.388" y="899" type="curve" smooth="yes"/>
      <point x="751.388" y="899"/>
      <point x="856.44" y="792"/>
      <point x="823.021" y="581" type="curve" smooth="yes"/>
      <point x="818.111" y="550"/>
      <point x="799.816" y="485"/>
      <point x="786.432" y="451" type="curve"/>
      <point x="301.481" y="445" type="line"/>
      <point x="284.614" y="288"/>
      <point x="339.155" y="102"/>
      <point x="526.155" y="102" type="curve" smooth="yes"/>
      <point x="532.155" y="102" type="line" smooth="yes"/>
      <point x="599.155" y="102"/>
      <point x="653.313" y="103"/>
      <point x="761.866" y="157" type="curve"/>
      <point x="774.472" y="104" type="line"/>
      <point x="682.326" y="21"/>
      <point x="556.248" y="-30"/>
      <point x="424.248" y="-30" type="curve" smooth="yes"/>
      <point x="236.248" y="-30"/>
      <point x="72.6396" y="124"/>
    </contour>
    <contour>
      <point x="401.567" y="1159" type="line"/>
      <point x="491.229" y="1220" type="line"/>
      <point x="618.58" y="1077" type="line"/>
      <point x="628.58" y="1077" type="line"/>
      <point x="773.754" y="1217" type="line"/>
      <point x="811.844" y="1186" type="line"/>
      <point x="611.493" y="1007" type="line"/>
      <point x="554.275" y="993" type="line"/>
    </contour>
    <contour>
      <point x="315.835" y="523" type="curve"/>
      <point x="633.478" y="546" type="line"/>
      <point x="640.012" y="562"/>
      <point x="647.872" y="599"/>
      <point x="650.406" y="615" type="curve" smooth="yes"/>
      <point x="669.254" y="734"/>
      <point x="637.866" y="801"/>
      <point x="541.866" y="801" type="curve" smooth="yes"/>
      <point x="461.866" y="801"/>
      <point x="356.562" y="717"/>
    </contour>
  </outline>
</glyph>
<glyph name="OE" format="1">
  <advance width="1708"/>
  <unicode hex="0152"/>
  <outline>
    <contour>
      <point x="162.04" y="619" type="curve" smooth="yes"/>
      <point x="223.81" y="1009"/>
      <point x="467.465" y="1272"/>
      <point x="861.465" y="1272" type="curve" smooth="yes"/>
      <point x="931.465" y="1272"/>
      <point x="992.039" y="1263"/>
      <point x="1042.03" y="1244" type="curve"/>
      <point x="1819.03" y="1244" type="line"/>
      <point x="1736.35" y="924" type="line"/>
      <point x="1652.41" y="937" type="line"/>
      <point x="1646.46" y="1152" type="line"/>
      <point x="1177.46" y="1152" type="line"/>
      <point x="1102.07" y="676" type="line"/>
      <point x="1390.07" y="676" type="line"/>
      <point x="1451.07" y="796" type="line"/>
      <point x="1547.29" y="810" type="line"/>
      <point x="1453.68" y="421" type="line"/>
      <point x="1364.62" y="408" type="line"/>
      <point x="1359.34" y="583" type="line"/>
      <point x="1087.34" y="583" type="line"/>
      <point x="1010.21" y="96" type="line"/>
      <point x="1502.21" y="96" type="line"/>
      <point x="1636.63" y="326" type="line"/>
      <point x="1717.57" y="313" type="line"/>
      <point x="1639" y="0" type="line"/>
      <point x="798" y="0" type="line"/>
      <point x="729.466" y="-16"/>
      <point x="658.724" y="-27"/>
      <point x="585.724" y="-27" type="curve" smooth="yes"/>
      <point x="247.724" y="-27"/>
      <point x="103.121" y="247"/>
    </contour>
    <contour>
      <point x="393.068" y="676" type="curve" smooth="yes"/>
      <point x="351.729" y="415"/>
      <point x="385.513" y="79"/>
      <point x="645.513" y="79" type="curve" smooth="yes"/>
      <point x="704.513" y="79"/>
      <point x="763.571" y="92"/>
      <point x="821.323" y="122" type="curve"/>
      <point x="980.341" y="1126" type="line"/>
      <point x="929.567" y="1159"/>
      <point x="867.26" y="1176"/>
      <point x="797.26" y="1176" type="curve" smooth="yes"/>
      <point x="579.26" y="1176"/>
      <point x="445.969" y="1010"/>
    </contour>
  </outline>
</glyph>
<glyph name="oe" format="1">
  <advance width="1407"/>
  <unicode hex="0153"/>
  <outline>
    <contour>
      <point x="121.472" y="426" type="curve" smooth="yes"/>
      <point x="169.621" y="730"/>
      <point x="384.546" y="900"/>
      <point x="607.546" y="900" type="curve" smooth="yes"/>
      <point x="731.546" y="900"/>
      <point x="850.717" y="819"/>
      <point x="871.571" y="736" type="curve"/>
      <point x="946.717" y="819"/>
      <point x="1072.39" y="899"/>
      <point x="1210.39" y="899" type="curve" smooth="yes"/>
      <point x="1355.39" y="899"/>
      <point x="1460.44" y="792"/>
      <point x="1427.02" y="581" type="curve" smooth="yes"/>
      <point x="1422.11" y="550"/>
      <point x="1402.82" y="485"/>
      <point x="1389.43" y="451" type="curve"/>
      <point x="906.481" y="445" type="line"/>
      <point x="880.506" y="281"/>
      <point x="947.729" y="93"/>
      <point x="1128.73" y="93" type="curve" smooth="yes"/>
      <point x="1198.73" y="93"/>
      <point x="1250" y="101"/>
      <point x="1362.87" y="157" type="curve"/>
      <point x="1379.47" y="104" type="line"/>
      <point x="1287.33" y="21"/>
      <point x="1159.25" y="-30"/>
      <point x="1027.25" y="-30" type="curve" smooth="yes"/>
      <point x="896.248" y="-30"/>
      <point x="814.177" y="39"/>
      <point x="758.748" y="131" type="curve"/>
      <point x="651.851" y="18"/>
      <point x="557.565" y="-28"/>
      <point x="436.565" y="-28" type="curve" smooth="yes"/>
      <point x="172.565" y="-28"/>
      <point x="80.7666" y="169"/>
    </contour>
    <contour>
      <point x="311.717" y="497" type="curve" smooth="yes"/>
      <point x="279.09" y="291"/>
      <point x="323.037" y="76"/>
      <point x="487.037" y="76" type="curve" smooth="yes"/>
      <point x="595.037" y="76"/>
      <point x="691.527" y="218"/>
      <point x="713.86" y="359" type="curve" smooth="yes"/>
      <point x="745.22" y="557"/>
      <point x="721.866" y="801"/>
      <point x="550.866" y="801" type="curve" smooth="yes"/>
      <point x="399.866" y="801"/>
      <point x="336.583" y="654"/>
    </contour>
    <contour>
      <point x="920.469" y="527" type="curve"/>
      <point x="1237.95" y="549" type="line"/>
      <point x="1244.49" y="565"/>
      <point x="1252.87" y="599"/>
      <point x="1255.41" y="615" type="curve" smooth="yes"/>
      <point x="1274.25" y="734"/>
      <point x="1241.87" y="801"/>
      <point x="1145.87" y="801" type="curve" smooth="yes"/>
      <point x="1065.87" y="801"/>
      <point x="961.195" y="721"/>
    </contour>
  </outline>
</glyph>
<glyph name="rcaron" format="1">
  <advance width="735"/>
  <unicode hex="0159"/>
  <outline>
    <contour>
      <point x="40" y="0" type="line"/>
      <point x="61.7207" y="74" type="line"/>
      <point x="221.056" y="114" type="line"/>
      <point x="318.304" y="728" type="line"/>
      <point x="163.064" y="777" type="line"/>
      <point x="189.102" y="853" type="line"/>
      <point x="481.962" y="890" type="line"/>
      <point x="497.161" y="866" type="line"/>
      <point x="444.732" y="636" type="line"/>
      <point x="463.732" y="636" type="line"/>
      <point x="545.4" y="817"/>
      <point x="658.496" y="906"/>
      <point x="741.496" y="906" type="curve" smooth="yes"/>
      <point x="815.496" y="906"/>
      <point x="852.943" y="852"/>
      <point x="843.599" y="793" type="curve" smooth="yes"/>
      <point x="836.788" y="750"/>
      <point x="805.295" y="709"/>
      <point x="746.593" y="673" type="curve"/>
      <point x="717.344" y="703"/>
      <point x="680.354" y="722"/>
      <point x="644.354" y="722" type="curve" smooth="yes"/>
      <point x="591.354" y="722"/>
      <point x="493.742" y="655"/>
      <point x="448.826" y="504" type="curve"/>
      <point x="388.164" y="121" type="line"/>
      <point x="615.779" y="87" type="line"/>
      <point x="592" y="0" type="line"/>
    </contour>
    <contour>
      <point x="389.567" y="1159" type="line"/>
      <point x="480.229" y="1220" type="line"/>
      <point x="606.58" y="1077" type="line"/>
      <point x="615.58" y="1077" type="line"/>
      <point x="760.754" y="1217" type="line"/>
      <point x="799.844" y="1186" type="line"/>
      <point x="600.493" y="1007" type="line"/>
      <point x="543.275" y="993" type="line"/>
    </contour>
  </outline>
</glyph>
<glyph name="Scaron" format="1">
  <advance width="900"/>
  <unicode hex="0160"/>
  <outline>
    <contour>
      <point x="85.3232" y="122" type="curve"/>
      <point x="140.611" y="389" type="line"/>
      <point x="240.395" y="375" type="line"/>
      <point x="249.618" y="187" type="line"/>
      <point x="276.59" y="130"/>
      <point x="345.195" y="77"/>
      <point x="438.195" y="77" type="curve" smooth="yes"/>
      <point x="543.195" y="77"/>
      <point x="685.016" y="139"/>
      <point x="708.456" y="287" type="curve" smooth="yes"/>
      <point x="749.637" y="547"/>
      <point x="176.161" y="544"/>
      <point x="235.08" y="916" type="curve" smooth="yes"/>
      <point x="271.033" y="1143"/>
      <point x="482.99" y="1269"/>
      <point x="679.99" y="1269" type="curve" smooth="yes"/>
      <point x="787.99" y="1269"/>
      <point x="877.604" y="1235"/>
      <point x="946.151" y="1169" type="curve"/>
      <point x="944.885" y="1161"/>
      <point x="879.487" y="887"/>
      <point x="879.487" y="887" type="curve"/>
      <point x="782.388" y="899" type="line"/>
      <point x="787.639" y="1090" type="line"/>
      <point x="775.341" y="1126"/>
      <point x="712.686" y="1185"/>
      <point x="632.686" y="1185" type="curve" smooth="yes"/>
      <point x="532.686" y="1185"/>
      <point x="441.341" y="1126"/>
      <point x="420.593" y="995" type="curve" smooth="yes"/>
      <point x="375.136" y="708"/>
      <point x="962.621" y="730"/>
      <point x="903.068" y="354" type="curve" smooth="yes"/>
      <point x="866.64" y="124"/>
      <point x="626.199" y="-24"/>
      <point x="398.199" y="-24" type="curve" smooth="yes"/>
      <point x="254.199" y="-24"/>
      <point x="136.811" y="43"/>
    </contour>
    <contour>
      <point x="496.694" y="1526" type="line"/>
      <point x="586.356" y="1587" type="line"/>
      <point x="712.549" y="1443" type="line"/>
      <point x="722.549" y="1443" type="line"/>
      <point x="868.881" y="1584" type="line"/>
      <point x="906.971" y="1553" type="line"/>
      <point x="706.462" y="1373" type="line"/>
      <point x="649.402" y="1360" type="line"/>
    </contour>
  </outline>
</glyph>
<glyph name="circumflex" format="1">
  <advance width="560"/>
  <unicode hex="02C6"/>
  <outline>
    <contour>
      <point x="79" y="1387" type="line"/>
      <point x="247" y="1566" type="line"/>
      <point x="302" y="1581" type="line"/>
      <point x="480" y="1395" type="line"/>
      <point x="431" y="1358" type="line"/>
      <point x="268" y="1468" type="line"/>
      <point x="257" y="1468" type="line"/>
      <point x="118" y="1357" type="line"/>
    </contour>
  </outline>
</glyph>
<glyph name="dotaccent" format="1">
  <advance width="404"/>
  <unicode hex="02D9"/>
  <outline>
    <contour>
      <point x="81" y="1479" type="curve" smooth="yes"/>
      <point x="81" y="1543"/>
      <point x="138" y="1593"/>
      <point x="200" y="1593" type="curve" smooth="yes"/>
      <point x="266" y="1593"/>
      <point x="323" y="1542"/>
      <point x="323" y="1478" type="curve" smooth="yes"/>
      <point x="323" y="1411"/>
      <point x="266" y="1355"/>
      <point x="200" y="1355" type="curve" smooth="yes"/>
      <point x="134" y="1355"/>
      <point x="81" y="1412"/>
    </contour>
  </outline>
</glyph>
<glyph name="ring" format="1">
  <advance width="509"/>
  <unicode hex="02DA"/>
  <outline>
    <contour>
      <point x="81" y="1527" type="curve" smooth="yes"/>
      <point x="81" y="1619"/>
      <point x="168" y="1699"/>
      <point x="261" y="1699" type="curve" smooth="yes"/>
      <point x="357" y="1699"/>
      <point x="429" y="1629"/>
      <point x="429" y="1536" type="curve" smooth="yes"/>
      <point x="429" y="1446"/>
      <point x="350" y="1361"/>
      <point x="248" y="1361" type="curve" smooth="yes"/>
      <point x="156" y="1361"/>
      <point x="81" y="1425"/>
    </contour>
    <contour>
      <point x="171" y="1538" type="curve" smooth="yes"/>
      <point x="171" y="1477"/>
      <point x="196" y="1416"/>
      <point x="260" y="1416" type="curve" smooth="yes"/>
      <point x="314" y="1416"/>
      <point x="340" y="1451"/>
      <point x="340" y="1524" type="curve" smooth="yes"/>
      <point x="340" y="1586"/>
      <point x="312" y="1645"/>
      <point x="250" y="1645" type="curve" smooth="yes"/>
      <point x="191" y="1645"/>
      <point x="171" y="1594"/>
    </contour>
  </outline>
</glyph>
<glyph name="Germandbls" format="1">
  <advance width="1394"/>
  <unicode hex="1E9E"/>
  <outline>
    <contour>
      <point x="44" y="0" type="line"/>
      <point x="64" y="73" type="line"/>
      <point x="235" y="119" type="line"/>
      <point x="335" y="751" type="line" smooth="yes"/>
      <point x="391" y="1102"/>
      <point x="609" y="1250"/>
      <point x="905" y="1250" type="curve" smooth="yes"/>
      <point x="1090" y="1250"/>
      <point x="1378" y="1208"/>
      <point x="1350" y="1032" type="curve" smooth="yes"/>
      <point x="1338" y="956"/>
      <point x="1291" y="923"/>
      <point x="1209" y="897" type="curve"/>
      <point x="1189" y="1001"/>
      <point x="1170" y="1112"/>
      <point x="1056" y="1112" type="curve" smooth="yes"/>
      <point x="972" y="1112"/>
      <point x="872" y="1028"/>
      <point x="856" y="928" type="curve" smooth="yes"/>
      <point x="810" y="637"/>
      <point x="1358" y="680"/>
      <point x="1300" y="316" type="curve" smooth="yes"/>
      <point x="1264" y="90"/>
      <point x="1064" y="-24"/>
      <point x="840" y="-24" type="curve" smooth="yes"/>
      <point x="698" y="-24"/>
      <point x="572" y="30"/>
      <point x="531" y="121" type="curve"/>
      <point x="585" y="376" type="line"/>
      <point x="677" y="361" type="line"/>
      <point x="684" y="184" type="line"/>
      <point x="711" y="127"/>
      <point x="787" y="76"/>
      <point x="879" y="76" type="curve" smooth="yes"/>
      <point x="983" y="76"/>
      <point x="1086" y="110"/>
      <point x="1108" y="250" type="curve" smooth="yes"/>
      <point x="1148" y="503"/>
      <point x="613" y="468"/>
      <point x="670" y="829" type="curve" smooth="yes"/>
      <point x="696" y="992"/>
      <point x="817" y="1123"/>
      <point x="962" y="1155" type="curve"/>
      <point x="964" y="1158" type="line"/>
      <point x="945" y="1160"/>
      <point x="897" y="1161"/>
      <point x="878" y="1161" type="curve" smooth="yes"/>
      <point x="683" y="1161"/>
      <point x="568" y="1027"/>
      <point x="528" y="774" type="curve" smooth="yes"/>
      <point x="407" y="0" type="line"/>
    </contour>
  </outline>
</glyph>
<glyph name="endash" format="1">
  <advance width="748"/>
  <unicode hex="2013"/>
  <outline>
    <contour>
      <point x="61" y="409" type="line"/>
      <point x="76" y="513" type="line"/>
      <point x="687" y="520" type="line"/>
      <point x="671" y="415" type="line"/>
    </contour>
  </outline>
</glyph>
<glyph name="emdash" format="1">
  <advance width="1258"/>
  <unicode hex="2014"/>
  <outline>
    <contour>
      <point x="61" y="409" type="line"/>
      <point x="76" y="513" type="line"/>
      <point x="1197" y="520" type="line"/>
      <point x="1181" y="415" type="line"/>
    </contour>
  </outline>
</glyph>
<glyph name="quotedblleft" format="1">
  <advance width="742"/>
  <unicode hex="201C"/>
  <outline>
    <contour>
      <point x="59" y="964" type="curve" smooth="yes"/>
      <point x="59" y="1057"/>
      <point x="93" y="1217"/>
      <point x="356" y="1287" type="curve"/>
      <point x="377" y="1219" type="line"/>
      <point x="246" y="1185"/>
      <point x="196" y="1109"/>
      <point x="196" y="1045" type="curve" smooth="yes"/>
      <point x="196" y="989"/>
      <point x="243" y="938"/>
      <point x="313" y="938" type="curve" smooth="yes"/>
      <point x="323" y="938"/>
      <point x="333" y="939"/>
      <point x="343" y="940" type="curve"/>
      <point x="351" y="919"/>
      <point x="357" y="901"/>
      <point x="357" y="878" type="curve" smooth="yes"/>
      <point x="357" y="798"/>
      <point x="285" y="756"/>
      <point x="235" y="756" type="curve" smooth="yes"/>
      <point x="165" y="756"/>
      <point x="59" y="813"/>
    </contour>
    <contour>
      <point x="374" y="964" type="curve" smooth="yes"/>
      <point x="374" y="1057"/>
      <point x="408" y="1217"/>
      <point x="671" y="1287" type="curve"/>
      <point x="693" y="1219" type="line"/>
      <point x="562" y="1185"/>
      <point x="512" y="1109"/>
      <point x="512" y="1045" type="curve" smooth="yes"/>
      <point x="512" y="989"/>
      <point x="558" y="938"/>
      <point x="628" y="938" type="curve" smooth="yes"/>
      <point x="638" y="938"/>
      <point x="647" y="939"/>
      <point x="657" y="940" type="curve"/>
      <point x="665" y="919"/>
      <point x="671" y="901"/>
      <point x="671" y="878" type="curve" smooth="yes"/>
      <point x="671" y="798"/>
      <point x="599" y="756"/>
      <point x="549" y="756" type="curve" smooth="yes"/>
      <point x="479" y="756"/>
      <point x="374" y="813"/>
    </contour>
  </outline>
</glyph>
<glyph name="quotedblright" format="1">
  <advance width="747"/>
  <unicode hex="201D"/>
  <outline>
    <contour>
      <point x="61" y="824" type="line"/>
      <point x="192" y="858"/>
      <point x="242" y="934"/>
      <point x="242" y="998" type="curve" smooth="yes"/>
      <point x="242" y="1054"/>
      <point x="197" y="1104"/>
      <point x="127" y="1104" type="curve" smooth="yes"/>
      <point x="117" y="1104"/>
      <point x="107" y="1104"/>
      <point x="97" y="1103" type="curve"/>
      <point x="89" y="1124"/>
      <point x="82" y="1143"/>
      <point x="82" y="1166" type="curve" smooth="yes"/>
      <point x="82" y="1246"/>
      <point x="155" y="1286"/>
      <point x="205" y="1286" type="curve" smooth="yes"/>
      <point x="275" y="1286"/>
      <point x="380" y="1229"/>
      <point x="380" y="1078" type="curve" smooth="yes"/>
      <point x="380" y="985"/>
      <point x="347" y="825"/>
      <point x="84" y="755" type="curve"/>
    </contour>
    <contour>
      <point x="379" y="824" type="line"/>
      <point x="510" y="858"/>
      <point x="560" y="934"/>
      <point x="560" y="998" type="curve" smooth="yes"/>
      <point x="560" y="1054"/>
      <point x="514" y="1104"/>
      <point x="444" y="1104" type="curve" smooth="yes"/>
      <point x="434" y="1104"/>
      <point x="424" y="1104"/>
      <point x="414" y="1103" type="curve"/>
      <point x="406" y="1124"/>
      <point x="399" y="1143"/>
      <point x="399" y="1166" type="curve" smooth="yes"/>
      <point x="399" y="1246"/>
      <point x="472" y="1286"/>
      <point x="522" y="1286" type="curve" smooth="yes"/>
      <point x="592" y="1286"/>
      <point x="697" y="1229"/>
      <point x="697" y="1078" type="curve" smooth="yes"/>
      <point x="697" y="985"/>
      <point x="664" y="825"/>
      <point x="401" y="755" type="curve"/>
    </contour>
  </outline>
</glyph>
<glyph name="quotedblbase" format="1">
  <advance width="749"/>
  <unicode hex="201E"/>
  <outline>
    <contour>
      <point x="54" y="-254" type="line"/>
      <point x="185" y="-220"/>
      <point x="236" y="-144"/>
      <point x="236" y="-80" type="curve" smooth="yes"/>
      <point x="236" y="-24"/>
      <point x="190" y="27"/>
      <point x="120" y="27" type="curve" smooth="yes"/>
      <point x="110" y="27"/>
      <point x="100" y="25"/>
      <point x="90" y="24" type="curve"/>
      <point x="82" y="45"/>
      <point x="76" y="64"/>
      <point x="76" y="87" type="curve" smooth="yes"/>
      <point x="76" y="167"/>
      <point x="148" y="208"/>
      <point x="198" y="208" type="curve" smooth="yes"/>
      <point x="268" y="208"/>
      <point x="372" y="151"/>
      <point x="372" y="0" type="curve" smooth="yes"/>
      <point x="372" y="-93"/>
      <point x="340" y="-253"/>
      <point x="77" y="-323" type="curve"/>
    </contour>
    <contour>
      <point x="372" y="-254" type="line"/>
      <point x="503" y="-220"/>
      <point x="553" y="-144"/>
      <point x="553" y="-80" type="curve" smooth="yes"/>
      <point x="553" y="-24"/>
      <point x="508" y="27"/>
      <point x="438" y="27" type="curve" smooth="yes"/>
      <point x="428" y="27"/>
      <point x="418" y="25"/>
      <point x="408" y="24" type="curve"/>
      <point x="400" y="45"/>
      <point x="393" y="64"/>
      <point x="393" y="87" type="curve" smooth="yes"/>
      <point x="393" y="167"/>
      <point x="466" y="208"/>
      <point x="516" y="208" type="curve" smooth="yes"/>
      <point x="586" y="208"/>
      <point x="691" y="151"/>
      <point x="691" y="0" type="curve" smooth="yes"/>
      <point x="691" y="-93"/>
      <point x="658" y="-253"/>
      <point x="395" y="-323" type="curve"/>
    </contour>
  </outline>
</glyph>
<glyph name="dagger" format="1">
  <advance width="818"/>
  <unicode hex="2020"/>
  <outline>
    <contour>
      <point x="47" y="712" type="line"/>
      <point x="55" y="827" type="line"/>
      <point x="352" y="819" type="line"/>
      <point x="344" y="1255" type="line"/>
      <point x="477" y="1244" type="line"/>
      <point x="468" y="819" type="line"/>
      <point x="774" y="827" type="line"/>
      <point x="766" y="705" type="line"/>
      <point x="468" y="716" type="line"/>
      <point x="483" y="-363" type="line"/>
      <point x="338" y="-351" type="line"/>
      <point x="352" y="718" type="line"/>
    </contour>
  </outline>
</glyph>
<glyph name="guilsinglleft" format="1">
  <advance width="415"/>
  <unicode hex="2039"/>
  <outline>
    <contour>
      <point x="49" y="469" type="line"/>
      <point x="318" y="820" type="line"/>
      <point x="361" y="761" type="line"/>
      <point x="197" y="461" type="line"/>
      <point x="364" y="141" type="line"/>
      <point x="312" y="77" type="line"/>
      <point x="50" y="449" type="line"/>
    </contour>
  </outline>
</glyph>
<glyph name="trademark" format="1">
  <advance width="1146"/>
  <unicode hex="2122"/>
  <outline>
    <contour>
      <point x="648.616" y="684.2" type="line"/>
      <point x="662.009" y="737.5" type="line"/>
      <point x="740.509" y="758.65" type="line"/>
      <point x="838.652" y="1170.9" type="line"/>
      <point x="759.296" y="1189.8" type="line"/>
      <point x="772.38" y="1244" type="line"/>
      <point x="1011.83" y="1244" type="line"/>
      <point x="1033.1" y="1156.7" type="line"/>
      <point x="1083.42" y="852.8" type="line"/>
      <point x="1242.41" y="1171.55" type="line"/>
      <point x="1285.83" y="1244" type="line"/>
      <point x="1513.58" y="1244" type="line"/>
      <point x="1500.5" y="1189.8" type="line"/>
      <point x="1422.19" y="1172.7" type="line"/>
      <point x="1379.51" y="755.5" type="line"/>
      <point x="1458.99" y="740.2" type="line"/>
      <point x="1445.62" y="684.2" type="line"/>
      <point x="1174.42" y="684.2" type="line"/>
      <point x="1187.81" y="737.5" type="line"/>
      <point x="1265.86" y="758.65" type="line"/>
      <point x="1300.42" y="1136" type="line"/>
      <point x="1092.14" y="707.7" type="line"/>
      <point x="994.185" y="699.15" type="line"/>
      <point x="905.388" y="1119.35" type="line"/>
      <point x="819.409" y="755.5" type="line"/>
      <point x="899.336" y="740.2" type="line"/>
      <point x="884.616" y="684.2" type="line"/>
    </contour>
    <contour>
      <point x="200.03" y="1244" type="line"/>
      <point x="739.98" y="1244" type="line"/>
      <point x="697.422" y="1071.9" type="line"/>
      <point x="635.741" y="1078.65" type="line"/>
      <point x="635.105" y="1182.6" type="line"/>
      <point x="512.855" y="1182.6" type="line"/>
      <point x="445.209" y="755.5" type="line"/>
      <point x="526.036" y="740.2" type="line"/>
      <point x="510.866" y="684.2" type="line"/>
      <point x="238.316" y="684.2" type="line"/>
      <point x="249.908" y="737.5" type="line"/>
      <point x="329.309" y="758.65" type="line"/>
      <point x="396.455" y="1182.6" type="line"/>
      <point x="278.706" y="1182.6" type="line"/>
      <point x="237.536" y="1073.25" type="line"/>
      <point x="177.513" y="1079.1" type="line"/>
    </contour>
  </outline>
</glyph>
<glyph name="f.i" format="1">
  <advance width="1075"/>
  <unicode hex="F001"/>
  <outline>
    <contour>
      <point x="385" y="135" type="line" smooth="yes"/>
      <point x="374" y="25"/>
      <point x="350.574" y="-37.7142"/>
      <point x="335" y="-60" type="curve"/>
      <point x="179" y="-60" type="line"/>
      <point x="195.034" y="-30.7224"/>
      <point x="212" y="-5"/>
      <point x="222" y="99" type="curve" smooth="yes"/>
      <point x="288" y="768" type="line"/>
      <point x="135" y="768" type="line"/>
      <point x="149" y="836" type="line"/>
      <point x="306" y="872" type="line"/>
      <point x="352.297" y="1118"/>
      <point x="571.703" y="1306"/>
      <point x="774" y="1306" type="curve" smooth="yes"/>
      <point x="900" y="1306"/>
      <point x="961" y="1259"/>
      <point x="961" y="1173" type="curve" smooth="yes"/>
      <point x="961" y="1134"/>
      <point x="933" y="1084"/>
      <point x="869" y="1060" type="curve"/>
      <point x="835" y="1103"/>
      <point x="747" y="1178"/>
      <point x="673" y="1178" type="curve" smooth="yes"/>
      <point x="575" y="1178"/>
      <point x="506" y="1128"/>
      <point x="476" y="956" type="curve" smooth="yes"/>
      <point x="459" y="858" type="line"/>
      <point x="522" y="866"/>
      <point x="759" y="886"/>
      <point x="862" y="886" type="curve" smooth="yes"/>
      <point x="994" y="886"/>
      <point x="1007" y="817"/>
      <point x="989" y="693" type="curve" smooth="yes"/>
      <point x="943" y="378" type="line" smooth="yes"/>
      <point x="929" y="281"/>
      <point x="920" y="216"/>
      <point x="920" y="172" type="curve" smooth="yes"/>
      <point x="920" y="95"/>
      <point x="978" y="94"/>
      <point x="1047" y="96" type="curve"/>
      <point x="1039" y="15" type="line"/>
      <point x="1010" y="0"/>
      <point x="954" y="-17"/>
      <point x="898" y="-17" type="curve" smooth="yes"/>
      <point x="766" y="-17"/>
      <point x="738" y="47"/>
      <point x="760" y="194" type="curve" smooth="yes"/>
      <point x="828" y="659" type="line" smooth="yes"/>
      <point x="840.842" y="732.979"/>
      <point x="781" y="754"/>
      <point x="690" y="758" type="curve" smooth="yes"/>
      <point x="450" y="768" type="line"/>
    </contour>
  </outline>
</glyph>
<glyph name="f.l" format="1">
  <advance width="1121"/>
  <unicode hex="F002"/>
  <outline>
    <contour>
      <point x="755" y="194" type="curve" smooth="yes"/>
      <point x="904" y="1132" type="line"/>
      <point x="876" y="1156"/>
      <point x="774" y="1178"/>
      <point x="713" y="1178" type="curve" smooth="yes"/>
      <point x="605" y="1178"/>
      <point x="506" y="1130"/>
      <point x="476" y="956" type="curve" smooth="yes"/>
      <point x="459" y="858" type="line"/>
      <point x="750" y="858" type="line"/>
      <point x="726" y="768" type="line"/>
      <point x="450" y="768" type="line"/>
      <point x="385" y="135" type="line" smooth="yes"/>
      <point x="374" y="25"/>
      <point x="350.574" y="-37.7142"/>
      <point x="335" y="-60" type="curve"/>
      <point x="179" y="-60" type="line"/>
      <point x="195.034" y="-30.7224"/>
      <point x="212" y="-5"/>
      <point x="222" y="99" type="curve" smooth="yes"/>
      <point x="288" y="768" type="line"/>
      <point x="135" y="768" type="line"/>
      <point x="149" y="836" type="line"/>
      <point x="306" y="872" type="line"/>
      <point x="353" y="1118"/>
      <point x="597" y="1306"/>
      <point x="754" y="1306" type="curve" smooth="yes"/>
      <point x="956" y="1306"/>
      <point x="1066" y="1212"/>
      <point x="1078" y="1172" type="curve"/>
      <point x="938" y="378" type="line" smooth="yes"/>
      <point x="921" y="283"/>
      <point x="915" y="216"/>
      <point x="915" y="172" type="curve" smooth="yes"/>
      <point x="915" y="95"/>
      <point x="973" y="94"/>
      <point x="1042" y="96" type="curve"/>
      <point x="1034" y="15" type="line"/>
      <point x="1005" y="0"/>
      <point x="949" y="-17"/>
      <point x="893" y="-17" type="curve" smooth="yes"/>
      <point x="761" y="-17"/>
      <point x="732" y="48"/>
    </contour>
  </outline>
</glyph>
<glyph name="Germandbls.alt" format="1">
  <advance width="1387"/>
  <outline>
    <contour>
      <point x="43" y="0" type="line"/>
      <point x="63" y="73" type="line"/>
      <point x="235" y="119" type="line"/>
      <point x="323" y="678" type="line" smooth="yes"/>
      <point x="392" y="1115"/>
      <point x="608" y="1250"/>
      <point x="904" y="1250" type="curve" smooth="yes"/>
      <point x="1067" y="1250"/>
      <point x="1289" y="1232"/>
      <point x="1344" y="1213" type="curve"/>
      <point x="1334" y="1142" type="line"/>
      <point x="972" y="751" type="line"/>
      <point x="1044" y="693"/>
      <point x="1307" y="587"/>
      <point x="1307" y="361" type="curve" smooth="yes"/>
      <point x="1307" y="100"/>
      <point x="1068" y="-24"/>
      <point x="839" y="-24" type="curve" smooth="yes"/>
      <point x="697" y="-24"/>
      <point x="572" y="38"/>
      <point x="531" y="129" type="curve"/>
      <point x="586" y="392" type="line"/>
      <point x="685" y="377" type="line"/>
      <point x="694" y="192" type="line"/>
      <point x="721" y="135"/>
      <point x="786" y="76"/>
      <point x="878" y="76" type="curve" smooth="yes"/>
      <point x="980" y="76"/>
      <point x="1111" y="124"/>
      <point x="1111" y="279" type="curve" smooth="yes"/>
      <point x="1111" y="432"/>
      <point x="869" y="549"/>
      <point x="728" y="639" type="curve"/>
      <point x="713" y="687" type="line"/>
      <point x="1102" y="1125" type="line"/>
      <point x="1103" y="1130" type="line"/>
      <point x="1064" y="1148"/>
      <point x="896" y="1161"/>
      <point x="877" y="1161" type="curve" smooth="yes"/>
      <point x="682" y="1161"/>
      <point x="571" y="1053"/>
      <point x="515" y="700" type="curve"/>
      <point x="406" y="0" type="line"/>
    </contour>
  </outline>
</glyph>
<glyph name="aacute.sc" format="1">
  <advance width="1077"/>
  <outline>
    <contour>
      <point x="770" y="310" type="line"/>
      <point x="381" y="310" type="line"/>
      <point x="435" y="412" type="line"/>
      <point x="757" y="412" type="line"/>
    </contour>
    <contour>
      <point x="749" y="121" type="line"/>
      <point x="638" y="730" type="line"/>
      <point x="320" y="124" type="line"/>
      <point x="459" y="80" type="line"/>
      <point x="435" y="0" type="line"/>
      <point x="37" y="0" type="line"/>
      <point x="58" y="74" type="line"/>
      <point x="185" y="129" type="line"/>
      <point x="634" y="917" type="line"/>
      <point x="790" y="948" type="line"/>
      <point x="954" y="124" type="line"/>
      <point x="1054" y="80" type="line"/>
      <point x="1032" y="0" type="line"/>
      <point x="587" y="0" type="line"/>
      <point x="611" y="74" type="line"/>
    </contour>
    <contour>
      <point x="681" y="1053" type="line"/>
      <point x="855" y="1378" type="line"/>
      <point x="960" y="1339" type="line"/>
      <point x="727" y="1021" type="line"/>
    </contour>
  </outline>
</glyph>
<glyph name="acircumflex.sc" format="1">
  <advance width="1077"/>
  <outline>
    <contour>
      <point x="770" y="310" type="line"/>
      <point x="381" y="310" type="line"/>
      <point x="435" y="412" type="line"/>
      <point x="757" y="412" type="line"/>
    </contour>
    <contour>
      <point x="749" y="121" type="line"/>
      <point x="638" y="730" type="line"/>
      <point x="320" y="124" type="line"/>
      <point x="459" y="80" type="line"/>
      <point x="435" y="0" type="line"/>
      <point x="37" y="0" type="line"/>
      <point x="58" y="74" type="line"/>
      <point x="185" y="129" type="line"/>
      <point x="634" y="917" type="line"/>
      <point x="790" y="948" type="line"/>
      <point x="954" y="124" type="line"/>
      <point x="1054" y="80" type="line"/>
      <point x="1032" y="0" type="line"/>
      <point x="587" y="0" type="line"/>
      <point x="611" y="74" type="line"/>
    </contour>
    <contour>
      <point x="536" y="1058" type="line"/>
      <point x="732" y="1237" type="line"/>
      <point x="790" y="1252" type="line"/>
      <point x="939" y="1066" type="line"/>
      <point x="883" y="1029" type="line"/>
      <point x="738" y="1139" type="line"/>
      <point x="726" y="1139" type="line"/>
      <point x="571" y="1028" type="line"/>
    </contour>
  </outline>
</glyph>
<glyph name="adieresis.sc" format="1">
  <advance width="1077"/>
  <outline>
    <contour>
      <point x="770" y="310" type="line"/>
      <point x="381" y="310" type="line"/>
      <point x="435" y="412" type="line"/>
      <point x="757" y="412" type="line"/>
    </contour>
    <contour>
      <point x="749" y="121" type="line"/>
      <point x="638" y="730" type="line"/>
      <point x="320" y="124" type="line"/>
      <point x="459" y="80" type="line"/>
      <point x="435" y="0" type="line"/>
      <point x="37" y="0" type="line"/>
      <point x="58" y="74" type="line"/>
      <point x="185" y="129" type="line"/>
      <point x="634" y="917" type="line"/>
      <point x="790" y="948" type="line"/>
      <point x="954" y="124" type="line"/>
      <point x="1054" y="80" type="line"/>
      <point x="1032" y="0" type="line"/>
      <point x="587" y="0" type="line"/>
      <point x="611" y="74" type="line"/>
    </contour>
    <contour>
      <point x="520" y="1109" type="curve" smooth="yes"/>
      <point x="527" y="1156"/>
      <point x="577" y="1186"/>
      <point x="617" y="1186" type="curve" smooth="yes"/>
      <point x="661" y="1186"/>
      <point x="698" y="1155"/>
      <point x="691" y="1109" type="curve" smooth="yes"/>
      <point x="683" y="1060"/>
      <point x="636" y="1027"/>
      <point x="592" y="1027" type="curve" smooth="yes"/>
      <point x="549" y="1027"/>
      <point x="512" y="1060"/>
    </contour>
    <contour>
      <point x="788" y="1109" type="curve" smooth="yes"/>
      <point x="795" y="1156"/>
      <point x="845" y="1186"/>
      <point x="885" y="1186" type="curve" smooth="yes"/>
      <point x="929" y="1186"/>
      <point x="967" y="1155"/>
      <point x="960" y="1109" type="curve" smooth="yes"/>
      <point x="952" y="1060"/>
      <point x="904" y="1027"/>
      <point x="860" y="1027" type="curve" smooth="yes"/>
      <point x="817" y="1027"/>
      <point x="780" y="1060"/>
    </contour>
  </outline>
</glyph>
<glyph name="ae.sc" format="1">
  <advance width="1452"/>
  <outline>
    <contour>
      <point x="352" y="126" type="line"/>
      <point x="493" y="83" type="line"/>
      <point x="467" y="1" type="line"/>
      <point x="52" y="1" type="line"/>
      <point x="73" y="76" type="line"/>
      <point x="218" y="131" type="line"/>
      <point x="783" y="812" type="line"/>
      <point x="585" y="851" type="line"/>
      <point x="607" y="927" type="line"/>
      <point x="1520" y="927" type="line"/>
      <point x="1456" y="654" type="line"/>
      <point x="1359" y="667" type="line"/>
      <point x="1354" y="835" type="line"/>
      <point x="1053" y="835" type="line"/>
      <point x="1001" y="503" type="line"/>
      <point x="1178" y="503" type="line"/>
      <point x="1212" y="583" type="line"/>
      <point x="1313" y="597" type="line"/>
      <point x="1231" y="298" type="line"/>
      <point x="1138" y="285" type="line"/>
      <point x="1147" y="410" type="line"/>
      <point x="986" y="410" type="line"/>
      <point x="936" y="96" type="line"/>
      <point x="1271" y="96" type="line"/>
      <point x="1367" y="276" type="line"/>
      <point x="1459" y="263" type="line"/>
      <point x="1397" y="0" type="line"/>
      <point x="588" y="0" type="line"/>
      <point x="608" y="74" type="line"/>
      <point x="752" y="121" type="line"/>
      <point x="785" y="327" type="line"/>
      <point x="512" y="327" type="line"/>
    </contour>
    <contour>
      <point x="589" y="423" type="line"/>
      <point x="800" y="423" type="line"/>
      <point x="852" y="754" type="line"/>
    </contour>
  </outline>
</glyph>
<glyph name="agrave.sc" format="1">
  <advance width="1037"/>
  <outline>
    <contour>
      <point x="751" y="310" type="line"/>
      <point x="362" y="310" type="line"/>
      <point x="416" y="412" type="line"/>
      <point x="738" y="412" type="line"/>
    </contour>
    <contour>
      <point x="730" y="121" type="line"/>
      <point x="619" y="730" type="line"/>
      <point x="301" y="124" type="line"/>
      <point x="440" y="80" type="line"/>
      <point x="416" y="0" type="line"/>
      <point x="18" y="0" type="line"/>
      <point x="39" y="74" type="line"/>
      <point x="166" y="129" type="line"/>
      <point x="615" y="917" type="line"/>
      <point x="771" y="948" type="line"/>
      <point x="935" y="124" type="line"/>
      <point x="1035" y="80" type="line"/>
      <point x="1013" y="0" type="line"/>
      <point x="568" y="0" type="line"/>
      <point x="592" y="74" type="line"/>
    </contour>
    <contour>
      <point x="557" y="1350" type="line"/>
      <point x="678" y="1388" type="line"/>
      <point x="757" y="1055" type="line"/>
      <point x="696" y="1020" type="line"/>
    </contour>
  </outline>
</glyph>
<glyph name="ampersand.sc" format="1">
  <advance width="1281"/>
  <outline>
    <contour>
      <point x="176" y="182" type="curve" smooth="yes"/>
      <point x="220" y="462"/>
      <point x="670" y="483"/>
      <point x="708" y="720" type="curve" smooth="yes"/>
      <point x="724" y="822"/>
      <point x="681" y="864"/>
      <point x="624" y="864" type="curve" smooth="yes"/>
      <point x="581" y="864"/>
      <point x="535" y="811"/>
      <point x="526" y="752" type="curve" smooth="yes"/>
      <point x="518" y="701"/>
      <point x="527" y="658"/>
      <point x="583" y="571" type="curve" smooth="yes"/>
      <point x="820" y="256" type="line" smooth="yes"/>
      <point x="908" y="138"/>
      <point x="991" y="100"/>
      <point x="1056" y="81" type="curve" smooth="yes"/>
      <point x="1087" y="71" type="line"/>
      <point x="1062" y="2" type="line"/>
      <point x="1023" y="-11"/>
      <point x="983" y="-18"/>
      <point x="940" y="-18" type="curve" smooth="yes"/>
      <point x="823" y="-18"/>
      <point x="730" y="68"/>
      <point x="683" y="131" type="curve" smooth="yes"/>
      <point x="406" y="507" type="line" smooth="yes"/>
      <point x="373" y="561"/>
      <point x="345" y="631"/>
      <point x="356" y="703" type="curve" smooth="yes"/>
      <point x="375" y="826"/>
      <point x="516" y="947"/>
      <point x="657" y="947" type="curve" smooth="yes"/>
      <point x="800" y="947"/>
      <point x="877" y="864"/>
      <point x="859" y="753" type="curve" smooth="yes"/>
      <point x="813" y="463"/>
      <point x="413" y="491"/>
      <point x="369" y="216" type="curve" smooth="yes"/>
      <point x="361" y="163"/>
      <point x="403" y="99"/>
      <point x="473" y="99" type="curve" smooth="yes"/>
      <point x="607" y="99"/>
      <point x="731" y="192"/>
      <point x="915" y="497" type="curve"/>
      <point x="807" y="539" type="line"/>
      <point x="828" y="607" type="line"/>
      <point x="1202" y="607" type="line"/>
      <point x="1181" y="539" type="line"/>
      <point x="1025" y="500" type="line"/>
      <point x="802" y="182"/>
      <point x="665" y="-19"/>
      <point x="393" y="-19" type="curve" smooth="yes"/>
      <point x="240" y="-19"/>
      <point x="157" y="63"/>
    </contour>
  </outline>
</glyph>
<glyph name="aring.sc" format="1">
  <advance width="1077"/>
  <outline>
    <contour>
      <point x="770" y="310" type="line"/>
      <point x="381" y="310" type="line"/>
      <point x="435" y="412" type="line"/>
      <point x="757" y="412" type="line"/>
    </contour>
    <contour>
      <point x="749" y="121" type="line"/>
      <point x="638" y="730" type="line"/>
      <point x="320" y="124" type="line"/>
      <point x="459" y="80" type="line"/>
      <point x="435" y="0" type="line"/>
      <point x="37" y="0" type="line"/>
      <point x="58" y="74" type="line"/>
      <point x="185" y="129" type="line"/>
      <point x="634" y="917" type="line"/>
      <point x="790" y="948" type="line"/>
      <point x="954" y="124" type="line"/>
      <point x="1054" y="80" type="line"/>
      <point x="1032" y="0" type="line"/>
      <point x="587" y="0" type="line"/>
      <point x="611" y="74" type="line"/>
    </contour>
    <contour>
      <point x="588" y="1173" type="curve" smooth="yes"/>
      <point x="603" y="1265"/>
      <point x="690" y="1345"/>
      <point x="783" y="1345" type="curve" smooth="yes"/>
      <point x="879" y="1345"/>
      <point x="928" y="1275"/>
      <point x="913" y="1182" type="curve" smooth="yes"/>
      <point x="899" y="1092"/>
      <point x="817" y="1007"/>
      <point x="715" y="1007" type="curve" smooth="yes"/>
      <point x="623" y="1007"/>
      <point x="572" y="1071"/>
    </contour>
    <contour>
      <point x="662" y="1184" type="curve" smooth="yes"/>
      <point x="652" y="1123"/>
      <point x="671" y="1056"/>
      <point x="735" y="1056" type="curve" smooth="yes"/>
      <point x="789" y="1056"/>
      <point x="827" y="1097"/>
      <point x="839" y="1170" type="curve" smooth="yes"/>
      <point x="849" y="1232"/>
      <point x="825" y="1296"/>
      <point x="763" y="1296" type="curve" smooth="yes"/>
      <point x="704" y="1296"/>
      <point x="671" y="1240"/>
    </contour>
  </outline>
</glyph>
<glyph name="atilde.sc" format="1">
  <advance width="1077"/>
  <outline>
    <contour>
      <point x="770" y="310" type="line"/>
      <point x="381" y="310" type="line"/>
      <point x="435" y="412" type="line"/>
      <point x="757" y="412" type="line"/>
    </contour>
    <contour>
      <point x="749" y="121" type="line"/>
      <point x="638" y="730" type="line"/>
      <point x="320" y="124" type="line"/>
      <point x="459" y="80" type="line"/>
      <point x="435" y="0" type="line"/>
      <point x="37" y="0" type="line"/>
      <point x="58" y="74" type="line"/>
      <point x="185" y="129" type="line"/>
      <point x="634" y="917" type="line"/>
      <point x="790" y="948" type="line"/>
      <point x="954" y="124" type="line"/>
      <point x="1054" y="80" type="line"/>
      <point x="1032" y="0" type="line"/>
      <point x="587" y="0" type="line"/>
      <point x="611" y="74" type="line"/>
    </contour>
    <contour>
      <point x="511" y="1032" type="line" smooth="yes"/>
      <point x="511" y="1032"/>
      <point x="576" y="1186"/>
      <point x="670" y="1174" type="curve" smooth="yes"/>
      <point x="891" y="1145" type="line" smooth="yes"/>
      <point x="916" y="1142"/>
      <point x="954" y="1185"/>
      <point x="954" y="1185" type="curve"/>
      <point x="1003" y="1183" type="line" smooth="yes"/>
      <point x="1003" y="1183"/>
      <point x="932" y="1027"/>
      <point x="837" y="1040" type="curve" smooth="yes"/>
      <point x="616" y="1072" type="line" smooth="yes"/>
      <point x="589" y="1076"/>
      <point x="550" y="1023"/>
      <point x="550" y="1023" type="curve"/>
    </contour>
  </outline>
</glyph>
<glyph name="b.sc" format="1">
  <advance width="943"/>
  <outline>
    <contour>
      <point x="37" y="0" type="line"/>
      <point x="60" y="74" type="line"/>
      <point x="204" y="121" type="line"/>
      <point x="312" y="804" type="line"/>
      <point x="176" y="834" type="line"/>
      <point x="198" y="911" type="line"/>
      <point x="328" y="932"/>
      <point x="483" y="957"/>
      <point x="638" y="957" type="curve" smooth="yes"/>
      <point x="871" y="957"/>
      <point x="949" y="847"/>
      <point x="930" y="727" type="curve" smooth="yes"/>
      <point x="918" y="651"/>
      <point x="862" y="558"/>
      <point x="719" y="516" type="curve"/>
      <point x="718" y="509" type="line"/>
      <point x="896" y="501"/>
      <point x="974" y="425"/>
      <point x="953" y="290" type="curve" smooth="yes"/>
      <point x="930" y="147"/>
      <point x="799" y="0"/>
      <point x="465" y="0" type="curve" smooth="yes"/>
    </contour>
    <contour>
      <point x="392" y="96" type="line"/>
      <point x="522" y="96" type="line" smooth="yes"/>
      <point x="656" y="96"/>
      <point x="737" y="163"/>
      <point x="755" y="277" type="curve" smooth="yes"/>
      <point x="769" y="363"/>
      <point x="715" y="442"/>
      <point x="580" y="442" type="curve" smooth="yes"/>
      <point x="447" y="442" type="line"/>
    </contour>
    <contour>
      <point x="460" y="525" type="line"/>
      <point x="626" y="525" type="line"/>
      <point x="705" y="565"/>
      <point x="732" y="614"/>
      <point x="747" y="709" type="curve" smooth="yes"/>
      <point x="759" y="786"/>
      <point x="729" y="871"/>
      <point x="565" y="871" type="curve" smooth="yes"/>
      <point x="550" y="871"/>
      <point x="531" y="870"/>
      <point x="514" y="868" type="curve"/>
    </contour>
  </outline>
</glyph>
<glyph name="c.sc" format="1">
  <advance width="879"/>
  <outline>
    <contour>
      <point x="109" y="439" type="curve" smooth="yes"/>
      <point x="144" y="659"/>
      <point x="330" y="947"/>
      <point x="673" y="947" type="curve" smooth="yes"/>
      <point x="776" y="947"/>
      <point x="877" y="929"/>
      <point x="944" y="880" type="curve"/>
      <point x="879" y="602" type="line"/>
      <point x="783" y="615" type="line"/>
      <point x="787" y="775" type="line"/>
      <point x="769" y="814"/>
      <point x="734" y="852"/>
      <point x="621" y="852" type="curve" smooth="yes"/>
      <point x="467" y="852"/>
      <point x="347" y="719"/>
      <point x="312" y="498" type="curve" smooth="yes"/>
      <point x="271" y="242"/>
      <point x="410" y="108"/>
      <point x="556" y="108" type="curve" smooth="yes"/>
      <point x="693" y="108"/>
      <point x="766" y="147"/>
      <point x="839" y="191" type="curve"/>
      <point x="862" y="115" type="line"/>
      <point x="788" y="51"/>
      <point x="669" y="-24"/>
      <point x="468" y="-24" type="curve" smooth="yes"/>
      <point x="243" y="-24"/>
      <point x="61" y="138"/>
    </contour>
  </outline>
</glyph>
<glyph name="ccedilla.sc" format="1">
  <advance width="879"/>
  <outline>
    <contour>
      <point x="109" y="439" type="curve" smooth="yes"/>
      <point x="144" y="659"/>
      <point x="330" y="947"/>
      <point x="673" y="947" type="curve" smooth="yes"/>
      <point x="776" y="947"/>
      <point x="877" y="929"/>
      <point x="944" y="880" type="curve"/>
      <point x="879" y="602" type="line"/>
      <point x="783" y="615" type="line"/>
      <point x="787" y="775" type="line"/>
      <point x="769" y="814"/>
      <point x="734" y="852"/>
      <point x="621" y="852" type="curve" smooth="yes"/>
      <point x="467" y="852"/>
      <point x="347" y="719"/>
      <point x="312" y="498" type="curve" smooth="yes"/>
      <point x="271" y="242"/>
      <point x="410" y="108"/>
      <point x="556" y="108" type="curve" smooth="yes"/>
      <point x="693" y="108"/>
      <point x="766" y="147"/>
      <point x="839" y="191" type="curve"/>
      <point x="862" y="115" type="line"/>
      <point x="788" y="51"/>
      <point x="669" y="-24"/>
      <point x="468" y="-24" type="curve" smooth="yes"/>
      <point x="243" y="-24"/>
      <point x="61" y="138"/>
    </contour>
    <contour>
      <point x="337" y="-335" type="line"/>
      <point x="397" y="-316"/>
      <point x="431" y="-282"/>
      <point x="436" y="-252" type="curve" smooth="yes"/>
      <point x="441" y="-218"/>
      <point x="411" y="-176"/>
      <point x="380" y="-142" type="curve"/>
      <point x="500" y="-1" type="line"/>
      <point x="574" y="-1" type="line"/>
      <point x="508" y="-80" type="line"/>
      <point x="540" y="-113"/>
      <point x="584" y="-164"/>
      <point x="573" y="-231" type="curve" smooth="yes"/>
      <point x="560" y="-310"/>
      <point x="468" y="-359"/>
      <point x="347" y="-393" type="curve"/>
    </contour>
  </outline>
</glyph>
<glyph name="d.sc" format="1">
  <advance width="1061"/>
  <outline>
    <contour>
      <point x="36" y="0" type="line"/>
      <point x="62" y="74" type="line"/>
      <point x="212" y="129" type="line"/>
      <point x="317" y="790" type="line"/>
      <point x="170" y="820" type="line"/>
      <point x="191" y="896" type="line"/>
      <point x="362" y="927"/>
      <point x="510" y="945"/>
      <point x="632" y="945" type="curve" smooth="yes"/>
      <point x="1053" y="945"/>
      <point x="1137" y="727"/>
      <point x="1101" y="498" type="curve" smooth="yes"/>
      <point x="1059" y="230"/>
      <point x="808" y="0"/>
      <point x="410" y="0" type="curve" smooth="yes"/>
    </contour>
    <contour>
      <point x="399" y="104" type="line"/>
      <point x="454" y="104" type="line" smooth="yes"/>
      <point x="707" y="104"/>
      <point x="849" y="245"/>
      <point x="884" y="463" type="curve" smooth="yes"/>
      <point x="923" y="708"/>
      <point x="824" y="842"/>
      <point x="578" y="842" type="curve" smooth="yes"/>
      <point x="558" y="842"/>
      <point x="537" y="842"/>
      <point x="516" y="838" type="curve"/>
    </contour>
  </outline>
</glyph>
<glyph name="dollar.osf" format="1">
  <advance width="859"/>
  <outline>
    <contour>
      <point x="72" y="141" type="curve" smooth="yes"/>
      <point x="83" y="208"/>
      <point x="141" y="265"/>
      <point x="225" y="271" type="curve"/>
      <point x="246" y="130"/>
      <point x="305" y="64"/>
      <point x="381" y="64" type="curve" smooth="yes"/>
      <point x="451" y="64"/>
      <point x="517" y="91"/>
      <point x="529" y="165" type="curve" smooth="yes"/>
      <point x="554" y="324"/>
      <point x="130" y="354"/>
      <point x="173" y="624" type="curve" smooth="yes"/>
      <point x="191" y="740"/>
      <point x="313" y="900"/>
      <point x="515" y="900" type="curve" smooth="yes"/>
      <point x="646" y="900"/>
      <point x="751" y="845"/>
      <point x="733" y="734" type="curve" smooth="yes"/>
      <point x="720" y="651"/>
      <point x="658" y="595"/>
      <point x="570" y="589" type="curve"/>
      <point x="570" y="632" type="line" smooth="yes"/>
      <point x="565" y="780"/>
      <point x="509" y="816"/>
      <point x="450" y="816" type="curve" smooth="yes"/>
      <point x="380" y="816"/>
      <point x="329" y="760"/>
      <point x="319" y="696" type="curve" smooth="yes"/>
      <point x="289" y="509"/>
      <point x="725" y="487"/>
      <point x="683" y="220" type="curve" smooth="yes"/>
      <point x="660" y="72"/>
      <point x="489" y="-34"/>
      <point x="335" y="-34" type="curve" smooth="yes"/>
      <point x="157" y="-34"/>
      <point x="58" y="51"/>
    </contour>
    <contour>
      <point x="267" y="-197" type="line"/>
      <point x="313" y="-15" type="line"/>
      <point x="420" y="-6" type="line"/>
      <point x="409" y="-179" type="line"/>
    </contour>
    <contour>
      <point x="470" y="1041" type="line"/>
      <point x="605" y="1058" type="line"/>
      <point x="562" y="889" type="line"/>
      <point x="462" y="889" type="line"/>
    </contour>
  </outline>
</glyph>
